SplineFontDB: 3.0
FontName: MerriweatherSans-Bold
FullName: Merriweather Sans Bold
FamilyName: Merriweather Sans
Weight: Bold
Copyright: Copyright (c) 2013, Sorkin Type Co (www.sorkintype.com) with Reserved Font Name 'Merriweather'
Version: 1.003; ttfautohint (v0.93.8-669f) -l 7 -r 28 -G 0 -x 13 -w "" -W -c
ItalicAngle: 0
UnderlinePosition: -212
UnderlineWidth: 137
Ascent: 1638
Descent: 410
sfntRevision: 0x000100c5
LayerCount: 2
Layer: 0 1 "Back"  1
Layer: 1 1 "Fore"  0
XUID: [1021 631 1661839179 5204983]
FSType: 0
OS2Version: 3
OS2_WeightWidthSlopeOnly: 0
OS2_UseTypoMetrics: 1
CreationTime: 1361884740
ModificationTime: 1361883866
PfmFamily: 17
TTFWeight: 700
TTFWidth: 5
LineGap: 0
VLineGap: 0
Panose: 2 0 5 3 6 0 0 2 0 4
OS2TypoAscent: 2014
OS2TypoAOffset: 0
OS2TypoDescent: -560
OS2TypoDOffset: 0
OS2TypoLinegap: 0
OS2WinAscent: 2014
OS2WinAOffset: 0
OS2WinDescent: 560
OS2WinDOffset: 0
HheadAscent: 2014
HheadAOffset: 0
HheadDescent: -560
HheadDOffset: 0
OS2SubXSize: 650
OS2SubYSize: 600
OS2SubXOff: 0
OS2SubYOff: 75
OS2SupXSize: 650
OS2SupYSize: 600
OS2SupXOff: 0
OS2SupYOff: 350
OS2StrikeYSize: 102
OS2StrikeYPos: 512
OS2FamilyClass: 768
OS2Vendor: 'STC '
OS2CodePages: 20000093.00000000
OS2UnicodeRanges: a00000af.5000204b.00000000.00000000
Lookup: 1 0 0 "'aalt' Access All Alternates in Latin lookup 0"  {"'aalt' Access All Alternates in Latin lookup 0 subtable"  } ['aalt' ('DFLT' <'dflt' > 'latn' <'AZE ' 'CRT ' 'MOL ' 'ROM ' 'TRK ' 'dflt' > ) ]
Lookup: 3 0 0 "'aalt' Access All Alternates in Latin lookup 1"  {"'aalt' Access All Alternates in Latin lookup 1 subtable"  } ['aalt' ('DFLT' <'dflt' > 'latn' <'AZE ' 'CRT ' 'MOL ' 'ROM ' 'TRK ' 'dflt' > ) ]
Lookup: 1 0 0 "'locl' Localized Forms lookup 2"  {"'locl' Localized Forms lookup 2 subtable"  } ['locl' ('DFLT' <'AZE ' > ) ]
Lookup: 1 0 0 "'locl' Localized Forms lookup 3"  {"'locl' Localized Forms lookup 3 subtable"  } ['locl' ('DFLT' <'TRK ' > ) ]

StartChar: .notdef
Encoding: 65536 -1 0
Width: 1882
Flags: W
LayerCount: 2
Fore
SplineSet
233 1416 m 1,0,-1
 1649 1416 l 1,1,-1
 1649 0 l 1,2,-1
 233 0 l 1,3,-1
 233 1416 l 1,0,-1
591 219 m 1,4,-1
 938 587 l 1,5,-1
 1300 219 l 1,6,-1
 1422 341 l 1,7,-1
 1059 709 l 1,8,-1
 1422 1067 l 1,9,-1
 1294 1191 l 1,10,-1
 942 825 l 1,11,-1
 585 1193 l 1,12,-1
 462 1068 l 1,13,-1
 821 705 l 1,14,-1
 463 363 l 1,15,-1
 591 219 l 1,4,-1
EndSplineSet
EndChar

StartChar: exclam
Encoding: 33 33 25
Width: 641
GlyphClass: 2
Flags: W
LayerCount: 2
Fore
SplineSet
151 1780 m 1,0,-1
 498 1780 l 1,1,-1
 464 555 l 1,2,-1
 197 555 l 1,3,-1
 151 1780 l 1,0,-1
126 173 m 0,4,5
 126 215 126 215 141.5 252.5 c 128,-1,6
 157 290 157 290 185 320 c 0,7,8
 245 383 245 383 329 383 c 0,9,10
 459 383 459 383 502 266 c 0,11,12
 515 231 515 231 515 189.5 c 128,-1,13
 515 148 515 148 499.5 109.5 c 128,-1,14
 484 71 484 71 456 42 c 0,15,16
 397 -22 397 -22 312 -22 c 0,17,18
 232 -22 232 -22 179 33 c 128,-1,19
 126 88 126 88 126 173 c 0,4,5
EndSplineSet
EndChar

StartChar: numbersign
Encoding: 35 35 27
Width: 1645
GlyphClass: 2
Flags: W
LayerCount: 2
Fore
SplineSet
382 326 m 1,0,-1
 196 326 l 1,1,-1
 196 536 l 1,2,-1
 402 536 l 1,3,-1
 432 856 l 1,4,-1
 234 856 l 1,5,-1
 234 1058 l 1,6,-1
 451 1058 l 1,7,-1
 481 1373 l 1,8,-1
 742 1373 l 1,9,-1
 712 1058 l 1,10,-1
 987 1058 l 1,11,-1
 1016 1373 l 1,12,-1
 1275 1373 l 1,13,-1
 1245 1058 l 1,14,-1
 1449 1058 l 1,15,-1
 1449 856 l 1,16,-1
 1226 856 l 1,17,-1
 1196 536 l 1,18,-1
 1405 536 l 1,19,-1
 1405 326 l 1,20,-1
 1176 326 l 1,21,-1
 1145 0 l 1,22,-1
 891 0 l 1,23,-1
 920 326 l 1,24,-1
 641 326 l 1,25,-1
 610 0 l 1,26,-1
 352 0 l 1,27,-1
 382 326 l 1,0,-1
939 536 m 1,28,-1
 968 856 l 1,29,-1
 692 856 l 1,30,-1
 661 536 l 1,31,-1
 939 536 l 1,28,-1
EndSplineSet
EndChar

StartChar: dollar
Encoding: 36 36 28
Width: 1410
GlyphClass: 2
Flags: W
LayerCount: 2
Fore
SplineSet
763 1300 m 0,0,1
 535 1300 535 1300 535 1144 c 0,2,3
 535 1067 535 1067 597 1013 c 0,4,5
 642 974 642 974 765 908.5 c 128,-1,6
 888 843 888 843 964.5 796.5 c 128,-1,7
 1041 750 1041 750 1097 694 c 0,8,9
 1216 577 1216 577 1216 408 c 0,10,11
 1216 219 1216 219 1089 108 c 1,12,13
 967 0 967 0 754 -14 c 1,14,-1
 749 -225 l 1,15,-1
 565 -225 l 1,16,-1
 571 -9 l 1,17,18
 400 9 400 9 286 51 c 0,19,20
 253 63 253 63 236 74 c 1,21,-1
 281 329 l 1,22,23
 394 266 394 266 555 242 c 0,24,25
 612 233 612 233 674 233 c 128,-1,26
 736 233 736 233 779 243 c 128,-1,27
 822 253 822 253 848 272 c 0,28,29
 896 308 896 308 896 388 c 0,30,31
 896 466 896 466 836 518 c 0,32,33
 784 564 784 564 670 620.5 c 128,-1,34
 556 677 556 677 510.5 703.5 c 128,-1,35
 465 730 465 730 423 762 c 128,-1,36
 381 794 381 794 344.5 831.5 c 128,-1,37
 308 869 308 869 281 914 c 0,38,39
 223 1012 223 1012 223 1117 c 128,-1,40
 223 1222 223 1222 253 1291.5 c 128,-1,41
 283 1361 283 1361 336 1410 c 0,42,43
 436 1502 436 1502 615 1528 c 1,44,-1
 623 1763 l 1,45,-1
 806 1763 l 1,46,-1
 799 1537 l 1,47,48
 1026 1526 1026 1526 1147 1450 c 1,49,-1
 1095 1203 l 1,50,51
 944 1300 944 1300 763 1300 c 0,0,1
EndSplineSet
EndChar

StartChar: percent
Encoding: 37 37 29
Width: 2188
GlyphClass: 3
Flags: W
LayerCount: 2
Fore
SplineSet
1267 1530 m 1,0,-1
 1514 1530 l 1,1,-1
 921 0 l 1,2,-1
 675 0 l 1,3,-1
 1267 1530 l 1,0,-1
799 748.5 m 128,-1,5
 672 627 672 627 489 627 c 128,-1,6
 306 627 306 627 204.5 752.5 c 128,-1,7
 103 878 103 878 103 1078 c 128,-1,8
 103 1278 103 1278 229.5 1400.5 c 128,-1,9
 356 1523 356 1523 543 1523 c 128,-1,10
 730 1523 730 1523 828 1399.5 c 128,-1,11
 926 1276 926 1276 926 1073 c 128,-1,4
 926 870 926 870 799 748.5 c 128,-1,5
512 824 m 0,12,13
 592 824 592 824 634.5 889.5 c 128,-1,14
 677 955 677 955 677 1041.5 c 128,-1,15
 677 1128 677 1128 666 1175.5 c 128,-1,16
 655 1223 655 1223 634 1256 c 0,17,18
 591 1327 591 1327 513.5 1327 c 128,-1,19
 436 1327 436 1327 394 1261 c 128,-1,20
 352 1195 352 1195 352 1080 c 0,21,22
 352 901 352 901 444 843 c 0,23,24
 474 824 474 824 512 824 c 0,12,13
1261 464 m 0,25,26
 1261 565 1261 565 1296.5 649 c 128,-1,27
 1332 733 1332 733 1392 790 c 1,28,29
 1514 909 1514 909 1696 909 c 0,30,31
 1887 909 1887 909 1990 780 c 1,32,33
 2085 663 2085 663 2085 464 c 0,34,35
 2085 255 2085 255 1954 130 c 1,36,37
 1834 14 1834 14 1656 12 c 1,38,39
 1465 12 1465 12 1359 142 c 1,40,41
 1261 264 1261 264 1261 464 c 0,25,26
1510 466 m 0,42,43
 1510 288 1510 288 1603 229 c 0,44,45
 1633 210 1633 210 1671 210 c 0,46,47
 1751 210 1751 210 1793 275.5 c 128,-1,48
 1835 341 1835 341 1835 427.5 c 128,-1,49
 1835 514 1835 514 1824.5 561 c 128,-1,50
 1814 608 1814 608 1794 642 c 0,51,52
 1751 713 1751 713 1673 713 c 128,-1,53
 1595 713 1595 713 1552.5 647 c 128,-1,54
 1510 581 1510 581 1510 466 c 0,42,43
EndSplineSet
Ligature2: "'frac' Diagonal Fractions in Latin lookup 10 subtable" zero slash zero
EndChar

StartChar: ampersand
Encoding: 38 38 30
Width: 1542
GlyphClass: 2
Flags: W
LayerCount: 2
Fore
SplineSet
1044 56 m 1,0,1
 873 -16 873 -16 735 -16 c 0,2,3
 412 -16 412 -16 250 91.5 c 128,-1,4
 88 199 88 199 88 399 c 0,5,6
 88 643 88 643 398 789 c 1,7,8
 295 930 295 930 268 1050 c 0,9,10
 256 1104 256 1104 256 1180.5 c 128,-1,11
 256 1257 256 1257 287.5 1327.5 c 128,-1,12
 319 1398 319 1398 377 1446 c 0,13,14
 496 1546 496 1546 699 1546 c 0,15,16
 885 1546 885 1546 1002 1438 c 1,17,18
 1113 1337 1113 1337 1113 1182 c 0,19,20
 1113 932 1113 932 924 794 c 0,21,22
 865 751 865 751 792 714 c 1,23,24
 944 521 944 521 1077 377 c 1,25,26
 1150 458 1150 458 1150 577 c 0,27,28
 1150 647 1150 647 1140 691.5 c 128,-1,29
 1130 736 1130 736 1126 757 c 1,30,-1
 1384 757 l 1,31,32
 1404 669 1404 669 1404 576 c 0,33,34
 1404 350 1404 350 1267 213 c 1,35,36
 1343 170 1343 170 1466 166 c 1,37,-1
 1466 -1 l 1,38,39
 1406 -16 1406 -16 1323 -16 c 0,40,41
 1160 -16 1160 -16 1044 56 c 1,0,1
662 891 m 1,42,43
 855 990 855 990 855 1179 c 0,44,45
 855 1237 855 1237 828 1272 c 0,46,47
 777 1337 777 1337 701 1337 c 128,-1,48
 625 1337 625 1337 580 1293 c 128,-1,49
 535 1249 535 1249 535 1190.5 c 128,-1,50
 535 1132 535 1132 542.5 1099.5 c 128,-1,51
 550 1067 550 1067 566 1036 c 0,52,53
 587 994 587 994 662 891 c 1,42,43
528 609 m 1,54,55
 383 531 383 531 383 416 c 0,56,57
 383 217 383 217 688 217 c 0,58,59
 776 217 776 217 845 232 c 1,60,61
 710 378 710 378 528 609 c 1,54,55
EndSplineSet
EndChar

StartChar: quotesingle
Encoding: 39 39 31
Width: 737
GlyphClass: 2
Flags: W
LayerCount: 2
Fore
SplineSet
216 1685 m 1,0,-1
 521 1685 l 1,1,-1
 485 966 l 1,2,-1
 254 966 l 1,3,-1
 216 1685 l 1,0,-1
EndSplineSet
EndChar

StartChar: parenleft
Encoding: 40 40 32
Width: 835
GlyphClass: 2
Flags: W
LayerCount: 2
Fore
SplineSet
599 -360 m 1,0,1
 464 -278 464 -278 330 -65 c 0,2,3
 212 124 212 124 158 396 c 0,4,5
 130 541 130 541 130 705.5 c 128,-1,6
 130 870 130 870 156.5 1002.5 c 128,-1,7
 183 1135 183 1135 225.5 1246 c 128,-1,8
 268 1357 268 1357 321 1446 c 128,-1,9
 374 1535 374 1535 426 1600 c 0,10,11
 523 1722 523 1722 599 1767 c 1,12,-1
 780 1651 l 1,13,14
 677 1575 677 1575 565 1368 c 0,15,16
 407 1075 407 1075 407 707 c 0,17,18
 407 220 407 220 638 -96 c 1,19,20
 711 -194 711 -194 780 -244 c 1,21,-1
 599 -360 l 1,0,1
EndSplineSet
EndChar

StartChar: asterisk
Encoding: 42 42 34
Width: 1348
GlyphClass: 2
Flags: W
LayerCount: 2
Fore
SplineSet
136 983 m 1,0,-1
 388 1118 l 1,1,-1
 569 1171 l 1,2,3
 552 1178 552 1178 501 1189 c 1,4,5
 405 1212 405 1212 387 1219 c 1,6,-1
 130 1347 l 1,7,-1
 240 1555 l 1,8,-1
 483 1391 l 1,9,-1
 620 1261 l 1,10,11
 619 1269 619 1269 612 1294 c 128,-1,12
 605 1319 605 1319 597 1348 c 0,13,14
 575 1426 575 1426 574 1443 c 2,15,-1
 548 1736 l 1,16,-1
 784 1736 l 1,17,-1
 767 1448 l 1,18,-1
 724 1264 l 1,19,20
 734 1272 734 1272 771 1311 c 0,21,22
 836 1380 836 1380 857 1398 c 1,23,-1
 1099 1564 l 1,24,-1
 1211 1358 l 1,25,-1
 958 1227 l 1,26,-1
 777 1172 l 1,27,-1
 960 1123 l 1,28,-1
 1218 1000 l 1,29,-1
 1099 786 l 1,30,-1
 866 948 l 1,31,-1
 725 1078 l 1,32,33
 726 1070 726 1070 733 1045 c 128,-1,34
 740 1020 740 1020 748 990 c 0,35,36
 769 912 769 912 772 896 c 1,37,-1
 799 603 l 1,38,-1
 563 602 l 1,39,-1
 580 895 l 1,40,-1
 623 1080 l 1,41,-1
 488 942 l 1,42,-1
 253 776 l 1,43,-1
 136 983 l 1,0,-1
EndSplineSet
EndChar

StartChar: plus
Encoding: 43 43 35
Width: 1403
GlyphClass: 2
Flags: W
LayerCount: 2
Fore
SplineSet
578 474 m 1,0,-1
 584 662 l 1,1,-1
 422 656 l 1,2,-1
 213 656 l 1,3,-1
 213 893 l 1,4,-1
 422 893 l 1,5,-1
 584 886 l 1,6,-1
 578 1073 l 1,7,-1
 578 1290 l 1,8,-1
 824 1290 l 1,9,-1
 824 1073 l 1,10,-1
 817 886 l 1,11,-1
 968 893 l 1,12,-1
 1190 893 l 1,13,-1
 1190 656 l 1,14,-1
 968 656 l 1,15,-1
 817 662 l 1,16,-1
 824 474 l 1,17,-1
 824 260 l 1,18,-1
 578 260 l 1,19,-1
 578 474 l 1,0,-1
EndSplineSet
EndChar

StartChar: comma
Encoding: 44 44 36
Width: 693
GlyphClass: 2
Flags: W
LayerCount: 2
Fore
SplineSet
163 160 m 1,0,-1
 385 296 l 1,1,2
 472 263 472 263 524 163 c 0,3,4
 569 77 569 77 569 -15 c 128,-1,5
 569 -107 569 -107 546.5 -185.5 c 128,-1,6
 524 -264 524 -264 485 -328 c 0,7,8
 404 -463 404 -463 282 -506 c 1,9,-1
 176 -408 l 1,10,-1
 176 -382 l 1,11,12
 242 -343 242 -343 271 -215 c 0,13,14
 280 -176 280 -176 280 -138.5 c 128,-1,15
 280 -101 280 -101 269 -64.5 c 128,-1,16
 258 -28 258 -28 240 2 c 0,17,18
 200 71 200 71 163 73 c 1,19,-1
 163 160 l 1,0,-1
EndSplineSet
EndChar

StartChar: hyphen
Encoding: 45 45 37
Width: 1360
GlyphClass: 2
Flags: W
LayerCount: 2
Fore
SplineSet
255 889 m 1,0,-1
 1105 889 l 1,1,-1
 1105 644 l 1,2,-1
 255 644 l 1,3,-1
 255 889 l 1,0,-1
EndSplineSet
EndChar

StartChar: period
Encoding: 46 46 38
Width: 641
GlyphClass: 2
Flags: W
LayerCount: 2
Fore
SplineSet
126 172 m 0,0,1
 126 213 126 213 142 251.5 c 128,-1,2
 158 290 158 290 186 320 c 0,3,4
 245 383 245 383 330 383 c 0,5,6
 414 383 414 383 466 328 c 1,7,8
 515 274 515 274 515 191 c 0,9,10
 515 188 515 188 515 167 c 128,-1,11
 515 146 515 146 500 108.5 c 128,-1,12
 485 71 485 71 458 42 c 0,13,14
 398 -22 398 -22 313 -22 c 0,15,16
 233 -22 233 -22 180 33 c 0,17,18
 126 89 126 89 126 172 c 0,0,1
EndSplineSet
EndChar

StartChar: slash
Encoding: 47 47 39
Width: 864
GlyphClass: 2
Flags: W
LayerCount: 2
Fore
SplineSet
585 1599 m 1,0,-1
 840 1599 l 1,1,-1
 279 -363 l 1,2,-1
 24 -363 l 1,3,-1
 585 1599 l 1,0,-1
EndSplineSet
EndChar

StartChar: zero
Encoding: 48 48 40
Width: 1409
GlyphClass: 2
Flags: W
LayerCount: 2
Fore
SplineSet
249 184 m 0,0,1
 181 276 181 276 152.5 391 c 128,-1,2
 124 506 124 506 124 643.5 c 128,-1,3
 124 781 124 781 170 901 c 128,-1,4
 216 1021 216 1021 295 1102 c 0,5,6
 459 1272 459 1272 722 1272 c 0,7,8
 1030 1272 1030 1272 1170 1086 c 1,9,10
 1285 931 1285 931 1285 645 c 0,11,12
 1285 346 1285 346 1125 165 c 128,-1,13
 965 -16 965 -16 697 -16 c 0,14,15
 398 -16 398 -16 249 184 c 0,0,1
714 201 m 0,16,17
 903 201 903 201 954 444 c 0,18,19
 970 524 970 524 970 619 c 128,-1,20
 970 714 970 714 955 792 c 128,-1,21
 940 870 940 870 908 928 c 0,22,23
 838 1055 838 1055 704 1055 c 0,24,25
 578 1055 578 1055 508 948 c 0,26,27
 439 841 439 841 439 651 c 0,28,29
 439 467 439 467 508 334 c 128,-1,30
 577 201 577 201 714 201 c 0,16,17
EndSplineSet
EndChar

StartChar: one
Encoding: 49 49 41
Width: 1004
GlyphClass: 2
Flags: W
LayerCount: 2
Fore
SplineSet
391 929 m 1,0,1
 324 913 324 913 153 882 c 1,2,-1
 127 1067 l 1,3,4
 307 1116 307 1116 510 1243 c 0,5,6
 541 1262 541 1262 560 1278 c 1,7,-1
 714 1253 l 1,8,-1
 712 0 l 1,9,-1
 391 0 l 1,10,-1
 391 929 l 1,0,1
EndSplineSet
Substitution2: "'sups' Superscript in Latin lookup 11 subtable" onesuperior
EndChar

StartChar: two
Encoding: 50 50 42
Width: 1361
GlyphClass: 2
Flags: W
LayerCount: 2
Fore
SplineSet
1138 895 m 0,0,1
 1138 542 1138 542 652 243 c 1,2,-1
 1209 264 l 1,3,-1
 1209 0 l 1,4,-1
 186 0 l 1,5,-1
 143 155 l 1,6,7
 650 437 650 437 779 704 c 0,8,9
 811 771 811 771 811 826 c 128,-1,10
 811 881 811 881 798.5 919 c 128,-1,11
 786 957 786 957 760 984 c 0,12,13
 704 1044 704 1044 598 1044 c 0,14,15
 458 1044 458 1044 330 960 c 0,16,17
 294 936 294 936 268 910 c 1,18,-1
 151 1093 l 1,19,20
 271 1222 271 1222 482 1273 c 0,21,22
 559 1292 559 1292 672 1292 c 128,-1,23
 785 1292 785 1292 878 1258.5 c 128,-1,24
 971 1225 971 1225 1029 1170 c 0,25,26
 1138 1065 1138 1065 1138 895 c 0,0,1
EndSplineSet
Substitution2: "'sups' Superscript in Latin lookup 11 subtable" twosuperior
EndChar

StartChar: three
Encoding: 51 51 43
Width: 1170
GlyphClass: 2
Flags: W
LayerCount: 2
Fore
SplineSet
122 -85 m 1,0,1
 224 -108 224 -108 314 -108 c 128,-1,2
 404 -108 404 -108 485 -90.5 c 128,-1,3
 566 -73 566 -73 625 -38 c 0,4,5
 752 36 752 36 752 167 c 0,6,7
 752 345 752 345 600 396 c 0,8,9
 553 412 553 412 515 412 c 128,-1,10
 477 412 477 412 466 412 c 1,11,-1
 327 376 l 1,12,-1
 285 574 l 1,13,14
 433 605 433 605 529 654 c 1,15,16
 683 741 683 741 683 880 c 0,17,18
 683 1035 683 1035 476 1035 c 0,19,20
 333 1035 333 1035 224 968 c 0,21,22
 194 950 194 950 170 934 c 1,23,-1
 77 1129 l 1,24,25
 164 1220 164 1220 377 1266 c 0,26,27
 447 1281 447 1281 543.5 1281 c 128,-1,28
 640 1281 640 1281 731 1255 c 128,-1,29
 822 1229 822 1229 883 1181 c 0,30,31
 1004 1086 1004 1086 1004 917 c 0,32,33
 1004 720 1004 720 840 594 c 0,34,35
 791 557 791 557 735 531 c 1,36,37
 907 516 907 516 1003 400 c 0,38,39
 1084 302 1084 302 1084 182.5 c 128,-1,40
 1084 63 1084 63 1035 -29.5 c 128,-1,41
 986 -122 986 -122 897 -190 c 0,42,43
 707 -335 707 -335 404 -335 c 0,44,45
 252 -335 252 -335 123 -289 c 1,46,-1
 122 -85 l 1,0,1
EndSplineSet
Substitution2: "'sups' Superscript in Latin lookup 11 subtable" threesuperior
EndChar

StartChar: four
Encoding: 52 52 44
Width: 1412
GlyphClass: 2
Flags: W
LayerCount: 2
Fore
SplineSet
660 1334 m 1,0,-1
 733 1334 l 1,1,-1
 977 1211 l 1,2,-1
 516 361 l 1,3,-1
 440 234 l 1,4,-1
 828 234 l 1,5,-1
 866 644 l 1,6,-1
 1128 644 l 1,7,-1
 1128 234 l 1,8,-1
 1361 234 l 1,9,-1
 1361 0 l 1,10,-1
 1128 0 l 1,11,-1
 1128 -376 l 1,12,-1
 828 -376 l 1,13,-1
 828 0 l 1,14,-1
 176 0 l 1,15,-1
 100 133 l 1,16,-1
 660 1334 l 1,0,-1
EndSplineSet
EndChar

StartChar: five
Encoding: 53 53 45
Width: 1293
GlyphClass: 2
Flags: W
LayerCount: 2
Fore
SplineSet
193 -123 m 1,0,1
 233 -125 233 -125 314.5 -125 c 128,-1,2
 396 -125 396 -125 499 -99 c 128,-1,3
 602 -73 602 -73 676 -26 c 0,4,5
 832 73 832 73 832 234 c 0,6,7
 832 344 832 344 767 396 c 0,8,9
 698 451 698 451 546 451 c 0,10,11
 455 451 455 451 249 385 c 1,12,-1
 199 415 l 1,13,-1
 265 1252 l 1,14,-1
 1112 1252 l 1,15,-1
 1084 985 l 1,16,-1
 491 985 l 1,17,-1
 458 650 l 1,18,19
 610 685 610 685 712.5 685 c 128,-1,20
 815 685 815 685 897 653.5 c 128,-1,21
 979 622 979 622 1036 564 c 0,22,23
 1151 447 1151 447 1151 245 c 0,24,25
 1151 120 1151 120 1093.5 11 c 128,-1,26
 1036 -98 1036 -98 928 -178 c 1,27,28
 697 -352 697 -352 327 -354 c 0,29,30
 237 -354 237 -354 192 -341 c 1,31,-1
 193 -123 l 1,0,1
EndSplineSet
EndChar

StartChar: six
Encoding: 54 54 46
Width: 1414
GlyphClass: 2
Flags: W
LayerCount: 2
Fore
SplineSet
852 764 m 0,0,1
 817 778 817 778 756 778 c 128,-1,2
 695 778 695 778 623 742 c 1,3,-1
 560 923 l 1,4,5
 616 983 616 983 748 1008 c 0,6,7
 795 1017 795 1017 875.5 1017 c 128,-1,8
 956 1017 956 1017 1036.5 980 c 128,-1,9
 1117 943 1117 943 1172 880 c 0,10,11
 1285 751 1285 751 1285 554 c 0,12,13
 1285 310 1285 310 1140 156 c 1,14,15
 980 -16 980 -16 690 -16 c 0,16,17
 432 -16 432 -16 276 162 c 0,18,19
 127 331 127 331 127 586 c 0,20,21
 127 864 127 864 272 1103 c 0,22,23
 398 1312 398 1312 611 1457 c 0,24,25
 803 1588 803 1588 1001 1620 c 1,26,-1
 1077 1433 l 1,27,28
 898 1388 898 1388 750 1258 c 0,29,30
 547 1081 547 1081 482 826 c 0,31,32
 461 743 461 743 461 653.5 c 128,-1,33
 461 564 461 564 473 483.5 c 128,-1,34
 485 403 485 403 515 339 c 0,35,36
 579 202 579 202 719 202 c 0,37,38
 842 202 842 202 908 280 c 0,39,40
 969 351 969 351 969 483 c 0,41,42
 969 714 969 714 852 764 c 0,0,1
EndSplineSet
EndChar

StartChar: seven
Encoding: 55 55 47
Width: 1286
GlyphClass: 2
Flags: W
LayerCount: 2
Fore
SplineSet
264 -302 m 1,0,1
 482 150 482 150 633.5 511 c 128,-1,2
 785 872 785 872 836 996 c 1,3,-1
 106 997 l 1,4,-1
 106 1271 l 1,5,-1
 1107 1271 l 1,6,-1
 1184 1154 l 1,7,-1
 582 -394 l 1,8,-1
 264 -302 l 1,0,1
EndSplineSet
EndChar

StartChar: eight
Encoding: 56 56 48
Width: 1356
GlyphClass: 2
Flags: W
LayerCount: 2
Fore
SplineSet
415 779 m 1,0,1
 180 937 180 937 180 1174 c 0,2,3
 180 1350 180 1350 315 1456 c 1,4,5
 452 1565 452 1565 682 1565 c 0,6,7
 909 1565 909 1565 1042 1466 c 1,8,9
 1172 1371 1172 1371 1172 1212 c 0,10,11
 1172 1032 1172 1032 1024 896 c 0,12,13
 973 849 973 849 904 816 c 1,14,15
 1060 726 1060 726 1119.5 662.5 c 128,-1,16
 1179 599 1179 599 1207 539.5 c 128,-1,17
 1235 480 1235 480 1235 391.5 c 128,-1,18
 1235 303 1235 303 1193.5 224.5 c 128,-1,19
 1152 146 1152 146 1078 92 c 0,20,21
 929 -16 929 -16 692 -16 c 0,22,23
 440 -16 440 -16 290 84 c 1,24,25
 129 190 129 190 129 385 c 0,26,27
 129 629 129 629 415 779 c 1,0,1
714 919 m 1,28,29
 895 994 895 994 895 1180 c 0,30,31
 895 1301 895 1301 770 1342 c 0,32,33
 730 1355 730 1355 682 1355 c 128,-1,34
 634 1355 634 1355 596 1343.5 c 128,-1,35
 558 1332 558 1332 530 1311 c 0,36,37
 468 1266 468 1266 468 1193 c 0,38,39
 468 1078 468 1078 618 978 c 0,40,41
 663 948 663 948 714 919 c 1,28,29
603 671 m 1,42,43
 424 577 424 577 424 403 c 0,44,45
 424 264 424 264 570 220 c 0,46,47
 621 204 621 204 680 204 c 128,-1,48
 739 204 739 204 780.5 215.5 c 128,-1,49
 822 227 822 227 854 250 c 0,50,51
 924 299 924 299 924 378 c 0,52,53
 924 501 924 501 724 608 c 0,54,55
 666 639 666 639 603 671 c 1,42,43
EndSplineSet
EndChar

StartChar: nine
Encoding: 57 57 49
Width: 1427
GlyphClass: 2
Flags: W
LayerCount: 2
Fore
SplineSet
569.5 491 m 128,-1,1
 606 473 606 473 671.5 473 c 128,-1,2
 737 473 737 473 803 506 c 1,3,-1
 863 328 l 1,4,5
 811 268 811 268 678 243 c 0,6,7
 630 234 630 234 547.5 234 c 128,-1,8
 465 234 465 234 384 272.5 c 128,-1,9
 303 311 303 311 248 376 c 0,10,11
 135 508 135 508 135 708 c 0,12,13
 135 957 135 957 283 1109 c 0,14,15
 442 1272 442 1272 729 1272 c 0,16,17
 989 1272 989 1272 1143 1094 c 0,18,19
 1288 925 1288 925 1288 670 c 0,20,21
 1288 386 1288 386 1140 139 c 0,22,23
 1012 -76 1012 -76 796 -226 c 0,24,25
 600 -362 600 -362 403 -394 c 1,26,-1
 320 -210 l 1,27,28
 600 -139 600 -139 785 114 c 0,29,30
 893 263 893 263 935 428 c 0,31,32
 956 512 956 512 956 594 c 0,33,34
 956 1052 956 1052 698 1052 c 0,35,36
 518 1052 518 1052 466 896 c 0,37,38
 449 848 449 848 449 777 c 128,-1,39
 449 706 449 706 464 646 c 128,-1,40
 479 586 479 586 506 547.5 c 128,-1,0
 533 509 533 509 569.5 491 c 128,-1,1
EndSplineSet
EndChar

StartChar: less
Encoding: 60 60 52
Width: 1378
GlyphClass: 2
Flags: W
LayerCount: 2
Fore
SplineSet
197 852 m 1,0,-1
 1149 1331 l 1,1,-1
 1149 1057 l 1,2,-1
 552 773 l 1,3,-1
 1149 511 l 1,4,-1
 1149 229 l 1,5,-1
 197 698 l 1,6,-1
 197 852 l 1,0,-1
EndSplineSet
EndChar

StartChar: equal
Encoding: 61 61 53
Width: 1423
GlyphClass: 2
Flags: W
LayerCount: 2
Fore
SplineSet
251 1139 m 1,0,-1
 1172 1139 l 1,1,-1
 1172 923 l 1,2,-1
 251 923 l 1,3,-1
 251 1139 l 1,0,-1
251 627 m 1,4,-1
 1172 627 l 1,5,-1
 1172 411 l 1,6,-1
 251 411 l 1,7,-1
 251 627 l 1,4,-1
EndSplineSet
EndChar

StartChar: question
Encoding: 63 63 55
Width: 1057
GlyphClass: 2
Flags: W
LayerCount: 2
Fore
SplineSet
337 506 m 1,0,1
 259 623 259 623 259 781 c 0,2,3
 259 923 259 923 383 1033 c 0,4,5
 419 1065 419 1065 456.5 1095 c 128,-1,6
 494 1125 494 1125 530 1154.5 c 128,-1,7
 566 1184 566 1184 594 1218 c 0,8,9
 657 1294 657 1294 657 1390 c 0,10,11
 657 1591 657 1591 332 1591 c 0,12,13
 230 1591 230 1591 184 1580 c 2,14,-1
 126 1565 l 1,15,-1
 126 1797 l 1,16,17
 208 1846 208 1846 385.5 1846 c 128,-1,18
 563 1846 563 1846 677 1808 c 0,19,20
 986 1705 986 1705 986 1406 c 0,21,22
 986 1401 986 1401 986 1363 c 128,-1,23
 986 1325 986 1325 967.5 1269.5 c 128,-1,24
 949 1214 949 1214 919 1168.5 c 128,-1,25
 889 1123 889 1123 850 1085 c 128,-1,26
 811 1047 811 1047 770 1012.5 c 128,-1,27
 729 978 729 978 689 945.5 c 128,-1,28
 649 913 649 913 617 877 c 0,29,30
 514 761 514 761 546 613 c 0,31,32
 551 590 551 590 558.5 564.5 c 128,-1,33
 566 539 566 539 575 506 c 1,34,-1
 337 506 l 1,0,1
306 156 m 0,35,36
 306 195 306 195 321 229 c 128,-1,37
 336 263 336 263 362 290 c 1,38,39
 420 347 420 347 497 347 c 0,40,41
 576 347 576 347 625 296 c 0,42,43
 673 247 673 247 673 172 c 0,44,45
 673 92 673 92 616 36 c 1,46,47
 559 -22 559 -22 482 -22 c 0,48,49
 408 -22 408 -22 358 28 c 0,50,51
 306 80 306 80 306 156 c 0,35,36
EndSplineSet
EndChar

StartChar: at
Encoding: 64 64 56
Width: 2228
GlyphClass: 2
Flags: W
LayerCount: 2
Fore
SplineSet
1565 -342 m 1,0,1
 1357 -468 1357 -468 1053 -468 c 0,2,3
 671 -468 671 -468 431 -249 c 0,4,5
 266 -99 266 -99 203 155 c 0,6,7
 171 283 171 283 171 444.5 c 128,-1,8
 171 606 171 606 210 752.5 c 128,-1,9
 249 899 249 899 319.5 1021.5 c 128,-1,10
 390 1144 390 1144 489 1240.5 c 128,-1,11
 588 1337 588 1337 708 1404 c 0,12,13
 956 1543 956 1543 1254 1543 c 0,14,15
 1613 1543 1613 1543 1829 1355 c 0,16,17
 2056 1158 2056 1158 2056 805 c 0,18,19
 2056 422 2056 422 1867 198 c 0,20,21
 1695 -5 1695 -5 1457 -5 c 0,22,23
 1266 -5 1266 -5 1266 216 c 0,24,25
 1266 234 1266 234 1267 257 c 1,26,27
 1110 -5 1110 -5 904 -5 c 0,28,29
 792 -5 792 -5 708 105 c 0,30,31
 617 224 617 224 617 424 c 0,32,33
 617 669 617 669 762 863 c 0,34,35
 862 996 862 996 1023 1052 c 0,36,37
 1106 1080 1106 1080 1233.5 1080 c 128,-1,38
 1361 1080 1361 1080 1441 1025 c 1,39,-1
 1626 1056 l 1,40,41
 1576 849 1576 849 1531 605 c 0,42,43
 1481 332 1481 332 1481 278 c 0,44,45
 1481 196 1481 196 1529 196 c 0,46,47
 1584 196 1584 196 1640.5 237 c 128,-1,48
 1697 278 1697 278 1743 354 c 0,49,50
 1847 526 1847 526 1847 775 c 0,51,52
 1847 1199 1847 1199 1533 1319 c 0,53,54
 1410 1366 1410 1366 1266.5 1366 c 128,-1,55
 1123 1366 1123 1366 1016 1337.5 c 128,-1,56
 909 1309 909 1309 814 1254.5 c 128,-1,57
 719 1200 719 1200 639.5 1120.5 c 128,-1,58
 560 1041 560 1041 503 939 c 0,59,60
 382 722 382 722 382 448 c 0,61,62
 382 -56 382 -56 746 -224 c 0,63,64
 892 -291 892 -291 1073 -291 c 0,65,66
 1308 -291 1308 -291 1454 -218 c 0,67,68
 1492 -199 1492 -199 1522 -183 c 1,69,-1
 1565 -342 l 1,0,1
1335 829 m 1,70,71
 1296 883 1296 883 1177 883 c 0,72,73
 1044 883 1044 883 950 748 c 0,74,75
 860 619 860 619 860 450 c 0,76,77
 860 222 860 222 974 222 c 0,78,79
 1039 222 1039 222 1122 330 c 1,80,81
 1240 481 1240 481 1307 706 c 0,82,83
 1327 773 1327 773 1335 829 c 1,70,71
EndSplineSet
EndChar

StartChar: A
Encoding: 65 65 57
Width: 1421
GlyphClass: 2
Flags: W
LayerCount: 2
Fore
SplineSet
547 1538 m 1,0,-1
 869 1538 l 1,1,-1
 1436 0 l 1,2,-1
 1089 0 l 1,3,-1
 987 322 l 1,4,-1
 427 322 l 1,5,-1
 327 0 l 1,6,-1
 -15 0 l 1,7,-1
 547 1538 l 1,0,-1
914 551 m 1,8,-1
 749 1073 l 1,9,-1
 706 1230 l 1,10,-1
 662 1073 l 1,11,-1
 499 551 l 1,12,-1
 914 551 l 1,8,-1
EndSplineSet
EndChar

StartChar: B
Encoding: 66 66 58
Width: 1422
GlyphClass: 2
Flags: W
LayerCount: 2
Fore
SplineSet
727 -14 m 0,0,1
 559 -14 559 -14 349 0 c 1,2,-1
 188 0 l 1,3,-1
 188 1523 l 1,4,-1
 342 1522 l 1,5,-1
 700 1537 l 1,6,7
 979 1537 979 1537 1123 1429 c 0,8,9
 1257 1328 1257 1328 1257 1152 c 0,10,11
 1257 956 1257 956 1126 856 c 0,12,13
 1083 823 1083 823 1029 809 c 1,14,15
 1166 793 1166 793 1250 701 c 0,16,17
 1338 606 1338 606 1338 461 c 0,18,19
 1338 237 1338 237 1206 120 c 0,20,21
 1055 -14 1055 -14 727 -14 c 0,0,1
666 1304 m 0,22,23
 532 1304 532 1304 503 1291 c 1,24,-1
 503 893 l 1,25,26
 548 884 548 884 655.5 884 c 128,-1,27
 763 884 763 884 812 897.5 c 128,-1,28
 861 911 861 911 892 940 c 0,29,30
 954 997 954 997 954 1125 c 0,31,32
 954 1304 954 1304 666 1304 c 0,22,23
945.5 617.5 m 128,-1,34
 875 671 875 671 708.5 671 c 128,-1,35
 542 671 542 671 503 664 c 1,36,-1
 503 232 l 1,37,38
 535 206 535 206 665.5 206 c 128,-1,39
 796 206 796 206 850.5 218.5 c 128,-1,40
 905 231 905 231 942 259 c 0,41,42
 1016 316 1016 316 1016 440 c 128,-1,33
 1016 564 1016 564 945.5 617.5 c 128,-1,34
EndSplineSet
EndChar

StartChar: C
Encoding: 67 67 59
Width: 1299
GlyphClass: 2
Flags: W
LayerCount: 2
Fore
SplineSet
100 765 m 0,0,1
 100 946 100 946 158 1091.5 c 128,-1,2
 216 1237 216 1237 317 1336 c 0,3,4
 522 1538 522 1538 846 1538 c 0,5,6
 1026 1538 1026 1538 1186 1496 c 0,7,8
 1224 1486 1224 1486 1260 1479 c 1,9,-1
 1214 1199 l 1,10,11
 1142 1239 1142 1239 1099 1253 c 0,12,13
 998 1286 998 1286 885.5 1286 c 128,-1,14
 773 1286 773 1286 693 1251.5 c 128,-1,15
 613 1217 613 1217 554 1152 c 0,16,17
 428 1012 428 1012 428 777 c 0,18,19
 428 535 428 535 550 385 c 0,20,21
 677 230 677 230 890 230 c 0,22,23
 1036 230 1036 230 1185 294 c 0,24,25
 1223 311 1223 311 1243 326 c 1,26,-1
 1244 64 l 1,27,28
 1098 6 1098 6 1013.5 -5 c 128,-1,29
 929 -16 929 -16 860 -16 c 0,30,31
 512 -16 512 -16 304 198 c 0,32,33
 100 408 100 408 100 765 c 0,0,1
EndSplineSet
EndChar

StartChar: D
Encoding: 68 68 60
Width: 1554
GlyphClass: 2
Flags: W
LayerCount: 2
Fore
SplineSet
188 1522 m 1,0,-1
 339 1522 l 2,1,2
 373 1522 373 1522 457 1528 c 0,3,4
 616 1538 616 1538 708 1538 c 0,5,6
 1269 1538 1269 1538 1409 1113 c 0,7,8
 1454 976 1454 976 1454 791 c 128,-1,9
 1454 606 1454 606 1400 454 c 0,10,11
 1290 147 1290 147 1002 36 c 0,12,13
 865 -16 865 -16 696 -16 c 0,14,15
 589 -16 589 -16 500 -8 c 128,-1,16
 411 0 411 0 342 0 c 2,17,-1
 188 0 l 1,18,-1
 188 1522 l 1,0,-1
678 1298 m 1,19,-1
 509 1284 l 1,20,-1
 509 246 l 1,21,22
 574 228 574 228 689 228.5 c 128,-1,23
 804 229 804 229 878.5 260 c 128,-1,24
 953 291 953 291 1006 356 c 0,25,26
 1118 493 1118 493 1118 767 c 0,27,28
 1118 1058 1118 1058 1010 1181 c 0,29,30
 907 1298 907 1298 678 1298 c 1,19,-1
EndSplineSet
EndChar

StartChar: E
Encoding: 69 69 61
Width: 1254
GlyphClass: 2
Flags: W
LayerCount: 2
Fore
SplineSet
188 1522 m 1,0,-1
 1116 1522 l 1,1,-1
 1116 1278 l 1,2,-1
 506 1278 l 1,3,-1
 506 900 l 1,4,-1
 974 900 l 1,5,-1
 974 659 l 1,6,-1
 506 659 l 1,7,-1
 506 251 l 1,8,-1
 1181 251 l 1,9,-1
 1181 0 l 1,10,-1
 188 0 l 1,11,-1
 188 1522 l 1,0,-1
EndSplineSet
EndChar

StartChar: F
Encoding: 70 70 62
Width: 1145
GlyphClass: 2
Flags: W
LayerCount: 2
Fore
SplineSet
188 1522 m 1,0,-1
 1111 1522 l 1,1,-1
 1111 1278 l 1,2,-1
 510 1278 l 1,3,-1
 510 879 l 1,4,-1
 952 879 l 1,5,-1
 952 634 l 1,6,-1
 510 634 l 1,7,-1
 510 0 l 1,8,-1
 188 0 l 1,9,-1
 188 1522 l 1,0,-1
EndSplineSet
EndChar

StartChar: G
Encoding: 71 71 63
Width: 1494
GlyphClass: 2
Flags: W
LayerCount: 2
Fore
SplineSet
643.5 271 m 128,-1,1
 716 228 716 228 842.5 228 c 128,-1,2
 969 228 969 228 1070 266 c 1,3,-1
 1070 571 l 1,4,-1
 837 583 l 1,5,-1
 837 820 l 1,6,-1
 1372 820 l 1,7,-1
 1372 90 l 1,8,9
 1338 88 1338 88 1294 71.5 c 128,-1,10
 1250 55 1250 55 1187 36 c 0,11,12
 1021 -16 1021 -16 837 -16 c 128,-1,13
 653 -16 653 -16 518 38.5 c 128,-1,14
 383 93 383 93 290 194 c 0,15,16
 100 399 100 399 100 753 c 0,17,18
 100 1144 100 1144 320 1350 c 0,19,20
 520 1538 520 1538 859 1538 c 0,21,22
 1007 1538 1007 1538 1082 1523.5 c 128,-1,23
 1157 1509 1157 1509 1198 1498.5 c 128,-1,24
 1239 1488 1239 1488 1289 1478 c 1,25,-1
 1279 1205 l 1,26,27
 1149 1266 1149 1266 1006 1280 c 0,28,29
 943 1286 943 1286 852 1286 c 128,-1,30
 761 1286 761 1286 681.5 1251.5 c 128,-1,31
 602 1217 602 1217 546 1152 c 0,32,33
 431 1017 431 1017 431 780 c 0,34,35
 431 537 431 537 524 389 c 0,36,0
 571 314 571 314 643.5 271 c 128,-1,1
EndSplineSet
EndChar

StartChar: H
Encoding: 72 72 64
Width: 1601
GlyphClass: 2
Flags: W
LayerCount: 2
Fore
SplineSet
188 1522 m 1,0,-1
 506 1522 l 1,1,-1
 506 890 l 1,2,-1
 1099 890 l 1,3,-1
 1099 1522 l 1,4,-1
 1413 1522 l 1,5,-1
 1413 0 l 1,6,-1
 1099 0 l 1,7,-1
 1099 651 l 1,8,-1
 506 651 l 1,9,-1
 506 0 l 1,10,-1
 188 0 l 1,11,-1
 188 1522 l 1,0,-1
EndSplineSet
EndChar

StartChar: I
Encoding: 73 73 65
Width: 722
GlyphClass: 2
Flags: W
LayerCount: 2
Fore
SplineSet
201 1522 m 1,0,-1
 521 1522 l 1,1,-1
 521 0 l 1,2,-1
 201 0 l 1,3,-1
 201 1522 l 1,0,-1
EndSplineSet
EndChar

StartChar: J
Encoding: 74 74 66
Width: 798
GlyphClass: 2
Flags: W
LayerCount: 2
Fore
SplineSet
599 613 m 1,0,-1
 600 398 l 2,1,2
 600 202 600 202 583.5 111.5 c 128,-1,3
 567 21 567 21 535.5 -37.5 c 128,-1,4
 504 -96 504 -96 461.5 -142.5 c 128,-1,5
 419 -189 419 -189 368 -224 c 128,-1,6
 317 -259 317 -259 264 -282 c 1,7,8
 159 -330 159 -330 67 -332 c 1,9,-1
 -10 -164 l 1,10,11
 201 -83 201 -83 247 117 c 1,12,13
 279 248 279 248 279 608 c 2,14,-1
 279 1522 l 1,15,-1
 599 1522 l 1,16,-1
 599 613 l 1,0,-1
EndSplineSet
EndChar

StartChar: K
Encoding: 75 75 67
Width: 1444
GlyphClass: 2
Flags: W
LayerCount: 2
Fore
SplineSet
188 1522 m 1,0,-1
 506 1522 l 1,1,-1
 506 848 l 1,2,-1
 1041 1522 l 1,3,-1
 1391 1522 l 1,4,-1
 877 878 l 1,5,6
 1023 662 1023 662 1346 110 c 1,7,-1
 1411 0 l 1,8,-1
 1057 0 l 1,9,10
 1047 14 1047 14 1027 52 c 128,-1,11
 1007 90 1007 90 981 136.5 c 128,-1,12
 955 183 955 183 912.5 254.5 c 128,-1,13
 870 326 870 326 828 395 c 0,14,15
 754 514 754 514 663 646 c 1,16,-1
 506 469 l 1,17,-1
 506 0 l 1,18,-1
 188 0 l 1,19,-1
 188 1522 l 1,0,-1
EndSplineSet
EndChar

StartChar: L
Encoding: 76 76 68
Width: 1120
GlyphClass: 2
Flags: W
LayerCount: 2
Fore
SplineSet
188 1522 m 1,0,-1
 506 1522 l 1,1,-1
 506 242 l 1,2,-1
 1054 242 l 1,3,-1
 1054 0 l 1,4,-1
 188 0 l 1,5,-1
 188 1522 l 1,0,-1
EndSplineSet
EndChar

StartChar: M
Encoding: 77 77 69
Width: 1886
GlyphClass: 2
Flags: W
LayerCount: 2
Fore
SplineSet
232 1522 m 1,0,-1
 679 1522 l 1,1,-1
 882 722 l 1,2,-1
 959 386 l 1,3,-1
 1017 722 l 1,4,-1
 1200 1522 l 1,5,-1
 1634 1522 l 1,6,-1
 1816 0 l 1,7,-1
 1504 0 l 1,8,-1
 1429 816 l 1,9,-1
 1402 1282 l 1,10,-1
 1290 816 l 1,11,-1
 1072 -15 l 1,12,-1
 820 -15 l 1,13,-1
 579 816 l 1,14,-1
 466 1282 l 1,15,-1
 365 0 l 1,16,-1
 70 -1 l 1,17,-1
 232 1522 l 1,0,-1
EndSplineSet
EndChar

StartChar: N
Encoding: 78 78 70
Width: 1620
GlyphClass: 2
Flags: W
LayerCount: 2
Fore
SplineSet
188 1522 m 1,0,-1
 483 1522 l 1,1,-1
 1050 627 l 1,2,-1
 1165 399 l 1,3,-1
 1136 765 l 1,4,-1
 1136 1522 l 1,5,-1
 1432 1522 l 1,6,-1
 1432 0 l 1,7,-1
 1113 0 l 1,8,-1
 570 861 l 1,9,-1
 449 1104 l 1,10,-1
 484 741 l 1,11,-1
 484 0 l 1,12,-1
 188 0 l 1,13,-1
 188 1522 l 1,0,-1
EndSplineSet
EndChar

StartChar: O
Encoding: 79 79 71
Width: 1595
GlyphClass: 2
Flags: W
LayerCount: 2
Fore
SplineSet
497 37 m 0,0,1
 235 150 235 150 142 443 c 0,2,3
 98 584 98 584 98 770 c 128,-1,4
 98 956 98 956 155.5 1104.5 c 128,-1,5
 213 1253 213 1253 309 1346 c 0,6,7
 506 1538 506 1538 842 1538 c 0,8,9
 1142 1538 1142 1538 1320 1330 c 0,10,11
 1497 1124 1497 1124 1497 784 c 0,12,13
 1497 389 1497 389 1292 179 c 0,14,15
 1102 -16 1102 -16 774 -16 c 0,16,17
 620 -16 620 -16 497 37 c 0,0,1
635 262.5 m 128,-1,19
 705 221 705 221 794 221 c 128,-1,20
 883 221 883 221 951.5 253.5 c 128,-1,21
 1020 286 1020 286 1068 354 c 0,22,23
 1168 496 1168 496 1168 773 c 0,24,25
 1168 1007 1168 1007 1080 1147 c 0,26,27
 986 1296 986 1296 814 1296 c 0,28,29
 544 1296 544 1296 458 1007 c 0,30,31
 427 905 427 905 427 775 c 128,-1,32
 427 645 427 645 450 547.5 c 128,-1,33
 473 450 473 450 519 377 c 128,-1,18
 565 304 565 304 635 262.5 c 128,-1,19
EndSplineSet
EndChar

StartChar: P
Encoding: 80 80 72
Width: 1359
GlyphClass: 2
Flags: W
LayerCount: 2
Fore
SplineSet
941.5 498.5 m 128,-1,1
 828 461 828 461 693 461 c 128,-1,2
 558 461 558 461 506 463 c 1,3,-1
 506 0 l 1,4,-1
 188 0 l 1,5,-1
 188 1522 l 1,6,-1
 284 1522 l 1,7,-1
 733 1538 l 1,8,9
 1142 1538 1142 1538 1251 1254 c 0,10,11
 1289 1154 1289 1154 1289 1018 c 128,-1,12
 1289 882 1289 882 1249 779.5 c 128,-1,13
 1209 677 1209 677 1132 606.5 c 128,-1,0
 1055 536 1055 536 941.5 498.5 c 128,-1,1
898.5 1235 m 128,-1,15
 824 1307 824 1307 697.5 1307 c 128,-1,16
 571 1307 571 1307 506 1293 c 1,17,-1
 506 710 l 1,18,19
 565 702 565 702 647.5 702 c 128,-1,20
 730 702 730 702 784.5 716 c 128,-1,21
 839 730 839 730 881 766 c 0,22,23
 973 843 973 843 973 1003 c 128,-1,14
 973 1163 973 1163 898.5 1235 c 128,-1,15
EndSplineSet
EndChar

StartChar: Q
Encoding: 81 81 73
Width: 1595
GlyphClass: 2
Flags: W
LayerCount: 2
Fore
SplineSet
714 -14 m 1,0,1
 423 6 423 6 256 223 c 0,2,3
 98 427 98 427 98 746 c 0,4,5
 98 1141 98 1141 309 1346 c 0,6,7
 506 1538 506 1538 842 1538 c 0,8,9
 1142 1538 1142 1538 1320 1330 c 0,10,11
 1497 1124 1497 1124 1497 784 c 0,12,13
 1497 454 1497 454 1351 250 c 0,14,15
 1220 66 1220 66 987 8 c 1,16,17
 1045 -70 1045 -70 1230 -78 c 0,18,19
 1286 -81 1286 -81 1327 -81 c 128,-1,20
 1368 -81 1368 -81 1395.5 -79 c 128,-1,21
 1423 -77 1423 -77 1452 -74 c 0,22,23
 1519 -67 1519 -67 1550 -56 c 1,24,-1
 1550 -275 l 1,25,26
 1510 -304 1510 -304 1428 -315 c 128,-1,27
 1346 -326 1346 -326 1272.5 -326 c 128,-1,28
 1199 -326 1199 -326 1103 -311 c 128,-1,29
 1007 -296 1007 -296 930 -260 c 0,30,31
 769 -185 769 -185 714 -14 c 1,0,1
635 262.5 m 128,-1,33
 705 221 705 221 794 221 c 128,-1,34
 883 221 883 221 951.5 253.5 c 128,-1,35
 1020 286 1020 286 1068 354 c 0,36,37
 1168 496 1168 496 1168 773 c 0,38,39
 1168 1007 1168 1007 1080 1147 c 0,40,41
 986 1296 986 1296 814 1296 c 0,42,43
 544 1296 544 1296 458 1007 c 0,44,45
 427 905 427 905 427 775 c 128,-1,46
 427 645 427 645 450 547.5 c 128,-1,47
 473 450 473 450 519 377 c 128,-1,32
 565 304 565 304 635 262.5 c 128,-1,33
EndSplineSet
EndChar

StartChar: R
Encoding: 82 82 74
Width: 1435
GlyphClass: 2
Flags: W
LayerCount: 2
Fore
SplineSet
707 579 m 1,0,1
 631 575 631 575 506 575 c 1,2,-1
 506 0 l 1,3,-1
 188 0 l 1,4,-1
 188 1522 l 1,5,-1
 335 1522 l 2,6,7
 370 1522 370 1522 406.5 1524.5 c 128,-1,8
 443 1527 443 1527 490 1530 c 0,9,10
 613 1538 613 1538 729.5 1538 c 128,-1,11
 846 1538 846 1538 945 1516.5 c 128,-1,12
 1044 1495 1044 1495 1120 1442 c 0,13,14
 1287 1327 1287 1327 1287 1078 c 0,15,16
 1287 736 1287 736 1034 635 c 1,17,18
 1108 572 1108 572 1185 398 c 0,19,20
 1217 326 1217 326 1248.5 250.5 c 128,-1,21
 1280 175 1280 175 1318 110 c 2,22,-1
 1381 0 l 1,23,-1
 1027 0 l 1,24,25
 1010 24 1010 24 996 55 c 128,-1,26
 982 86 982 86 965.5 120 c 128,-1,27
 949 154 949 154 931.5 206 c 128,-1,28
 914 258 914 258 897 310 c 128,-1,29
 880 362 880 362 862 410.5 c 128,-1,30
 844 459 844 459 822 496 c 0,31,32
 774 577 774 577 707 579 c 1,0,1
686 1301 m 0,33,34
 582 1301 582 1301 506 1283 c 1,35,-1
 506 804 l 1,36,37
 554 798 554 798 624 798 c 2,38,-1
 715 798 l 2,39,40
 849 798 849 798 918 880 c 0,41,42
 978 951 978 951 978 1069 c 0,43,44
 978 1175 978 1175 928 1230 c 0,45,46
 864 1301 864 1301 686 1301 c 0,33,34
EndSplineSet
EndChar

StartChar: S
Encoding: 83 83 75
Width: 1207
GlyphClass: 2
Flags: W
LayerCount: 2
Fore
SplineSet
679 1300 m 0,0,1
 451 1300 451 1300 451 1144 c 0,2,3
 451 1067 451 1067 513 1013 c 0,4,5
 558 974 558 974 681 908.5 c 128,-1,6
 804 843 804 843 880.5 796.5 c 128,-1,7
 957 750 957 750 1013 694 c 0,8,9
 1132 577 1132 577 1132 408 c 0,10,11
 1132 206 1132 206 987 93 c 0,12,13
 848 -16 848 -16 609 -16 c 0,14,15
 397 -16 397 -16 220 45 c 0,16,17
 173 61 173 61 152 74 c 1,18,-1
 197 329 l 1,19,20
 310 266 310 266 471 242 c 0,21,22
 528 233 528 233 590 233 c 128,-1,23
 652 233 652 233 695 243 c 128,-1,24
 738 253 738 253 764 272 c 0,25,26
 812 308 812 308 812 388 c 0,27,28
 812 466 812 466 752 518 c 0,29,30
 700 564 700 564 586 620.5 c 128,-1,31
 472 677 472 677 426.5 703.5 c 128,-1,32
 381 730 381 730 339 762 c 128,-1,33
 297 794 297 794 260.5 831.5 c 128,-1,34
 224 869 224 869 197 914 c 0,35,36
 139 1012 139 1012 139 1126 c 128,-1,37
 139 1240 139 1240 181.5 1318.5 c 128,-1,38
 224 1397 224 1397 297 1446 c 0,39,40
 436 1538 436 1538 670 1538 c 0,41,42
 864 1538 864 1538 1006 1478 c 0,43,44
 1043 1463 1043 1463 1063 1450 c 1,45,-1
 1011 1203 l 1,46,47
 860 1300 860 1300 679 1300 c 0,0,1
EndSplineSet
EndChar

StartChar: T
Encoding: 84 84 76
Width: 1250
GlyphClass: 2
Flags: W
LayerCount: 2
Fore
SplineSet
466 1278 m 1,0,-1
 30 1278 l 1,1,-1
 30 1522 l 1,2,-1
 1220 1522 l 1,3,-1
 1220 1278 l 1,4,-1
 786 1278 l 1,5,-1
 786 0 l 1,6,-1
 466 0 l 1,7,-1
 466 1278 l 1,0,-1
EndSplineSet
EndChar

StartChar: U
Encoding: 85 85 77
Width: 1525
GlyphClass: 2
Flags: W
LayerCount: 2
Fore
SplineSet
152 1522 m 1,0,-1
 467 1522 l 1,1,-1
 465 670 l 2,2,3
 465 418 465 418 542 321 c 0,4,5
 609 238 609 238 767 238 c 0,6,7
 918 238 918 238 986 327 c 0,8,9
 1063 427 1063 427 1063 670 c 2,10,-1
 1063 1522 l 1,11,-1
 1376 1522 l 1,12,-1
 1376 640 l 2,13,14
 1376 320 1376 320 1220.5 152 c 128,-1,15
 1065 -16 1065 -16 758 -16 c 0,16,17
 278 -16 278 -16 180 378 c 0,18,19
 150 502 150 502 150 653 c 2,20,-1
 152 1522 l 1,0,-1
EndSplineSet
EndChar

StartChar: V
Encoding: 86 86 78
Width: 1386
GlyphClass: 2
Flags: W
LayerCount: 2
Fore
SplineSet
-5 1522 m 1,0,-1
 336 1522 l 1,1,-1
 620 691 l 1,2,-1
 701 401 l 1,3,-1
 783 691 l 1,4,-1
 1052 1522 l 1,5,-1
 1391 1522 l 1,6,-1
 831 -6 l 1,7,-1
 561 -6 l 1,8,-1
 -5 1522 l 1,0,-1
EndSplineSet
EndChar

StartChar: W
Encoding: 87 87 79
Width: 1973
GlyphClass: 2
Flags: W
LayerCount: 2
Fore
SplineSet
5 1522 m 1,0,-1
 324 1522 l 1,1,-1
 512 628 l 1,2,-1
 565 258 l 1,3,-1
 626 628 l 1,4,-1
 846 1522 l 1,5,-1
 1130 1522 l 1,6,-1
 1364 628 l 1,7,-1
 1426 274 l 1,8,-1
 1477 628 l 1,9,-1
 1650 1522 l 1,10,-1
 1968 1522 l 1,11,-1
 1570 -16 l 1,12,-1
 1244 -16 l 1,13,-1
 1030 834 l 1,14,-1
 981 1162 l 1,15,-1
 936 833 l 1,16,-1
 717 -16 l 1,17,-1
 413 -16 l 1,18,-1
 5 1522 l 1,0,-1
EndSplineSet
EndChar

StartChar: X
Encoding: 88 88 80
Width: 1376
GlyphClass: 2
Flags: W
LayerCount: 2
Fore
SplineSet
491 785 m 1,0,-1
 43 1522 l 1,1,-1
 391 1523 l 1,2,-1
 703 983 l 1,3,-1
 998 1522 l 1,4,-1
 1334 1522 l 1,5,-1
 880 752 l 1,6,-1
 1344 0 l 1,7,-1
 991 0 l 1,8,-1
 673 556 l 1,9,-1
 364 0 l 1,10,-1
 32 0 l 1,11,-1
 491 785 l 1,0,-1
EndSplineSet
EndChar

StartChar: Y
Encoding: 89 89 81
Width: 1241
GlyphClass: 2
Flags: W
LayerCount: 2
Fore
SplineSet
461 535 m 1,0,-1
 -50 1522 l 1,1,-1
 300 1522 l 1,2,-1
 580 932 l 1,3,-1
 624 818 l 1,4,-1
 662 932 l 1,5,-1
 950 1522 l 1,6,-1
 1291 1522 l 1,7,-1
 780 533 l 1,8,-1
 780 0 l 1,9,-1
 461 0 l 1,10,-1
 461 535 l 1,0,-1
EndSplineSet
EndChar

StartChar: Z
Encoding: 90 90 82
Width: 1306
GlyphClass: 2
Flags: W
LayerCount: 2
Fore
SplineSet
54 84 m 1,0,-1
 740 1210 l 1,1,-1
 798 1291 l 1,2,-1
 130 1291 l 1,3,-1
 130 1522 l 1,4,-1
 1197 1522 l 1,5,-1
 1235 1441 l 1,6,-1
 563 335 l 1,7,-1
 490 242 l 1,8,-1
 1196 242 l 1,9,-1
 1196 0 l 1,10,-1
 94 0 l 1,11,-1
 54 84 l 1,0,-1
EndSplineSet
EndChar

StartChar: bracketleft
Encoding: 91 91 83
Width: 799
GlyphClass: 2
Flags: W
LayerCount: 2
Fore
SplineSet
696 -167 m 1,0,1
 466 -191 466 -191 371.5 -191 c 128,-1,2
 277 -191 277 -191 240 -179.5 c 128,-1,3
 203 -168 203 -168 182 -140 c 0,4,5
 145 -89 145 -89 145 60 c 2,6,-1
 145 1486 l 2,7,8
 145 1636 145 1636 182 1686 c 0,9,10
 221 1737 221 1737 335 1737 c 0,11,12
 472 1737 472 1737 560 1727 c 128,-1,13
 648 1717 648 1717 696 1713 c 1,14,-1
 696 1550 l 1,15,-1
 428 1550 l 1,16,-1
 428 -20 l 1,17,-1
 696 -22 l 1,18,-1
 696 -167 l 1,0,1
EndSplineSet
EndChar

StartChar: asciicircum
Encoding: 94 94 86
Width: 1373
GlyphClass: 2
Flags: W
LayerCount: 2
Fore
SplineSet
573 1531 m 1,0,-1
 800 1531 l 1,1,-1
 1220 490 l 1,2,-1
 939 490 l 1,3,-1
 686 1163 l 1,4,-1
 434 490 l 1,5,-1
 153 490 l 1,6,-1
 573 1531 l 1,0,-1
EndSplineSet
EndChar

StartChar: underscore
Encoding: 95 95 87
Width: 1702
GlyphClass: 2
Flags: W
LayerCount: 2
Fore
SplineSet
1737 -241 m 1,0,-1
 1737 -409 l 1,1,-1
 -35 -409 l 1,2,-1
 -35 -241 l 1,3,-1
 1737 -241 l 1,0,-1
EndSplineSet
EndChar

StartChar: grave
Encoding: 96 96 88
Width: 666
GlyphClass: 2
Flags: W
LayerCount: 2
Fore
SplineSet
462 1252 m 1,0,1
 391 1282 391 1282 252 1403 c 0,2,3
 102 1534 102 1534 55 1634 c 1,4,-1
 270 1808 l 1,5,6
 361 1653 361 1653 520 1480 c 0,7,8
 567 1429 567 1429 611 1389 c 1,9,-1
 462 1252 l 1,0,1
EndSplineSet
EndChar

StartChar: a
Encoding: 97 97 89
Width: 1223
GlyphClass: 2
Flags: W
LayerCount: 2
Fore
SplineSet
771 96 m 1,0,1
 648 -16 648 -16 474 -16 c 0,2,3
 307 -16 307 -16 204 88 c 0,4,5
 102 192 102 192 102 355 c 0,6,7
 102 550 102 550 301 640 c 0,8,9
 449 706 449 706 758 706 c 1,10,-1
 758 778 l 2,11,12
 758 871 758 871 718 897 c 0,13,14
 676 924 676 924 532 924 c 0,15,16
 449 924 449 924 351.5 891.5 c 128,-1,17
 254 859 254 859 218 843 c 1,18,-1
 149 1043 l 1,19,20
 267 1113 267 1113 470 1150 c 0,21,22
 539 1162 539 1162 632.5 1162 c 128,-1,23
 726 1162 726 1162 813 1143.5 c 128,-1,24
 900 1125 900 1125 957 1078 c 0,25,26
 1070 983 1070 983 1070 745 c 2,27,-1
 1070 -16 l 1,28,-1
 888 -16 l 2,29,30
 824 -16 824 -16 805 -4 c 0,31,32
 771 19 771 19 771 88 c 2,33,-1
 771 96 l 1,0,1
424 352 m 0,34,35
 424 315 424 315 436 284.5 c 128,-1,36
 448 254 448 254 469 234 c 0,37,38
 510 195 510 195 581 195 c 0,39,40
 661 195 661 195 732 237 c 0,41,42
 750 248 750 248 758 258 c 1,43,-1
 758 530 l 1,44,45
 593 530 593 530 488 472 c 1,46,47
 424 438 424 438 424 352 c 0,34,35
EndSplineSet
Substitution2: "Single Substitution lookup 16 subtable" ordfeminine
Substitution2: "'aalt' Access All Alternates in Latin lookup 0 subtable" ordfeminine
EndChar

StartChar: b
Encoding: 98 98 90
Width: 1340
GlyphClass: 2
Flags: W
LayerCount: 2
Fore
SplineSet
472 1036 m 1,0,1
 598 1156 598 1156 791 1156 c 0,2,3
 985 1156 985 1156 1108 1022 c 1,4,5
 1245 875 1245 875 1245 612 c 0,6,7
 1245 329 1245 329 1080 152 c 1,8,9
 915 -23 915 -23 649 -23 c 0,10,11
 428 -23 428 -23 228 40 c 0,12,13
 181 55 181 55 168 64 c 1,14,-1
 168 1661 l 1,15,-1
 480 1661 l 1,16,-1
 480 1224 l 1,17,-1
 472 1036 l 1,0,1
695 923 m 0,18,19
 566 923 566 923 480 852 c 1,20,-1
 480 232 l 1,21,22
 517 193 517 193 656 193 c 0,23,24
 771 193 771 193 842 296 c 0,25,26
 918 405 918 405 918 598 c 0,27,28
 918 857 918 857 788 907 c 0,29,30
 746 923 746 923 695 923 c 0,18,19
EndSplineSet
EndChar

StartChar: c
Encoding: 99 99 91
Width: 1048
GlyphClass: 2
Flags: W
LayerCount: 2
Fore
SplineSet
932 282 m 1,0,-1
 977 97 l 1,1,2
 898 18 898 18 732 -8 c 0,3,4
 681 -16 681 -16 627 -16 c 0,5,6
 370 -16 370 -16 228 148 c 1,7,8
 95 300 95 300 95 556 c 0,9,10
 95 822 95 822 234 982 c 0,11,12
 386 1156 386 1156 664 1156 c 0,13,14
 818 1156 818 1156 918 1118 c 0,15,16
 946 1108 946 1108 960 1098 c 1,17,-1
 921 857 l 1,18,19
 839 901 839 901 696 901 c 0,20,21
 510 901 510 901 434 740 c 1,22,23
 405 676 405 676 405 585 c 128,-1,24
 405 494 405 494 424 430.5 c 128,-1,25
 443 367 443 367 481 322 c 0,26,27
 556 235 556 235 699.5 235 c 128,-1,28
 843 235 843 235 932 282 c 1,0,-1
EndSplineSet
EndChar

StartChar: d
Encoding: 100 100 92
Width: 1339
GlyphClass: 2
Flags: W
LayerCount: 2
Fore
SplineSet
884 119 m 1,0,1
 749 -16 749 -16 549 -16 c 0,2,3
 355 -16 355 -16 232 120 c 1,4,5
 95 269 95 269 95 533 c 0,6,7
 95 815 95 815 255 986 c 0,8,9
 413 1156 413 1156 675 1156 c 0,10,11
 778 1156 778 1156 862 1124 c 1,12,-1
 859 1224 l 1,13,-1
 859 1662 l 1,14,-1
 1171 1662 l 1,15,-1
 1171 -16 l 1,16,-1
 959 -16 l 2,17,18
 925 -16 925 -16 904.5 -6 c 128,-1,19
 884 4 884 4 884 42 c 2,20,-1
 884 119 l 1,0,1
859 901 m 1,21,22
 812 934 812 934 720 934 c 128,-1,23
 628 934 628 934 580.5 911 c 128,-1,24
 533 888 533 888 498 842 c 0,25,26
 422 740 422 740 422 548 c 0,27,28
 422 293 422 293 552 243 c 0,29,30
 594 227 594 227 645 227 c 0,31,32
 769 227 769 227 859 287 c 1,33,-1
 859 901 l 1,21,22
EndSplineSet
EndChar

StartChar: e
Encoding: 101 101 93
Width: 1190
GlyphClass: 2
Flags: W
LayerCount: 2
Fore
SplineSet
1054 919 m 0,0,1
 1091 833 1091 833 1092 699 c 128,-1,2
 1093 565 1093 565 1082 495 c 1,3,-1
 407 495 l 1,4,5
 426 216 426 216 712 216 c 0,6,7
 824 216 824 216 903 239.5 c 128,-1,8
 982 263 982 263 1005 275 c 1,9,-1
 1056 98 l 1,10,11
 962 21 962 21 763 -7 c 0,12,13
 699 -16 699 -16 600.5 -16 c 128,-1,14
 502 -16 502 -16 402 24 c 128,-1,15
 302 64 302 64 234 140 c 0,16,17
 95 294 95 294 95 574 c 0,18,19
 95 830 95 830 236 989 c 0,20,21
 385 1156 385 1156 647 1156 c 0,22,23
 950 1156 950 1156 1054 919 c 0,0,1
804 712 m 0,24,25
 804 934 804 934 630 934 c 0,26,27
 537 934 537 934 486 877 c 0,28,29
 428 811 428 811 413 668 c 1,30,-1
 803 668 l 1,31,32
 804 691 804 691 804 712 c 0,24,25
EndSplineSet
EndChar

StartChar: f
Encoding: 102 102 94
Width: 858
GlyphClass: 2
Flags: W
LayerCount: 2
Fore
SplineSet
865 1439 m 1,0,1
 815 1463 815 1463 726 1463 c 0,2,3
 549 1463 549 1463 549 1256 c 2,4,-1
 549 1140 l 1,5,-1
 815 1140 l 1,6,-1
 815 924 l 1,7,-1
 549 924 l 1,8,-1
 549 0 l 1,9,-1
 237 0 l 1,10,-1
 237 924 l 1,11,-1
 82 924 l 1,12,-1
 82 1106 l 1,13,-1
 237 1140 l 1,14,-1
 237 1249 l 2,15,16
 237 1545 237 1545 465 1644 c 0,17,18
 553 1683 553 1683 676 1683 c 128,-1,19
 799 1683 799 1683 865 1661 c 1,20,-1
 865 1439 l 1,0,1
EndSplineSet
EndChar

StartChar: g
Encoding: 103 103 95
Width: 1305
GlyphClass: 2
Flags: W
LayerCount: 2
Fore
SplineSet
512 415 m 1,0,1
 470 381 470 381 470 323 c 0,2,3
 470 255 470 255 544 246 c 0,4,5
 569 243 569 243 605 243 c 2,6,-1
 795 243 l 2,7,8
 1048 243 1048 243 1154 132 c 0,9,10
 1234 47 1234 47 1234 -102 c 0,11,12
 1234 -295 1234 -295 1050 -412 c 1,13,14
 883 -516 883 -516 649 -516 c 0,15,16
 641 -516 641 -516 572.5 -515.5 c 128,-1,17
 504 -515 504 -515 403 -493 c 128,-1,18
 302 -471 302 -471 233 -429 c 0,19,20
 91 -343 91 -343 91 -183 c 0,21,22
 91 -64 91 -64 197 14 c 0,23,24
 229 37 229 37 267 54 c 1,25,26
 174 100 174 100 174 228 c 0,27,28
 174 382 174 382 356 458 c 1,29,30
 247 505 247 505 184.5 587 c 128,-1,31
 122 669 122 669 122 775 c 0,32,33
 122 1156 122 1156 636 1156 c 0,34,35
 855 1156 855 1156 977 1073 c 1,36,37
 1050 1140 1050 1140 1161 1140 c 2,38,-1
 1288 1140 l 1,39,-1
 1288 914 l 1,40,-1
 1099 914 l 1,41,42
 1119 854 1119 854 1119 773 c 128,-1,43
 1119 692 1119 692 1085 621.5 c 128,-1,44
 1051 551 1051 551 986 504 c 0,45,46
 853 409 853 409 612 409 c 0,47,48
 560 409 560 409 512 415 c 1,0,1
824 775 m 0,49,50
 824 963 824 963 623.5 963 c 128,-1,51
 423 963 423 963 423 779 c 0,52,53
 423 696 423 696 472 648 c 128,-1,54
 521 600 521 600 617 600 c 0,55,56
 716 600 716 600 754 626 c 0,57,58
 824 675 824 675 824 775 c 0,49,50
443 2 m 1,59,60
 401 -38 401 -38 401 -97 c 128,-1,61
 401 -156 401 -156 413.5 -195 c 128,-1,62
 426 -234 426 -234 454 -264 c 0,63,64
 518 -332 518 -332 645 -332 c 0,65,66
 926 -332 926 -332 926 -164 c 0,67,68
 926 -76 926 -76 882 -42 c 0,69,70
 828 0 828 0 668 0 c 2,71,-1
 505 0 l 2,72,73
 473 0 473 0 443 2 c 1,59,60
EndSplineSet
EndChar

StartChar: h
Encoding: 104 104 96
Width: 1351
GlyphClass: 2
Flags: W
LayerCount: 2
Fore
SplineSet
168 1662 m 1,0,-1
 480 1662 l 1,1,-1
 480 1224 l 1,2,-1
 463 1021 l 1,3,4
 569 1109 569 1109 715 1145 c 0,5,6
 774 1159 774 1159 843.5 1159 c 128,-1,7
 913 1159 913 1159 980 1137.5 c 128,-1,8
 1047 1116 1047 1116 1094 1062 c 0,9,10
 1189 955 1189 955 1189 710 c 2,11,-1
 1189 0 l 1,12,-1
 877 0 l 1,13,-1
 877 648 l 2,14,15
 877 789 877 789 840 842 c 256,16,17
 803 895 803 895 712 895 c 0,18,19
 626 895 626 895 536 848 c 0,20,21
 506 832 506 832 480 809 c 1,22,-1
 480 0 l 1,23,-1
 168 0 l 1,24,-1
 168 1662 l 1,0,-1
EndSplineSet
EndChar

StartChar: k
Encoding: 107 107 99
Width: 1238
GlyphClass: 2
Flags: W
LayerCount: 2
Fore
SplineSet
168 1661 m 1,0,-1
 480 1661 l 1,1,-1
 480 977 l 1,2,-1
 469 690 l 1,3,-1
 855 1140 l 1,4,-1
 1208 1140 l 1,5,-1
 801 696 l 1,6,-1
 1248 0 l 1,7,-1
 893 0 l 1,8,-1
 597 475 l 1,9,-1
 475 342 l 1,10,-1
 480 213 l 1,11,-1
 480 0 l 1,12,-1
 168 0 l 1,13,-1
 168 1661 l 1,0,-1
EndSplineSet
EndChar

StartChar: l
Encoding: 108 108 100
Width: 672
GlyphClass: 2
Flags: W
LayerCount: 2
Fore
SplineSet
180 1662 m 1,0,-1
 492 1662 l 1,1,-1
 492 0 l 1,2,-1
 180 0 l 1,3,-1
 180 1662 l 1,0,-1
EndSplineSet
EndChar

StartChar: m
Encoding: 109 109 101
Width: 2047
GlyphClass: 2
Flags: W
LayerCount: 2
Fore
SplineSet
1183 811 m 1,0,1
 1188 751 1188 751 1188 707 c 2,2,-1
 1188 0 l 1,3,-1
 876 0 l 1,4,-1
 876 648 l 2,5,6
 876 790 876 790 842 843 c 0,7,8
 809 896 809 896 719 896 c 0,9,10
 634 896 634 896 542 848 c 0,11,12
 512 832 512 832 486 809 c 1,13,-1
 486 0 l 1,14,-1
 174 0 l 1,15,-1
 174 1140 l 1,16,-1
 457 1140 l 1,17,-1
 463 1018 l 1,18,19
 577 1105 577 1105 728 1144 c 0,20,21
 790 1160 790 1160 852 1160 c 0,22,23
 1050 1160 1050 1160 1128 1022 c 1,24,25
 1241 1109 1241 1109 1394 1146 c 0,26,27
 1452 1160 1452 1160 1528.5 1160 c 128,-1,28
 1605 1160 1605 1160 1673 1138 c 128,-1,29
 1741 1116 1741 1116 1788 1064 c 0,30,31
 1885 958 1885 958 1885 717 c 2,32,-1
 1885 0 l 1,33,-1
 1573 0 l 1,34,-1
 1573 649 l 2,35,36
 1573 792 1573 792 1547.5 832.5 c 128,-1,37
 1522 873 1522 873 1491 884.5 c 128,-1,38
 1460 896 1460 896 1435.5 896 c 128,-1,39
 1411 896 1411 896 1394.5 896 c 128,-1,40
 1378 896 1378 896 1347 889 c 128,-1,41
 1316 882 1316 882 1287 870 c 0,42,43
 1223 844 1223 844 1183 811 c 1,0,1
EndSplineSet
EndChar

StartChar: n
Encoding: 110 110 102
Width: 1352
GlyphClass: 2
Flags: W
LayerCount: 2
Fore
SplineSet
174 1140 m 1,0,-1
 457 1140 l 1,1,-1
 463 1018 l 1,2,3
 575 1103 575 1103 728 1143 c 0,4,5
 790 1159 790 1159 861 1159 c 128,-1,6
 932 1159 932 1159 995 1138.5 c 128,-1,7
 1058 1118 1058 1118 1102 1066 c 0,8,9
 1190 962 1190 962 1190 715 c 2,10,-1
 1190 0 l 1,11,-1
 878 0 l 1,12,-1
 878 648 l 2,13,14
 878 791 878 791 843 844 c 0,15,16
 809 896 809 896 717 896 c 0,17,18
 632 896 632 896 542 848 c 0,19,20
 512 832 512 832 486 809 c 1,21,-1
 486 0 l 1,22,-1
 174 0 l 1,23,-1
 174 1140 l 1,0,-1
EndSplineSet
EndChar

StartChar: o
Encoding: 111 111 103
Width: 1302
GlyphClass: 2
Flags: W
LayerCount: 2
Fore
SplineSet
216 167 m 0,0,1
 151 251 151 251 123.5 358 c 128,-1,2
 96 465 96 465 96 595.5 c 128,-1,3
 96 726 96 726 140.5 833.5 c 128,-1,4
 185 941 185 941 260 1012 c 0,5,6
 412 1156 412 1156 662 1156 c 0,7,8
 946 1156 946 1156 1086 973 c 0,9,10
 1206 817 1206 817 1206 562 c 0,11,12
 1206 282 1206 282 1043 128 c 0,13,14
 891 -16 891 -16 641 -16 c 0,15,16
 358 -16 358 -16 216 167 c 0,0,1
655 934 m 1,17,18
 419 934 419 934 419 586 c 0,19,20
 419 327 419 327 544 236 c 0,21,22
 588 204 588 204 653 204 c 0,23,24
 883 204 883 204 883 561 c 0,25,26
 883 814 883 814 760 902 c 0,27,28
 716 933 716 933 655 934 c 1,17,18
EndSplineSet
Substitution2: "Single Substitution lookup 16 subtable" ordmasculine
Substitution2: "'aalt' Access All Alternates in Latin lookup 0 subtable" ordmasculine
EndChar

StartChar: p
Encoding: 112 112 104
Width: 1340
GlyphClass: 2
Flags: W
LayerCount: 2
Fore
SplineSet
902 29 m 128,-1,1
 795 -16 795 -16 678.5 -16 c 128,-1,2
 562 -16 562 -16 476 16 c 1,3,-1
 480 -139 l 1,4,-1
 480 -506 l 1,5,-1
 168 -506 l 1,6,-1
 168 1140 l 1,7,-1
 459 1140 l 1,8,-1
 459 1024 l 1,9,10
 591 1156 591 1156 791 1156 c 0,11,12
 985 1156 985 1156 1108 1022 c 1,13,14
 1245 875 1245 875 1245 612 c 0,15,16
 1245 329 1245 329 1085 156 c 0,17,0
 1009 74 1009 74 902 29 c 128,-1,1
695 923 m 0,18,19
 566 923 566 923 480 852 c 1,20,-1
 480 249 l 1,21,22
 531 203 531 203 656 203 c 0,23,24
 771 203 771 203 842 303 c 0,25,26
 918 409 918 409 918 598 c 0,27,28
 918 857 918 857 788 907 c 0,29,30
 746 923 746 923 695 923 c 0,18,19
EndSplineSet
EndChar

StartChar: q
Encoding: 113 113 105
Width: 1340
GlyphClass: 2
Flags: W
LayerCount: 2
Fore
SplineSet
866 101 m 1,0,1
 743 -16 743 -16 549 -16 c 256,2,3
 355 -16 355 -16 232 120 c 1,4,5
 95 269 95 269 95 533 c 0,6,7
 95 815 95 815 255 986 c 0,8,9
 413 1156 413 1156 675 1156 c 0,10,11
 830 1156 830 1156 947 1106 c 1,12,-1
 1172 1140 l 1,13,-1
 1172 -506 l 1,14,-1
 860 -506 l 1,15,-1
 860 -139 l 1,16,-1
 866 101 l 1,0,1
860 901 m 1,17,18
 814 934 814 934 684 934 c 0,19,20
 568 934 568 934 498 842 c 1,21,22
 422 740 422 740 422 548 c 0,23,24
 422 293 422 293 552 243 c 0,25,26
 594 227 594 227 645 227 c 0,27,28
 775 227 775 227 860 288 c 1,29,-1
 860 901 l 1,17,18
EndSplineSet
EndChar

StartChar: r
Encoding: 114 114 106
Width: 926
GlyphClass: 2
Flags: W
LayerCount: 2
Fore
SplineSet
724 872 m 0,0,1
 579 872 579 872 470 769 c 1,2,-1
 470 0 l 1,3,-1
 158 0 l 1,4,-1
 158 1140 l 1,5,-1
 435 1140 l 1,6,-1
 449 984 l 1,7,8
 512 1096 512 1096 668 1144 c 0,9,10
 718 1159 718 1159 777 1159 c 128,-1,11
 836 1159 836 1159 861 1145 c 1,12,-1
 861 844 l 1,13,14
 805 872 805 872 724 872 c 0,0,1
EndSplineSet
EndChar

StartChar: s
Encoding: 115 115 107
Width: 1048
GlyphClass: 2
Flags: W
LayerCount: 2
Fore
SplineSet
147 304 m 1,0,1
 204 257 204 257 366 224 c 0,2,3
 419 214 419 214 493.5 214 c 128,-1,4
 568 214 568 214 610.5 235 c 128,-1,5
 653 256 653 256 653 307.5 c 128,-1,6
 653 359 653 359 592 397.5 c 128,-1,7
 531 436 531 436 429.5 469.5 c 128,-1,8
 328 503 328 503 273 538 c 128,-1,9
 218 573 218 573 184 616 c 0,10,11
 119 698 119 698 119 828 c 0,12,13
 119 985 119 985 250 1073 c 0,14,15
 375 1156 375 1156 579 1156 c 0,16,17
 792 1156 792 1156 900 1091 c 1,18,-1
 866 851 l 1,19,20
 810 900 810 900 684 922 c 0,21,22
 646 928 646 928 577 928 c 0,23,24
 419 928 419 928 417 838 c 1,25,26
 417 785 417 785 465.5 752 c 128,-1,27
 514 719 514 719 620.5 683 c 128,-1,28
 727 647 727 647 788 613.5 c 128,-1,29
 849 580 849 580 887 538 c 0,30,31
 960 459 960 459 960 352.5 c 128,-1,32
 960 246 960 246 928.5 180 c 128,-1,33
 897 114 897 114 839 70 c 0,34,35
 724 -16 724 -16 513 -16 c 0,36,37
 330 -16 330 -16 180 41 c 0,38,39
 138 57 138 57 115 72 c 1,40,-1
 147 304 l 1,0,1
EndSplineSet
EndChar

StartChar: t
Encoding: 116 116 108
Width: 913
GlyphClass: 2
Flags: W
LayerCount: 2
Fore
SplineSet
211 924 m 1,0,-1
 74 924 l 1,1,-1
 74 1093 l 1,2,3
 170 1122 170 1122 193 1133 c 0,4,5
 240 1157 240 1157 256 1197 c 0,6,7
 291 1283 291 1283 333 1400 c 1,8,-1
 523 1400 l 1,9,-1
 523 1140 l 1,10,-1
 832 1140 l 1,11,-1
 832 924 l 1,12,-1
 523 924 l 1,13,-1
 523 466 l 2,14,15
 523 304 523 304 552 256 c 0,16,17
 567 231 567 231 592 225 c 128,-1,18
 617 219 617 219 645 219 c 128,-1,19
 673 219 673 219 698 223 c 128,-1,20
 723 227 723 227 748 234 c 0,21,22
 803 248 803 248 830 267 c 1,23,-1
 868 92 l 1,24,25
 786 22 786 22 638 -6 c 0,26,27
 584 -16 584 -16 512.5 -16 c 128,-1,28
 441 -16 441 -16 381 3.5 c 128,-1,29
 321 23 321 23 284 66 c 0,30,31
 211 148 211 148 211 339 c 2,32,-1
 211 924 l 1,0,-1
EndSplineSet
EndChar

StartChar: u
Encoding: 117 117 109
Width: 1326
GlyphClass: 2
Flags: W
LayerCount: 2
Fore
SplineSet
162 1140 m 1,0,-1
 474 1140 l 1,1,-1
 474 477 l 2,2,3
 474 321 474 321 516 268 c 0,4,5
 552 223 552 223 649 223 c 0,6,7
 727 223 727 223 806 266 c 0,8,9
 827 278 827 278 840 288 c 1,10,-1
 840 1140 l 1,11,-1
 1152 1140 l 1,12,-1
 1152 -16 l 1,13,-1
 946 -16 l 2,14,15
 909 -16 909 -16 889.5 -5.5 c 128,-1,16
 870 5 870 5 870 42 c 2,17,-1
 870 93 l 1,18,19
 768 20 768 20 624 -8 c 0,20,21
 579 -16 579 -16 537 -16 c 0,22,23
 311 -16 311 -16 227 120 c 0,24,25
 162 224 162 224 162 474 c 2,26,-1
 162 1140 l 1,0,-1
EndSplineSet
EndChar

StartChar: v
Encoding: 118 118 110
Width: 1191
GlyphClass: 2
Flags: W
LayerCount: 2
Fore
SplineSet
17 1140 m 1,0,-1
 354 1140 l 1,1,-1
 528 580 l 1,2,-1
 600 302 l 1,3,-1
 670 580 l 1,4,-1
 844 1140 l 1,5,-1
 1174 1140 l 1,6,-1
 739 -16 l 1,7,-1
 450 -16 l 1,8,-1
 17 1140 l 1,0,-1
EndSplineSet
EndChar

StartChar: w
Encoding: 119 119 111
Width: 1757
GlyphClass: 2
Flags: W
LayerCount: 2
Fore
SplineSet
18 1140 m 1,0,-1
 330 1140 l 1,1,-1
 472 589 l 1,2,-1
 523 313 l 1,3,-1
 581 588 l 1,4,-1
 746 1140 l 1,5,-1
 1037 1140 l 1,6,-1
 1202 589 l 1,7,-1
 1253 314 l 1,8,-1
 1305 586 l 1,9,-1
 1437 1140 l 1,10,-1
 1739 1140 l 1,11,-1
 1383 -16 l 1,12,-1
 1105 -16 l 1,13,-1
 923 591 l 1,14,-1
 879 809 l 1,15,-1
 834 591 l 1,16,-1
 655 -16 l 1,17,-1
 366 -16 l 1,18,-1
 18 1140 l 1,0,-1
EndSplineSet
EndChar

StartChar: x
Encoding: 120 120 112
Width: 1220
GlyphClass: 2
Flags: W
LayerCount: 2
Fore
SplineSet
437 577 m 1,0,-1
 36 1140 l 1,1,-1
 389 1140 l 1,2,-1
 585 843 l 1,3,-1
 620 783 l 1,4,-1
 651 844 l 1,5,-1
 839 1140 l 1,6,-1
 1191 1140 l 1,7,-1
 786 582 l 1,8,-1
 1199 0 l 1,9,-1
 842 0 l 1,10,-1
 603 373 l 1,11,-1
 577 319 l 1,12,-1
 393 0 l 1,13,-1
 36 0 l 1,14,-1
 437 577 l 1,0,-1
EndSplineSet
EndChar

StartChar: y
Encoding: 121 121 113
Width: 1188
GlyphClass: 2
Flags: W
LayerCount: 2
Fore
SplineSet
120 -235 m 1,0,1
 173 -255 173 -255 221.5 -255 c 128,-1,2
 270 -255 270 -255 313 -251 c 128,-1,3
 356 -247 356 -247 398 -223 c 0,4,5
 494 -168 494 -168 538 0 c 1,6,-1
 404 0 l 1,7,-1
 17 1140 l 1,8,-1
 355 1140 l 1,9,-1
 528 531 l 1,10,-1
 611 201 l 1,11,-1
 827 1140 l 1,12,-1
 1162 1140 l 1,13,-1
 807 -30 l 1,14,15
 691 -406 691 -406 424 -486 c 0,16,17
 351 -507 351 -507 306 -507 c 128,-1,18
 261 -507 261 -507 237.5 -505 c 128,-1,19
 214 -503 214 -503 190 -500 c 0,20,21
 128 -494 128 -494 120 -488 c 1,22,-1
 120 -235 l 1,0,1
EndSplineSet
EndChar

StartChar: z
Encoding: 122 122 114
Width: 1108
GlyphClass: 2
Flags: W
LayerCount: 2
Fore
SplineSet
572 840 m 1,0,-1
 630 923 l 1,1,-1
 142 923 l 1,2,-1
 144 1140 l 1,3,-1
 1010 1140 l 1,4,-1
 1045 1045 l 1,5,-1
 561 300 l 1,6,-1
 500 216 l 1,7,-1
 1029 216 l 1,8,-1
 1029 0 l 1,9,-1
 118 0 l 1,10,-1
 76 83 l 1,11,-1
 572 840 l 1,0,-1
EndSplineSet
EndChar

StartChar: braceleft
Encoding: 123 123 115
Width: 952
GlyphClass: 2
Flags: W
LayerCount: 2
Fore
SplineSet
856 -176 m 1,0,1
 730 -211 730 -211 544 -211 c 0,2,3
 427 -211 427 -211 376 -150 c 0,4,5
 324 -87 324 -87 324 60 c 2,6,-1
 324 547 l 2,7,8
 324 596 324 596 234 638 c 1,9,10
 156 673 156 673 68 682 c 1,11,-1
 68 873 l 1,12,13
 227 890 227 890 298 950 c 0,14,15
 324 972 324 972 324 1000 c 2,16,-1
 324 1486 l 2,17,18
 324 1700 324 1700 444 1742 c 0,19,20
 486 1757 486 1757 573.5 1757 c 128,-1,21
 661 1757 661 1757 856 1733 c 1,22,-1
 856 1562 l 1,23,-1
 594 1562 l 1,24,-1
 594 991 l 2,25,26
 594 906 594 906 516 854 c 0,27,28
 455 813 455 813 349 776 c 1,29,30
 548 707 548 707 584 618 c 0,31,32
 594 593 594 593 594 562 c 2,33,-1
 594 -20 l 1,34,-1
 856 -20 l 1,35,-1
 856 -176 l 1,0,1
EndSplineSet
EndChar

StartChar: bar
Encoding: 124 124 116
Width: 865
GlyphClass: 2
Flags: W
LayerCount: 2
Fore
SplineSet
305 1780 m 1,0,-1
 560 1780 l 1,1,-1
 560 -187 l 1,2,-1
 305 -187 l 1,3,-1
 305 1780 l 1,0,-1
EndSplineSet
EndChar

StartChar: asciitilde
Encoding: 126 126 118
Width: 1448
GlyphClass: 2
Flags: W
LayerCount: 2
Fore
SplineSet
534 808 m 0,0,1
 432 808 432 808 338 702 c 1,2,-1
 208 830 l 1,3,4
 229 900 229 900 318 970 c 0,5,6
 421 1050 421 1050 533 1050 c 0,7,8
 653 1050 653 1050 750 972 c 0,9,10
 811 923 811 923 848 908 c 128,-1,11
 885 893 885 893 922 893 c 0,12,13
 1030 893 1030 893 1123 998 c 1,14,-1
 1239 860 l 1,15,16
 1214 781 1214 781 1126 720 c 1,17,18
 1026 649 1026 649 908 649 c 0,19,20
 794 649 794 649 702 728 c 1,21,22
 646 778 646 778 609.5 793 c 128,-1,23
 573 808 573 808 534 808 c 0,0,1
EndSplineSet
EndChar

StartChar: cent
Encoding: 162 162 122
Width: 1187
GlyphClass: 2
Flags: W
LayerCount: 2
Fore
SplineSet
981 282 m 1,0,-1
 1026 97 l 1,1,2
 931 4 931 4 739 -13 c 1,3,-1
 736 -216 l 1,4,-1
 564 -216 l 1,5,-1
 568 -8 l 1,6,7
 361 25 361 25 250 182 c 1,8,9
 144 330 144 330 144 556 c 0,10,11
 144 921 144 921 396 1076 c 0,12,13
 481 1129 481 1129 597 1147 c 1,14,-1
 603 1377 l 1,15,-1
 774 1377 l 1,16,-1
 769 1154 l 1,17,18
 945 1144 945 1144 1009 1098 c 1,19,-1
 970 857 l 1,20,21
 888 901 888 901 745 901 c 0,22,23
 559 901 559 901 484 740 c 0,24,25
 454 676 454 676 454 585 c 128,-1,26
 454 494 454 494 473 430.5 c 128,-1,27
 492 367 492 367 530 322 c 0,28,29
 605 235 605 235 748.5 235 c 128,-1,30
 892 235 892 235 981 282 c 1,0,-1
EndSplineSet
EndChar

StartChar: sterling
Encoding: 163 163 123
Width: 1576
GlyphClass: 2
Flags: W
LayerCount: 2
Fore
SplineSet
736 554 m 2,0,1
 736 341 736 341 626 245 c 1,2,3
 665 237 665 237 699.5 228 c 128,-1,4
 734 219 734 219 770 211 c 0,5,6
 854 192 854 192 956 192 c 128,-1,7
 1058 192 1058 192 1111 235 c 128,-1,8
 1164 278 1164 278 1164 340 c 0,9,10
 1164 451 1164 451 1101 496 c 1,11,-1
 1312 606 l 1,12,13
 1372 569 1372 569 1398 535 c 1,14,15
 1453 459 1453 459 1453 361.5 c 128,-1,16
 1453 264 1453 264 1424.5 196.5 c 128,-1,17
 1396 129 1396 129 1339 81 c 0,18,19
 1221 -18 1221 -18 994 -18 c 0,20,21
 822 -18 822 -18 665 37 c 0,22,23
 560 74 560 74 526.5 82.5 c 128,-1,24
 493 91 493 91 463 90 c 1,25,26
 408 28 408 28 316 1 c 0,27,28
 286 -8 286 -8 259.5 -8 c 128,-1,29
 233 -8 233 -8 208 -1.5 c 128,-1,30
 183 5 183 5 162 20 c 0,31,32
 114 54 114 54 114 105.5 c 128,-1,33
 114 157 114 157 135 189.5 c 128,-1,34
 156 222 156 222 192 246 c 0,35,36
 263 292 263 292 381 296 c 1,37,38
 416 348 416 348 416 535 c 2,39,-1
 416 717 l 1,40,-1
 240 717 l 1,41,-1
 240 898 l 1,42,-1
 416 898 l 1,43,-1
 416 1025 l 2,44,45
 416 1258 416 1258 544 1393 c 0,46,47
 682 1538 682 1538 934 1538 c 0,48,49
 1153 1538 1153 1538 1301 1441 c 1,50,-1
 1175 1212 l 1,51,52
 1068 1294 1068 1294 963 1294 c 0,53,54
 860 1294 860 1294 810 1246 c 0,55,56
 736 1175 736 1175 736 963 c 2,57,-1
 736 898 l 1,58,-1
 1046 898 l 1,59,-1
 1046 717 l 1,60,-1
 736 717 l 1,61,-1
 736 554 l 2,0,1
EndSplineSet
EndChar

StartChar: currency
Encoding: 164 164 124
Width: 1544
GlyphClass: 2
Flags: W
LayerCount: 2
Fore
SplineSet
764 317 m 0,0,1
 644 317 644 317 543 375 c 1,2,-1
 341 170 l 1,3,-1
 200 314 l 1,4,-1
 395 512 l 1,5,6
 316 628 316 628 316 772 c 128,-1,7
 316 916 316 916 393 1030 c 1,8,-1
 201 1227 l 1,9,-1
 340 1374 l 1,10,-1
 540 1168 l 1,11,12
 645 1229 645 1229 764 1229 c 256,13,14
 883 1229 883 1229 990 1167 c 1,15,-1
 1203 1381 l 1,16,-1
 1344 1234 l 1,17,-1
 1138 1026 l 1,18,19
 1214 912 1214 912 1214 771.5 c 128,-1,20
 1214 631 1214 631 1136 515 c 1,21,-1
 1331 316 l 1,22,-1
 1191 171 l 1,23,-1
 988 376 l 1,24,25
 886 317 886 317 764 317 c 0,0,1
766 537 m 0,26,27
 859 537 859 537 926 608 c 0,28,29
 992 677 992 677 992 773 c 256,30,31
 992 869 992 869 926 938 c 0,32,33
 859 1009 859 1009 766 1009 c 0,34,35
 672 1009 672 1009 605 938 c 0,36,37
 538 868 538 868 538 773 c 256,38,39
 538 678 538 678 605 608 c 0,40,41
 672 537 672 537 766 537 c 0,26,27
EndSplineSet
EndChar

StartChar: yen
Encoding: 165 165 125
Width: 1576
GlyphClass: 2
Flags: W
LayerCount: 2
Fore
SplineSet
286 461 m 1,0,-1
 644 461 l 1,1,-1
 644 659 l 1,2,-1
 286 659 l 1,3,-1
 286 851 l 1,4,-1
 576 851 l 1,5,-1
 158 1522 l 1,6,-1
 481 1522 l 1,7,-1
 721 1102 l 1,8,-1
 789 961 l 1,9,-1
 857 1104 l 1,10,-1
 1112 1522 l 1,11,-1
 1437 1522 l 1,12,-1
 1015 851 l 1,13,-1
 1281 851 l 1,14,-1
 1281 659 l 1,15,-1
 934 659 l 1,16,-1
 934 461 l 1,17,-1
 1281 461 l 1,18,-1
 1281 269 l 1,19,-1
 934 269 l 1,20,-1
 934 0 l 1,21,-1
 644 0 l 1,22,-1
 644 269 l 1,23,-1
 286 269 l 1,24,-1
 286 461 l 1,0,-1
EndSplineSet
EndChar

StartChar: brokenbar
Encoding: 166 166 126
Width: 865
GlyphClass: 2
Flags: W
LayerCount: 2
Fore
SplineSet
305 1780 m 1,0,-1
 560 1780 l 1,1,-1
 560 964 l 1,2,-1
 305 964 l 1,3,-1
 305 1780 l 1,0,-1
305 620 m 1,4,-1
 560 620 l 1,5,-1
 560 -186 l 1,6,-1
 305 -186 l 1,7,-1
 305 620 l 1,4,-1
EndSplineSet
EndChar

StartChar: section
Encoding: 167 167 127
Width: 1402
GlyphClass: 2
Flags: W
LayerCount: 2
Fore
SplineSet
1083 399 m 1,0,1
 1172 303 1172 303 1172 160 c 0,2,3
 1172 -17 1172 -17 1009 -112 c 0,4,5
 870 -193 870 -193 681 -193 c 0,6,7
 485 -193 485 -193 338 -132 c 0,8,9
 298 -116 298 -116 275 -100 c 1,10,-1
 317 125 l 1,11,12
 395 64 395 64 544 39 c 0,13,14
 598 30 598 30 663 30 c 0,15,16
 873 30 873 30 873 165 c 0,17,18
 873 248 873 248 661 329 c 0,19,20
 506 388 506 388 430.5 431 c 128,-1,21
 355 474 355 474 308 520 c 0,22,23
 203 623 203 623 203 776.5 c 128,-1,24
 203 930 203 930 368 1064 c 1,25,26
 254 1169 254 1169 254 1322 c 0,27,28
 254 1498 254 1498 412 1594 c 0,29,30
 543 1673 543 1673 727 1673 c 0,31,32
 969 1673 969 1673 1093 1600 c 1,33,-1
 1051 1375 l 1,34,35
 951 1450 951 1450 745 1450 c 0,36,37
 609 1450 609 1450 568 1381 c 0,38,39
 553 1357 553 1357 553 1319.5 c 128,-1,40
 553 1282 553 1282 581.5 1251 c 128,-1,41
 610 1220 610 1220 656 1192 c 128,-1,42
 702 1164 702 1164 761 1137.5 c 128,-1,43
 820 1111 820 1111 882 1080.5 c 128,-1,44
 944 1050 944 1050 1003 1013 c 128,-1,45
 1062 976 1062 976 1108 928 c 0,46,47
 1211 822 1211 822 1211 678 c 0,48,49
 1211 529 1211 529 1083 399 c 1,0,1
520 962 m 1,50,51
 471 876 471 876 471 825 c 128,-1,52
 471 774 471 774 490.5 741 c 128,-1,53
 510 708 510 708 543 682.5 c 128,-1,54
 576 657 576 657 620.5 636 c 128,-1,55
 665 615 665 615 715 596 c 0,56,57
 864 539 864 539 921 512 c 1,58,59
 949 579 949 579 949 625.5 c 128,-1,60
 949 672 949 672 931 707 c 128,-1,61
 913 742 913 742 881.5 771 c 128,-1,62
 850 800 850 800 808 824 c 128,-1,63
 766 848 766 848 718.5 870 c 128,-1,64
 671 892 671 892 620 914.5 c 128,-1,65
 569 937 569 937 520 962 c 1,50,51
EndSplineSet
EndChar

StartChar: dieresis
Encoding: 168 168 128
Width: 974
GlyphClass: 2
Flags: W
LayerCount: 2
Fore
SplineSet
793.5 1324.5 m 128,-1,1
 760 1310 760 1310 721.5 1310 c 128,-1,2
 683 1310 683 1310 652.5 1322.5 c 128,-1,3
 622 1335 622 1335 600 1358 c 0,4,5
 555 1404 555 1404 555 1478 c 0,6,7
 555 1554 555 1554 609 1608 c 0,8,9
 664 1663 664 1663 740 1663 c 0,10,11
 861 1663 861 1663 894 1562 c 0,12,13
 904 1531 904 1531 904 1494 c 128,-1,14
 904 1457 904 1457 890 1423 c 128,-1,15
 876 1389 876 1389 851.5 1364 c 128,-1,0
 827 1339 827 1339 793.5 1324.5 c 128,-1,1
308.5 1324.5 m 128,-1,17
 275 1310 275 1310 236.5 1310 c 128,-1,18
 198 1310 198 1310 167.5 1322.5 c 128,-1,19
 137 1335 137 1335 115 1358 c 0,20,21
 70 1404 70 1404 70 1478 c 0,22,23
 70 1554 70 1554 124 1608 c 0,24,25
 179 1663 179 1663 255 1663 c 0,26,27
 376 1663 376 1663 409 1562 c 0,28,29
 419 1531 419 1531 419 1494 c 128,-1,30
 419 1457 419 1457 405 1423 c 128,-1,31
 391 1389 391 1389 366.5 1364 c 128,-1,16
 342 1339 342 1339 308.5 1324.5 c 128,-1,17
EndSplineSet
EndChar

StartChar: copyright
Encoding: 169 169 129
Width: 2093
GlyphClass: 2
Flags: W
LayerCount: 2
Fore
SplineSet
176 962 m 0,0,1
 176 1084 176 1084 206.5 1196.5 c 128,-1,2
 237 1309 237 1309 293.5 1406.5 c 128,-1,3
 350 1504 350 1504 429 1584 c 128,-1,4
 508 1664 508 1664 604 1721 c 0,5,6
 806 1840 806 1840 1046 1840 c 0,7,8
 1285 1840 1285 1840 1488 1721 c 0,9,10
 1685 1605 1685 1605 1799 1406 c 0,11,12
 1917 1201 1917 1201 1917 963 c 0,13,14
 1917 724 1917 724 1799 518 c 0,15,16
 1623 210 1623 210 1279 114 c 0,17,18
 1167 82 1167 82 1046 82 c 0,19,20
 808 82 808 82 604 202 c 0,21,22
 409 317 409 317 294 518 c 1,23,24
 176 722 176 722 176 962 c 0,0,1
343 1162 m 0,25,26
 318 1066 318 1066 318 962.5 c 128,-1,27
 318 859 318 859 343 763.5 c 128,-1,28
 368 668 368 668 414 584 c 128,-1,29
 460 500 460 500 525 431.5 c 128,-1,30
 590 363 590 363 671 314 c 0,31,32
 841 211 841 211 1046 211 c 256,33,34
 1251 211 1251 211 1421 314 c 0,35,36
 1671 465 1671 465 1749 764 c 0,37,38
 1774 859 1774 859 1774 962.5 c 128,-1,39
 1774 1066 1774 1066 1749 1162 c 128,-1,40
 1724 1258 1724 1258 1678 1341.5 c 128,-1,41
 1632 1425 1632 1425 1567 1493.5 c 128,-1,42
 1502 1562 1502 1562 1421 1611 c 0,43,44
 1251 1714 1251 1714 1046 1714 c 256,45,46
 841 1714 841 1714 671 1611 c 0,47,48
 420 1459 420 1459 343 1162 c 0,25,26
1329 738 m 1,49,-1
 1377 579 l 1,50,51
 1296 512 1296 512 1148 484 c 0,52,53
 1099 475 1099 475 1023 475 c 128,-1,54
 947 475 947 475 865 513 c 128,-1,55
 783 551 783 551 725 616 c 0,56,57
 604 750 604 750 604 950 c 0,58,59
 604 953 604 953 604 956 c 0,60,61
 604 1172 604 1172 730 1306 c 0,62,63
 864 1449 864 1449 1099 1449 c 0,64,65
 1213 1449 1213 1449 1308 1419 c 0,66,67
 1334 1411 1334 1411 1349 1402 c 1,68,-1
 1304 1196 l 1,69,70
 1227 1254 1227 1254 1092 1254 c 0,71,72
 980 1254 980 1254 910 1186 c 0,73,74
 838 1115 838 1115 838 1011 c 128,-1,75
 838 907 838 907 857.5 846.5 c 128,-1,76
 877 786 877 786 912 748 c 0,77,78
 979 674 979 674 1101.5 674 c 128,-1,79
 1224 674 1224 674 1329 738 c 1,49,-1
EndSplineSet
EndChar

StartChar: ordfeminine
Encoding: 170 170 130
Width: 1067
GlyphClass: 2
Flags: W
LayerCount: 2
Fore
SplineSet
500 676 m 0,0,1
 457 667 457 667 400.5 667 c 128,-1,2
 344 667 344 667 290 686.5 c 128,-1,3
 236 706 236 706 198 742 c 0,4,5
 120 816 120 816 120 940 c 0,6,7
 120 1131 120 1131 312 1211 c 1,8,9
 462 1266 462 1266 673 1266 c 1,10,-1
 673 1301 l 2,11,12
 673 1378 673 1378 632 1404 c 0,13,14
 596 1427 596 1427 529.5 1427 c 128,-1,15
 463 1427 463 1427 419 1419.5 c 128,-1,16
 375 1412 375 1412 332 1400 c 0,17,18
 239 1375 239 1375 203 1350 c 1,19,-1
 147 1505 l 1,20,21
 180 1536 180 1536 269 1563 c 1,22,23
 437 1616 437 1616 539 1616 c 128,-1,24
 641 1616 641 1616 713.5 1600 c 128,-1,25
 786 1584 786 1584 834 1548 c 0,26,27
 933 1475 933 1475 933 1307 c 2,28,-1
 933 677 l 1,29,-1
 803 677 l 2,30,31
 733 677 733 677 717 684 c 0,32,33
 685 698 685 698 685 752 c 2,34,-1
 685 765 l 1,35,36
 624 704 624 704 500 676 c 0,0,1
451 864 m 128,-1,38
 473 858 473 858 500.5 858 c 128,-1,39
 528 858 528 858 557 863.5 c 128,-1,40
 586 869 586 869 609 877 c 0,41,42
 658 894 658 894 673 907 c 1,43,-1
 673 1120 l 1,44,45
 514 1120 514 1120 460 1090 c 128,-1,46
 406 1060 406 1060 390.5 1029 c 128,-1,47
 375 998 375 998 375 965 c 128,-1,48
 375 932 375 932 385 913.5 c 128,-1,49
 395 895 395 895 412 882.5 c 128,-1,37
 429 870 429 870 451 864 c 128,-1,38
EndSplineSet
EndChar

StartChar: logicalnot
Encoding: 172 172 132
Width: 1480
GlyphClass: 2
Flags: W
LayerCount: 2
Fore
SplineSet
245 852 m 1,0,-1
 1235 852 l 1,1,-1
 1235 323 l 1,2,-1
 991 323 l 1,3,-1
 991 639 l 1,4,-1
 245 639 l 1,5,-1
 245 852 l 1,0,-1
EndSplineSet
EndChar

StartChar: registered
Encoding: 174 174 133
Width: 2093
GlyphClass: 2
Flags: W
LayerCount: 2
Fore
SplineSet
172 962 m 0,0,1
 172 1083 172 1083 203 1195.5 c 128,-1,2
 234 1308 234 1308 290.5 1405.5 c 128,-1,3
 347 1503 347 1503 426.5 1583 c 128,-1,4
 506 1663 506 1663 604 1720 c 0,5,6
 809 1840 809 1840 1046 1840 c 0,7,8
 1285 1840 1285 1840 1489 1720 c 0,9,10
 1686 1604 1686 1604 1802 1406 c 0,11,12
 1921 1202 1921 1202 1921 962 c 256,13,14
 1921 722 1921 722 1802 517 c 0,15,16
 1623 209 1623 209 1280 112 c 0,17,18
 1167 81 1167 81 1046 81 c 0,19,20
 809 81 809 81 604 201 c 0,21,22
 406 316 406 316 290 517 c 0,23,24
 172 723 172 723 172 962 c 0,0,1
370 1253.5 m 128,-1,26
 314 1117 314 1117 314 988 c 128,-1,27
 314 859 314 859 339.5 763 c 128,-1,28
 365 667 365 667 411.5 583.5 c 128,-1,29
 458 500 458 500 524 431.5 c 128,-1,30
 590 363 590 363 672 314 c 0,31,32
 843 211 843 211 1046 211 c 256,33,34
 1249 211 1249 211 1420 314 c 0,35,36
 1673 466 1673 466 1752 762 c 0,37,38
 1778 858 1778 858 1778 987.5 c 128,-1,39
 1778 1117 1778 1117 1722 1253.5 c 128,-1,40
 1666 1390 1666 1390 1567.5 1492 c 128,-1,41
 1469 1594 1469 1594 1335.5 1653 c 128,-1,42
 1202 1712 1202 1712 1046 1712 c 256,43,44
 890 1712 890 1712 756.5 1653 c 128,-1,45
 623 1594 623 1594 524.5 1492 c 128,-1,25
 426 1390 426 1390 370 1253.5 c 128,-1,26
1010 832 m 1,46,-1
 970 831 l 2,47,48
 945 831 945 831 921 831 c 1,49,-1
 921 481 l 1,50,-1
 709 481 l 1,51,-1
 709 1444 l 1,52,-1
 798 1444 l 1,53,54
 798 1444 798 1444 1059 1449 c 1,55,56
 1233 1449 1233 1449 1326 1371 c 0,57,58
 1414 1298 1414 1298 1414 1174 c 0,59,60
 1414 916 1414 916 1224 857 c 1,61,62
 1304 816 1304 816 1376 658 c 0,63,64
 1422 557 1422 557 1482 482 c 1,65,-1
 1236 482 l 1,66,67
 1220 499 1220 499 1209.5 520 c 128,-1,68
 1199 541 1199 541 1184.5 569.5 c 128,-1,69
 1170 598 1170 598 1155 638 c 128,-1,70
 1140 678 1140 678 1120 716 c 0,71,72
 1072 810 1072 810 1010 832 c 1,46,-1
1104 1280 m 0,73,74
 1072 1289 1072 1289 1013 1289 c 128,-1,75
 954 1289 954 1289 921 1278 c 1,76,-1
 921 987 l 1,77,78
 952 980 952 980 1039 980 c 0,79,80
 1195 980 1195 980 1195 1145 c 0,81,82
 1195 1254 1195 1254 1104 1280 c 0,73,74
EndSplineSet
EndChar

StartChar: macron
Encoding: 175 175 134
Width: 701
GlyphClass: 2
Flags: W
LayerCount: 2
Fore
SplineSet
55 1626 m 1,0,-1
 646 1626 l 1,1,-1
 646 1420 l 1,2,-1
 55 1420 l 1,3,-1
 55 1626 l 1,0,-1
EndSplineSet
EndChar

StartChar: degree
Encoding: 176 176 135
Width: 957
GlyphClass: 2
Flags: W
LayerCount: 2
Fore
SplineSet
480 921 m 0,0,1
 403 921 403 921 337.5 948.5 c 128,-1,2
 272 976 272 976 223 1024 c 0,3,4
 118 1128 118 1128 118 1278 c 0,5,6
 118 1431 118 1431 221 1532 c 0,7,8
 324 1634 324 1634 478 1634 c 0,9,10
 629 1634 629 1634 734 1531 c 0,11,12
 838 1428 838 1428 838 1278 c 0,13,14
 838 1123 838 1123 736 1022 c 0,15,16
 633 921 633 921 480 921 c 0,0,1
478 1097 m 0,17,18
 515 1097 515 1097 546.5 1110.5 c 128,-1,19
 578 1124 578 1124 601 1148 c 0,20,21
 651 1202 651 1202 651 1278 c 128,-1,22
 651 1354 651 1354 600 1406 c 0,23,24
 550 1458 550 1458 478 1458 c 0,25,26
 404 1458 404 1458 355 1407 c 128,-1,27
 306 1356 306 1356 306 1278 c 0,28,29
 306 1202 306 1202 356.5 1149.5 c 128,-1,30
 407 1097 407 1097 478 1097 c 0,17,18
EndSplineSet
EndChar

StartChar: plusminus
Encoding: 177 177 136
Width: 1403
GlyphClass: 2
Flags: W
LayerCount: 2
Fore
SplineSet
243 198 m 1,0,-1
 1152 198 l 1,1,-1
 1152 0 l 1,2,-1
 243 0 l 1,3,-1
 243 198 l 1,0,-1
578 474 m 1,4,-1
 584 662 l 1,5,-1
 422 656 l 1,6,-1
 213 656 l 1,7,-1
 213 893 l 1,8,-1
 422 893 l 1,9,-1
 584 886 l 1,10,-1
 578 1073 l 1,11,-1
 578 1290 l 1,12,-1
 824 1290 l 1,13,-1
 824 1073 l 1,14,-1
 817 886 l 1,15,-1
 968 893 l 1,16,-1
 1190 893 l 1,17,-1
 1190 656 l 1,18,-1
 968 656 l 1,19,-1
 817 662 l 1,20,-1
 824 474 l 1,21,-1
 824 260 l 1,22,-1
 578 260 l 1,23,-1
 578 474 l 1,4,-1
EndSplineSet
EndChar

StartChar: twosuperior
Encoding: 178 178 137
Width: 1234
GlyphClass: 2
Flags: W
LayerCount: 2
Fore
SplineSet
700 1366 m 0,0,1
 700 1519 700 1519 535 1519 c 0,2,3
 451 1519 451 1519 387 1480.5 c 128,-1,4
 323 1442 323 1442 264 1368 c 1,5,-1
 156 1517 l 1,6,7
 206 1596 206 1596 324 1656 c 0,8,9
 454 1723 454 1723 582 1723 c 128,-1,10
 710 1723 710 1723 784.5 1694 c 128,-1,11
 859 1665 859 1665 906 1621 c 0,12,13
 993 1538 993 1538 993 1424 c 0,14,15
 993 1206 993 1206 760 1016 c 0,16,17
 687 957 687 957 598 901 c 1,18,-1
 1046 921 l 1,19,-1
 1046 680 l 1,20,-1
 229 680 l 1,21,-1
 186 834 l 1,22,23
 337 912 337 912 499 1058 c 0,24,25
 700 1239 700 1239 700 1366 c 0,0,1
EndSplineSet
EndChar

StartChar: threesuperior
Encoding: 179 179 138
Width: 1234
GlyphClass: 2
Flags: W
LayerCount: 2
Fore
SplineSet
981 1470 m 0,0,1
 981 1294 981 1294 792 1195 c 1,2,3
 908 1189 908 1189 978 1116 c 0,4,5
 1042 1048 1042 1048 1042 963.5 c 128,-1,6
 1042 879 1042 879 1014 811.5 c 128,-1,7
 986 744 986 744 928 694 c 0,8,9
 805 588 805 588 571 588 c 0,10,11
 456 588 456 588 340 622 c 0,12,13
 312 630 312 630 289 635 c 1,14,-1
 283 819 l 1,15,16
 407 788 407 788 528 788 c 1,17,18
 768 790 768 790 768 943 c 0,19,20
 768 1056 768 1056 593 1085 c 1,21,-1
 434 1052 l 1,22,-1
 435 1237 l 1,23,24
 503 1246 503 1246 549 1258 c 128,-1,25
 595 1270 595 1270 624.5 1286.5 c 128,-1,26
 654 1303 654 1303 676 1324 c 0,27,28
 723 1369 723 1369 721 1420 c 0,29,30
 719 1521 719 1521 563 1521 c 0,31,32
 441 1521 441 1521 314 1443 c 1,33,-1
 248 1600 l 1,34,35
 338 1674 338 1674 520 1704 c 0,36,37
 571 1713 571 1713 640.5 1713 c 128,-1,38
 710 1713 710 1713 780 1694 c 128,-1,39
 850 1675 850 1675 894 1642 c 0,40,41
 981 1578 981 1578 981 1470 c 0,0,1
EndSplineSet
EndChar

StartChar: acute
Encoding: 180 180 139
Width: 665
GlyphClass: 2
Flags: W
LayerCount: 2
Fore
SplineSet
55 1389 m 1,0,1
 252 1575 252 1575 396 1808 c 1,2,-1
 610 1634 l 1,3,4
 555 1509 555 1509 332 1336 c 0,5,6
 251 1273 251 1273 204 1252 c 1,7,-1
 55 1389 l 1,0,1
EndSplineSet
EndChar

StartChar: mu
Encoding: 181 181 140
Width: 1404
GlyphClass: 2
Flags: W
LayerCount: 2
Fore
SplineSet
932 120 m 1,0,1
 835 -16 835 -16 672.5 -16 c 128,-1,2
 510 -16 510 -16 433 52 c 1,3,-1
 463 -371 l 1,4,-1
 181 -371 l 1,5,-1
 181 1140 l 1,6,-1
 493 1140 l 1,7,-1
 493 484 l 2,8,9
 493 348 493 348 539 290 c 256,10,11
 585 232 585 232 688.5 232 c 128,-1,12
 792 232 792 232 869 300 c 1,13,-1
 869 1140 l 1,14,-1
 1181 1140 l 1,15,-1
 1181 281 l 2,16,17
 1181 205 1181 205 1224 205 c 0,18,19
 1262 205 1262 205 1306 232 c 1,20,-1
 1337 87 l 1,21,22
 1303 33 1303 33 1180 -4 c 0,23,24
 1136 -18 1136 -18 1083 -18 c 0,25,26
 938 -18 938 -18 932 120 c 1,0,1
EndSplineSet
EndChar

StartChar: paragraph
Encoding: 182 182 141
Width: 1410
GlyphClass: 2
Flags: W
LayerCount: 2
Fore
SplineSet
658 1711 m 1,0,-1
 1202 1691 l 1,1,-1
 1202 0 l 1,2,-1
 950 0 l 1,3,-1
 950 1522 l 1,4,-1
 748 1522 l 1,5,-1
 748 0 l 1,6,-1
 496 0 l 1,7,-1
 496 777 l 1,8,9
 62 777 62 777 62 1248 c 0,10,11
 62 1472 62 1472 210.5 1591.5 c 128,-1,12
 359 1711 359 1711 658 1711 c 1,0,-1
EndSplineSet
EndChar

StartChar: cedilla
Encoding: 184 184 143
Width: 518
GlyphClass: 2
Flags: W
LayerCount: 2
Fore
SplineSet
252 -100 m 0,0,1
 252 -26 252 -26 220 30 c 1,2,-1
 357 34 l 1,3,-1
 406 30 l 1,4,5
 468 -29 468 -29 468 -202 c 0,6,7
 468 -338 468 -338 388 -406 c 0,8,9
 321 -464 321 -464 213 -464 c 0,10,11
 137 -464 137 -464 89.5 -453 c 128,-1,12
 42 -442 42 -442 33 -436 c 1,13,-1
 53 -271 l 1,14,15
 76 -285 76 -285 127.5 -285 c 128,-1,16
 179 -285 179 -285 213.5 -248.5 c 128,-1,17
 248 -212 248 -212 251 -135 c 0,18,19
 252 -116 252 -116 252 -100 c 0,0,1
EndSplineSet
EndChar

StartChar: onesuperior
Encoding: 185 185 144
Width: 1066
GlyphClass: 2
Flags: W
LayerCount: 2
Fore
SplineSet
411 1402 m 1,0,1
 288 1368 288 1368 215 1355 c 1,2,-1
 175 1516 l 1,3,4
 324 1561 324 1561 510 1679 c 0,5,6
 533 1694 533 1694 545 1704 c 1,7,-1
 690 1679 l 1,8,-1
 690 673 l 1,9,-1
 411 673 l 1,10,-1
 411 1402 l 1,0,1
EndSplineSet
EndChar

StartChar: ordmasculine
Encoding: 186 186 145
Width: 1065
GlyphClass: 2
Flags: W
LayerCount: 2
Fore
SplineSet
518 669 m 0,0,1
 419 669 419 669 335 704 c 0,2,3
 167 772 167 772 110 956 c 0,4,5
 83 1043 83 1043 83 1148 c 0,6,7
 83 1386 83 1386 235 1513 c 0,8,9
 361 1618 361 1618 552 1618 c 0,10,11
 762 1618 762 1618 876 1484 c 0,12,13
 982 1359 982 1359 982 1144 c 0,14,15
 982 904 982 904 840 776 c 0,16,17
 720 669 720 669 518 669 c 0,0,1
545 1427 m 0,18,19
 350 1427 350 1427 350 1156 c 0,20,21
 350 942 350 942 457 880 c 0,22,23
 491 860 491 860 515 860 c 128,-1,24
 539 860 539 860 562.5 860.5 c 128,-1,25
 586 861 586 861 619 876.5 c 128,-1,26
 652 892 652 892 673 925 c 0,27,28
 715 991 715 991 715 1134 c 0,29,30
 715 1427 715 1427 545 1427 c 0,18,19
EndSplineSet
EndChar

StartChar: Aring
Encoding: 197 197 156
Width: 1421
GlyphClass: 2
Flags: W
LayerCount: 2
Fore
SplineSet
515 1451 m 1,0,1
 367 1518 367 1518 367 1690 c 0,2,3
 367 1838 367 1838 479 1910 c 0,4,5
 570 1969 570 1969 714 1969 c 0,6,7
 958 1969 958 1969 1027 1816 c 0,8,9
 1050 1764 1050 1764 1050 1706 c 128,-1,10
 1050 1648 1050 1648 1038.5 1610.5 c 128,-1,11
 1027 1573 1027 1573 1007 1544 c 0,12,13
 967 1484 967 1484 900 1454 c 1,14,-1
 1436 0 l 1,15,-1
 1089 0 l 1,16,-1
 987 322 l 1,17,-1
 427 322 l 1,18,-1
 327 0 l 1,19,-1
 -15 0 l 1,20,-1
 515 1451 l 1,0,1
595 1601 m 128,-1,22
 639 1567 639 1567 691.5 1567 c 128,-1,23
 744 1567 744 1567 773 1571.5 c 128,-1,24
 802 1576 802 1576 823 1590 c 0,25,26
 867 1618 867 1618 867 1691 c 0,27,28
 867 1786 867 1786 771 1814 c 0,29,30
 742 1823 742 1823 709.5 1823 c 128,-1,31
 677 1823 677 1823 648.5 1818 c 128,-1,32
 620 1813 620 1813 598 1800 c 0,33,34
 551 1770 551 1770 551 1702.5 c 128,-1,21
 551 1635 551 1635 595 1601 c 128,-1,22
914 551 m 1,35,-1
 749 1073 l 1,36,-1
 706 1230 l 1,37,-1
 662 1073 l 1,38,-1
 499 551 l 1,39,-1
 914 551 l 1,35,-1
EndSplineSet
EndChar

StartChar: AE
Encoding: 198 198 157
Width: 1939
GlyphClass: 2
Flags: W
LayerCount: 2
Fore
SplineSet
655 1522 m 1,0,-1
 1788 1522 l 1,1,-1
 1788 1278 l 1,2,-1
 1178 1278 l 1,3,-1
 1178 904 l 1,4,-1
 1646 904 l 1,5,-1
 1646 663 l 1,6,-1
 1178 663 l 1,7,-1
 1178 251 l 1,8,-1
 1853 251 l 1,9,-1
 1853 0 l 1,10,-1
 860 0 l 1,11,-1
 860 376 l 1,12,-1
 411 376 l 1,13,-1
 234 0 l 1,14,-1
 -111 0 l 1,15,-1
 655 1522 l 1,0,-1
860 598 m 1,16,-1
 860 1324 l 1,17,-1
 516 598 l 1,18,-1
 860 598 l 1,16,-1
EndSplineSet
EndChar

StartChar: Ccedilla
Encoding: 199 199 158
Width: 1299
GlyphClass: 2
Flags: W
LayerCount: 2
Fore
SplineSet
556 -271 m 1,0,1
 579 -285 579 -285 630.5 -285 c 128,-1,2
 682 -285 682 -285 716.5 -248.5 c 128,-1,3
 751 -212 751 -212 754 -135 c 0,4,5
 755 -116 755 -116 755 -97 c 0,6,7
 755 -48 755 -48 741 -9 c 1,8,9
 443 27 443 27 271 234 c 0,10,11
 100 440 100 440 100 757 c 0,12,13
 100 1123 100 1123 317 1336 c 0,14,15
 522 1538 522 1538 846 1538 c 0,16,17
 1026 1538 1026 1538 1186 1496 c 0,18,19
 1224 1486 1224 1486 1260 1479 c 1,20,-1
 1214 1199 l 1,21,22
 1142 1239 1142 1239 1099 1253 c 0,23,24
 998 1286 998 1286 885.5 1286 c 128,-1,25
 773 1286 773 1286 693 1251.5 c 128,-1,26
 613 1217 613 1217 554 1152 c 0,27,28
 428 1012 428 1012 428 777 c 0,29,30
 428 535 428 535 550 385 c 0,31,32
 677 230 677 230 890 230 c 0,33,34
 1036 230 1036 230 1185 294 c 0,35,36
 1223 311 1223 311 1243 326 c 1,37,-1
 1244 64 l 1,38,39
 1075 -2 1075 -2 938 -13 c 1,40,41
 971 -83 971 -83 971 -199 c 0,42,43
 971 -401 971 -401 812 -450 c 0,44,45
 766 -464 766 -464 730 -464 c 128,-1,46
 694 -464 694 -464 667 -462 c 128,-1,47
 640 -460 640 -460 614 -456 c 0,48,49
 552 -446 552 -446 536 -436 c 1,50,-1
 556 -271 l 1,0,1
EndSplineSet
EndChar

StartChar: Eth
Encoding: 208 208 167
Width: 1554
GlyphClass: 2
Flags: W
LayerCount: 2
Fore
SplineSet
188 694 m 1,0,-1
 69 694 l 1,1,-1
 69 895 l 1,2,-1
 188 895 l 1,3,-1
 188 1522 l 1,4,-1
 339 1522 l 2,5,6
 373 1522 373 1522 457 1528 c 0,7,8
 616 1538 616 1538 708 1538 c 0,9,10
 1269 1538 1269 1538 1409 1113 c 0,11,12
 1454 976 1454 976 1454 791 c 128,-1,13
 1454 606 1454 606 1400 454 c 0,14,15
 1290 147 1290 147 1002 36 c 0,16,17
 865 -16 865 -16 696 -16 c 0,18,19
 589 -16 589 -16 500 -8 c 128,-1,20
 411 0 411 0 342 0 c 2,21,-1
 188 0 l 1,22,-1
 188 694 l 1,0,-1
678 1298 m 1,23,-1
 509 1284 l 1,24,-1
 509 895 l 1,25,-1
 846 895 l 1,26,-1
 846 694 l 1,27,-1
 509 694 l 1,28,-1
 509 246 l 1,29,30
 574 228 574 228 689 228.5 c 128,-1,31
 804 229 804 229 878.5 260 c 128,-1,32
 953 291 953 291 1006 356 c 0,33,34
 1118 493 1118 493 1118 767 c 0,35,36
 1118 1058 1118 1058 1010 1181 c 0,37,38
 907 1298 907 1298 678 1298 c 1,23,-1
EndSplineSet
EndChar

StartChar: multiply
Encoding: 215 215 174
Width: 1380
GlyphClass: 2
Flags: W
LayerCount: 2
Fore
SplineSet
168 408 m 1,0,-1
 527 776 l 1,1,-1
 168 1160 l 1,2,-1
 339 1320 l 1,3,-1
 693 942 l 1,4,-1
 1044 1320 l 1,5,-1
 1215 1160 l 1,6,-1
 856 777 l 1,7,-1
 1212 408 l 1,8,-1
 1041 237 l 1,9,-1
 690 605 l 1,10,-1
 339 237 l 1,11,-1
 168 408 l 1,0,-1
EndSplineSet
EndChar

StartChar: Oslash
Encoding: 216 216 175
Width: 1595
GlyphClass: 2
Flags: W
LayerCount: 2
Fore
SplineSet
463 52 m 1,0,1
 191 190 191 190 118 532 c 0,2,3
 98 630 98 630 98 693 c 0,4,5
 98 956 98 956 155.5 1104.5 c 128,-1,6
 213 1253 213 1253 309 1346 c 0,7,8
 506 1538 506 1538 845 1538 c 0,9,10
 925 1538 925 1538 998 1521 c 1,11,-1
 1093 1781 l 1,12,-1
 1218 1749 l 1,13,-1
 1120 1481 l 1,14,15
 1302 1399 1302 1399 1402 1210 c 0,16,17
 1497 1029 1497 1029 1497 782 c 0,18,19
 1497 389 1497 389 1292 179 c 0,20,21
 1103 -16 1103 -16 782 -16 c 0,22,23
 676 -16 676 -16 584 7 c 1,24,-1
 501 -220 l 1,25,-1
 376 -188 l 1,26,-1
 463 52 l 1,0,1
911 1282 m 1,27,28
 864 1296 864 1296 799 1296 c 128,-1,29
 734 1296 734 1296 664 1267 c 128,-1,30
 594 1238 594 1238 541 1174 c 0,31,32
 427 1035 427 1035 427 758 c 0,33,34
 427 466 427 466 561 322 c 1,35,-1
 911 1282 l 1,27,28
670 245 m 1,36,37
 727 221 727 221 805 221 c 128,-1,38
 883 221 883 221 951.5 253.5 c 128,-1,39
 1020 286 1020 286 1068 354 c 0,40,41
 1168 496 1168 496 1168 773 c 0,42,43
 1168 1078 1168 1078 1024 1216 c 1,44,-1
 670 245 l 1,36,37
EndSplineSet
EndChar

StartChar: Thorn
Encoding: 222 222 181
Width: 1359
GlyphClass: 2
Flags: W
LayerCount: 2
Fore
SplineSet
720 257 m 0,0,1
 596 257 596 257 506 266 c 1,2,-1
 506 0 l 1,3,-1
 188 0 l 1,4,-1
 188 1522 l 1,5,-1
 506 1522 l 1,6,-1
 506 1274 l 1,7,8
 685 1287 685 1287 778 1287 c 128,-1,9
 871 1287 871 1287 969.5 1258 c 128,-1,10
 1068 1229 1068 1229 1138 1170 c 0,11,12
 1282 1047 1282 1047 1282 805 c 0,13,14
 1282 545 1282 545 1132 402 c 1,15,16
 982 257 982 257 720 257 c 0,0,1
942.5 646 m 128,-1,18
 967 705 967 705 967 816 c 128,-1,19
 967 927 967 927 892 987 c 128,-1,20
 817 1047 817 1047 697.5 1047 c 128,-1,21
 578 1047 578 1047 506 1028 c 1,22,-1
 506 510 l 1,23,24
 557 500 557 500 640 500 c 128,-1,25
 723 500 723 500 778.5 511 c 128,-1,26
 834 522 834 522 876 554.5 c 128,-1,17
 918 587 918 587 942.5 646 c 128,-1,18
EndSplineSet
EndChar

StartChar: germandbls
Encoding: 223 223 182
Width: 1395
GlyphClass: 2
Flags: W
LayerCount: 2
Fore
SplineSet
680 240 m 1,0,1
 752 197 752 197 861 197 c 0,2,3
 966 197 966 197 1009 262 c 0,4,5
 1025 287 1025 287 1025 331 c 128,-1,6
 1025 375 1025 375 1003 414 c 128,-1,7
 981 453 981 453 948 487.5 c 128,-1,8
 915 522 915 522 876.5 556 c 128,-1,9
 838 590 838 590 806 630 c 0,10,11
 729 724 729 724 729 837 c 0,12,13
 729 941 729 941 825 1038 c 0,14,15
 885 1099 885 1099 903 1140 c 128,-1,16
 921 1181 921 1181 921 1238 c 128,-1,17
 921 1295 921 1295 879 1333.5 c 128,-1,18
 837 1372 837 1372 769.5 1372 c 128,-1,19
 702 1372 702 1372 656 1351 c 128,-1,20
 610 1330 610 1330 578 1281 c 0,21,22
 510 1179 510 1179 510 951 c 2,23,-1
 510 0 l 1,24,-1
 193 0 l 1,25,-1
 193 924 l 1,26,-1
 54 924 l 1,27,-1
 54 1119 l 1,28,-1
 210 1148 l 1,29,30
 256 1367 256 1367 423 1478 c 0,31,32
 574 1579 574 1579 804 1579 c 0,33,34
 1006 1579 1006 1579 1126 1494 c 0,35,36
 1245 1409 1245 1409 1245 1268 c 0,37,38
 1245 1131 1245 1131 1122 1038 c 0,39,40
 1045 980 1045 980 1021.5 949.5 c 128,-1,41
 998 919 998 919 998 884.5 c 128,-1,42
 998 850 998 850 1023.5 817.5 c 128,-1,43
 1049 785 1049 785 1087 752.5 c 128,-1,44
 1125 720 1125 720 1170 683 c 128,-1,45
 1215 646 1215 646 1253 598 c 0,46,47
 1342 486 1342 486 1342 339 c 0,48,49
 1342 148 1342 148 1209 58 c 0,50,51
 1099 -16 1099 -16 921 -16 c 128,-1,52
 743 -16 743 -16 680 17 c 1,53,-1
 680 240 l 1,0,1
EndSplineSet
EndChar

StartChar: ae
Encoding: 230 230 189
Width: 1851
GlyphClass: 2
Flags: W
LayerCount: 2
Fore
SplineSet
878 159 m 1,0,1
 724 -16 724 -16 475 -16 c 0,2,3
 315 -16 315 -16 212 72 c 0,4,5
 102 165 102 165 102 330 c 0,6,7
 102 489 102 489 228 586 c 0,8,9
 300 642 300 642 384.5 662.5 c 128,-1,10
 469 683 469 683 528 691 c 0,11,12
 637 706 637 706 751 706 c 1,13,-1
 751 767 l 2,14,15
 751 854 751 854 706 890 c 0,16,17
 663 924 663 924 554 924 c 0,18,19
 433 924 433 924 286 869 c 0,20,21
 248 855 248 855 228 843 c 1,22,-1
 159 1043 l 1,23,24
 282 1112 282 1112 462 1147 c 0,25,26
 540 1162 540 1162 644 1162 c 0,27,28
 875 1162 875 1162 960 1047 c 1,29,30
 1101 1156 1101 1156 1308 1156 c 0,31,32
 1611 1156 1611 1156 1714 919 c 0,33,34
 1752 833 1752 833 1753 699 c 128,-1,35
 1754 565 1754 565 1743 495 c 1,36,-1
 1068 495 l 1,37,38
 1087 216 1087 216 1373 216 c 0,39,40
 1485 216 1485 216 1564 239.5 c 128,-1,41
 1643 263 1643 263 1666 275 c 1,42,-1
 1717 98 l 1,43,44
 1623 21 1623 21 1424 -7 c 0,45,46
 1360 -16 1360 -16 1294 -16 c 0,47,48
 1020 -16 1020 -16 878 159 c 1,0,1
1465 712 m 0,49,50
 1465 934 1465 934 1291 934 c 0,51,52
 1198 934 1198 934 1148 877 c 0,53,54
 1089 811 1089 811 1074 668 c 1,55,-1
 1464 668 l 1,56,57
 1465 691 1465 691 1465 712 c 0,49,50
432 407 m 128,-1,59
 422 383 422 383 422 345.5 c 128,-1,60
 422 308 422 308 434.5 279.5 c 128,-1,61
 447 251 447 251 468 232 c 0,62,63
 510 195 510 195 581 195 c 0,64,65
 679 195 679 195 762 260 c 0,66,67
 786 279 786 279 801 298 c 1,68,69
 761 400 761 400 757 530 c 1,70,71
 617 530 617 530 528 489 c 0,72,73
 474 465 474 465 458 448 c 128,-1,58
 442 431 442 431 432 407 c 128,-1,59
EndSplineSet
EndChar

StartChar: ccedilla
Encoding: 231 231 190
Width: 1048
GlyphClass: 2
Flags: W
LayerCount: 2
Fore
SplineSet
334 -271 m 1,0,1
 357 -285 357 -285 408.5 -285 c 128,-1,2
 460 -285 460 -285 494.5 -248.5 c 128,-1,3
 529 -212 529 -212 532 -135 c 0,4,5
 533 -116 533 -116 533 -96 c 0,6,7
 533 -47 533 -47 519 -8 c 1,8,9
 312 25 312 25 201 182 c 1,10,11
 95 330 95 330 95 556 c 0,12,13
 95 822 95 822 234 982 c 0,14,15
 386 1156 386 1156 664 1156 c 0,16,17
 818 1156 818 1156 918 1118 c 0,18,19
 946 1108 946 1108 960 1098 c 1,20,-1
 921 857 l 1,21,22
 839 901 839 901 696 901 c 0,23,24
 510 901 510 901 434 740 c 1,25,26
 405 676 405 676 405 585 c 128,-1,27
 405 494 405 494 424 430.5 c 128,-1,28
 443 367 443 367 481 322 c 0,29,30
 556 235 556 235 699.5 235 c 128,-1,31
 843 235 843 235 932 282 c 1,32,-1
 977 97 l 1,33,34
 889 11 889 11 715 -10 c 1,35,36
 749 -81 749 -81 749 -198 c 0,37,38
 749 -401 749 -401 590 -450 c 0,39,40
 544 -464 544 -464 508 -464 c 128,-1,41
 472 -464 472 -464 445 -462 c 128,-1,42
 418 -460 418 -460 392 -456 c 0,43,44
 330 -446 330 -446 314 -436 c 1,45,-1
 334 -271 l 1,0,1
EndSplineSet
EndChar

StartChar: idieresis
Encoding: 239 239 198
Width: 660
GlyphClass: 2
Flags: W
LayerCount: 2
Fore
SplineSet
624.5 1323.5 m 128,-1,1
 591 1309 591 1309 552.5 1309 c 128,-1,2
 514 1309 514 1309 483.5 1321.5 c 128,-1,3
 453 1334 453 1334 431 1356 c 0,4,5
 386 1403 386 1403 386 1477 c 0,6,7
 386 1553 386 1553 440 1607 c 0,8,9
 495 1662 495 1662 571 1662 c 0,10,11
 692 1662 692 1662 725 1560 c 0,12,13
 735 1530 735 1530 735 1493 c 128,-1,14
 735 1456 735 1456 721 1422 c 128,-1,15
 707 1388 707 1388 682.5 1363 c 128,-1,0
 658 1338 658 1338 624.5 1323.5 c 128,-1,1
163.5 1323.5 m 128,-1,17
 130 1309 130 1309 91.5 1309 c 128,-1,18
 53 1309 53 1309 22.5 1321.5 c 128,-1,19
 -8 1334 -8 1334 -30 1356 c 0,20,21
 -75 1403 -75 1403 -75 1477 c 0,22,23
 -75 1553 -75 1553 -21 1607 c 0,24,25
 34 1662 34 1662 110 1662 c 0,26,27
 231 1662 231 1662 264 1560 c 0,28,29
 274 1530 274 1530 274 1493 c 128,-1,30
 274 1456 274 1456 260 1422 c 128,-1,31
 246 1388 246 1388 221.5 1363 c 128,-1,16
 197 1338 197 1338 163.5 1323.5 c 128,-1,17
174 1140 m 1,32,-1
 486 1140 l 1,33,-1
 486 0 l 1,34,-1
 174 0 l 1,35,-1
 174 1140 l 1,32,-1
EndSplineSet
EndChar

StartChar: eth
Encoding: 240 240 199
Width: 1294
GlyphClass: 2
Flags: W
LayerCount: 2
Fore
SplineSet
549 1679 m 1,0,-1
 674 1852 l 1,1,-1
 826 1752 l 1,2,3
 807 1727 807 1727 787.5 1702 c 128,-1,4
 768 1677 768 1677 746 1648.5 c 128,-1,5
 724 1620 724 1620 703 1594 c 1,6,7
 934 1463 934 1463 1076 1202 c 0,8,9
 1215 946 1215 946 1215 651 c 0,10,11
 1215 329 1215 329 1052 145 c 0,12,13
 899 -27 899 -27 648 -27 c 0,14,15
 398 -27 398 -27 246 132 c 0,16,17
 95 291 95 291 95 550 c 0,18,19
 95 826 95 826 232 986 c 1,20,21
 373 1149 373 1149 624 1149 c 0,22,23
 733 1149 733 1149 815 1096 c 1,24,25
 753 1283 753 1283 568 1420 c 1,26,-1
 451 1262 l 1,27,-1
 302 1361 l 1,28,-1
 424 1518 l 1,29,30
 326 1579 326 1579 220 1611 c 1,31,-1
 273 1787 l 1,32,33
 453 1733 453 1733 549 1679 c 1,0,-1
483.5 288.5 m 128,-1,35
 548 202 548 202 660 202 c 0,36,37
 760 202 760 202 824 298 c 0,38,39
 892 399 892 399 892 574 c 2,40,-1
 892 634 l 2,41,42
 892 744 892 744 886 816 c 1,43,44
 840 892 840 892 739 922 c 0,45,46
 703 932 703 932 653.5 932 c 128,-1,47
 604 932 604 932 559 906.5 c 128,-1,48
 514 881 514 881 483 832 c 0,49,50
 419 729 419 729 419 552 c 128,-1,34
 419 375 419 375 483.5 288.5 c 128,-1,35
EndSplineSet
EndChar

StartChar: divide
Encoding: 247 247 206
Width: 1403
GlyphClass: 2
Flags: W
LayerCount: 2
Fore
SplineSet
791.5 1041.5 m 128,-1,1
 754 1025 754 1025 713 1025 c 128,-1,2
 672 1025 672 1025 638 1039 c 128,-1,3
 604 1053 604 1053 580 1078 c 0,4,5
 527 1132 527 1132 527 1213 c 0,6,7
 527 1295 527 1295 588 1358 c 0,8,9
 648 1419 648 1419 732 1419 c 0,10,11
 863 1419 863 1419 904 1306 c 0,12,13
 916 1272 916 1272 916 1231 c 128,-1,14
 916 1190 916 1190 900 1152 c 128,-1,15
 884 1114 884 1114 856.5 1086 c 128,-1,0
 829 1058 829 1058 791.5 1041.5 c 128,-1,1
203 889 m 1,16,-1
 1200 889 l 1,17,-1
 1200 655 l 1,18,-1
 203 655 l 1,19,-1
 203 889 l 1,16,-1
523 326 m 0,20,21
 523 367 523 367 539.5 404 c 128,-1,22
 556 441 556 441 584 470 c 1,23,24
 646 531 646 531 729 531 c 0,25,26
 858 531 858 531 900 418 c 0,27,28
 912 384 912 384 912 343 c 128,-1,29
 912 302 912 302 896 264 c 128,-1,30
 880 226 880 226 852 198 c 0,31,32
 793 137 793 137 708 137 c 0,33,34
 627 137 627 137 576 190 c 0,35,36
 523 244 523 244 523 326 c 0,20,21
EndSplineSet
EndChar

StartChar: oslash
Encoding: 248 248 207
Width: 1302
GlyphClass: 2
Flags: W
LayerCount: 2
Fore
SplineSet
437.5 1119.5 m 128,-1,1
 540 1156 540 1156 633 1156 c 128,-1,2
 726 1156 726 1156 784 1146 c 1,3,-1
 863 1367 l 1,4,-1
 988 1335 l 1,5,-1
 908 1110 l 1,6,7
 1063 1044 1063 1044 1140 886 c 0,8,9
 1206 750 1206 750 1206 557 c 0,10,11
 1206 282 1206 282 1043 128 c 0,12,13
 891 -16 891 -16 641 -16 c 0,14,15
 574 -16 574 -16 513 -5 c 1,16,-1
 437 -220 l 1,17,-1
 312 -188 l 1,18,-1
 390 31 l 1,19,20
 96 163 96 163 96 583 c 0,21,22
 96 857 96 857 260 1012 c 0,23,0
 335 1083 335 1083 437.5 1119.5 c 128,-1,1
655 934 m 0,24,25
 419 934 419 934 419 586 c 0,26,27
 419 401 419 401 485 299 c 1,28,-1
 707 927 l 1,29,30
 679 934 679 934 655 934 c 0,24,25
653 204 m 0,31,32
 883 204 883 204 883 561 c 0,33,34
 883 742 883 742 814 846 c 1,35,-1
 590 213 l 1,36,37
 622 204 622 204 653 204 c 0,31,32
EndSplineSet
EndChar

StartChar: thorn
Encoding: 254 254 213
Width: 1340
GlyphClass: 2
Flags: W
LayerCount: 2
Fore
SplineSet
891.5 23 m 128,-1,1
 782 -23 782 -23 677.5 -23 c 128,-1,2
 573 -23 573 -23 481 -12 c 1,3,-1
 486 -169 l 1,4,-1
 486 -507 l 1,5,-1
 168 -507 l 1,6,-1
 168 1661 l 1,7,-1
 480 1661 l 1,8,-1
 480 1224 l 1,9,-1
 472 1036 l 1,10,11
 598 1156 598 1156 791 1156 c 0,12,13
 985 1156 985 1156 1108 1022 c 1,14,15
 1245 875 1245 875 1245 612 c 0,16,17
 1245 329 1245 329 1080 152 c 1,18,0
 1001 69 1001 69 891.5 23 c 128,-1,1
695 923 m 0,19,20
 566 923 566 923 480 852 c 1,21,-1
 480 232 l 1,22,23
 517 193 517 193 656 193 c 0,24,25
 771 193 771 193 842 296 c 0,26,27
 918 405 918 405 918 598 c 0,28,29
 918 857 918 857 788 907 c 0,30,31
 746 923 746 923 695 923 c 0,19,20
EndSplineSet
EndChar

StartChar: Aogonek
Encoding: 260 260 219
Width: 1421
GlyphClass: 2
Flags: W
LayerCount: 2
Fore
SplineSet
1433 -448 m 1,0,1
 1340 -516 1340 -516 1203 -516 c 0,2,3
 1103 -516 1103 -516 1028 -464 c 0,4,5
 942 -403 942 -403 942 -300 c 0,6,7
 942 -119 942 -119 1158 0 c 1,8,-1
 1089 0 l 1,9,-1
 987 322 l 1,10,-1
 427 322 l 1,11,-1
 327 0 l 1,12,-1
 -15 0 l 1,13,-1
 547 1538 l 1,14,-1
 869 1538 l 1,15,-1
 1436 0 l 1,16,-1
 1365 0 l 1,17,18
 1271 -62 1271 -62 1241 -95 c 0,19,20
 1186 -155 1186 -155 1186 -210 c 0,21,22
 1186 -217 1186 -217 1187 -223 c 0,23,24
 1191 -311 1191 -311 1308 -311 c 0,25,26
 1362 -311 1362 -311 1433 -291 c 1,27,-1
 1433 -448 l 1,0,1
914 551 m 1,28,-1
 749 1073 l 1,29,-1
 706 1230 l 1,30,-1
 662 1073 l 1,31,-1
 499 551 l 1,32,-1
 914 551 l 1,28,-1
EndSplineSet
EndChar

StartChar: aogonek
Encoding: 261 261 220
Width: 1223
GlyphClass: 2
Flags: W
LayerCount: 2
Fore
SplineSet
771 96 m 1,0,1
 648 -16 648 -16 474 -16 c 0,2,3
 307 -16 307 -16 204 88 c 0,4,5
 102 192 102 192 102 355 c 0,6,7
 102 550 102 550 301 640 c 0,8,9
 449 706 449 706 758 706 c 1,10,-1
 758 778 l 2,11,12
 758 871 758 871 718 897 c 0,13,14
 676 924 676 924 532 924 c 0,15,16
 449 924 449 924 351.5 891.5 c 128,-1,17
 254 859 254 859 218 843 c 1,18,-1
 149 1043 l 1,19,20
 267 1113 267 1113 470 1150 c 0,21,22
 539 1162 539 1162 632.5 1162 c 128,-1,23
 726 1162 726 1162 813 1143.5 c 128,-1,24
 900 1125 900 1125 957 1078 c 0,25,26
 1070 983 1070 983 1070 745 c 2,27,-1
 1070 -16 l 1,28,-1
 991 -16 l 1,29,30
 912 -69 912 -69 885 -102 c 0,31,32
 833 -163 833 -163 836 -217.5 c 128,-1,33
 839 -272 839 -272 873.5 -291.5 c 128,-1,34
 908 -311 908 -311 960 -311 c 128,-1,35
 1012 -311 1012 -311 1083 -291 c 1,36,-1
 1083 -448 l 1,37,38
 989 -516 989 -516 853 -516 c 0,39,40
 753 -516 753 -516 678 -464 c 0,41,42
 592 -403 592 -403 592 -300 c 0,43,44
 592 -121 592 -121 803 -2 c 1,45,46
 771 16 771 16 771 88 c 2,47,-1
 771 96 l 1,0,1
424 352 m 0,48,49
 424 315 424 315 436 284.5 c 128,-1,50
 448 254 448 254 469 234 c 0,51,52
 510 195 510 195 581 195 c 0,53,54
 661 195 661 195 732 237 c 0,55,56
 750 248 750 248 758 258 c 1,57,-1
 758 530 l 1,58,59
 593 530 593 530 488 472 c 1,60,61
 424 438 424 438 424 352 c 0,48,49
EndSplineSet
EndChar

StartChar: dcroat
Encoding: 273 273 232
Width: 1339
GlyphClass: 2
Flags: W
LayerCount: 2
Fore
SplineSet
884 119 m 1,0,1
 749 -16 749 -16 549 -16 c 0,2,3
 355 -16 355 -16 232 120 c 1,4,5
 95 269 95 269 95 533 c 0,6,7
 95 815 95 815 255 986 c 0,8,9
 413 1156 413 1156 675 1156 c 0,10,11
 778 1156 778 1156 862 1124 c 1,12,-1
 859 1224 l 1,13,-1
 859 1293 l 1,14,-1
 632 1293 l 1,15,-1
 632 1473 l 1,16,-1
 859 1473 l 1,17,-1
 859 1662 l 1,18,-1
 1171 1662 l 1,19,-1
 1171 1473 l 1,20,-1
 1299 1473 l 1,21,-1
 1299 1293 l 1,22,-1
 1171 1293 l 1,23,-1
 1171 -16 l 1,24,-1
 959 -16 l 2,25,26
 925 -16 925 -16 904.5 -6 c 128,-1,27
 884 4 884 4 884 42 c 2,28,-1
 884 119 l 1,0,1
859 901 m 1,29,30
 812 934 812 934 720 934 c 128,-1,31
 628 934 628 934 580.5 911 c 128,-1,32
 533 888 533 888 498 842 c 0,33,34
 422 740 422 740 422 548 c 0,35,36
 422 293 422 293 552 243 c 0,37,38
 594 227 594 227 645 227 c 0,39,40
 769 227 769 227 859 287 c 1,41,-1
 859 901 l 1,29,30
EndSplineSet
EndChar

StartChar: Eogonek
Encoding: 280 280 239
Width: 1254
GlyphClass: 2
Flags: W
LayerCount: 2
Fore
SplineSet
1187 -448 m 1,0,1
 1094 -516 1094 -516 957 -516 c 0,2,3
 857 -516 857 -516 782 -464 c 0,4,5
 696 -403 696 -403 696 -300 c 0,6,7
 696 -119 696 -119 912 0 c 1,8,-1
 188 0 l 1,9,-1
 188 1522 l 1,10,-1
 1116 1522 l 1,11,-1
 1116 1278 l 1,12,-1
 506 1278 l 1,13,-1
 506 900 l 1,14,-1
 974 900 l 1,15,-1
 974 659 l 1,16,-1
 506 659 l 1,17,-1
 506 251 l 1,18,-1
 1181 251 l 1,19,-1
 1181 0 l 1,20,-1
 1119 0 l 1,21,22
 1025 -62 1025 -62 995 -95 c 0,23,24
 940 -155 940 -155 940 -210 c 0,25,26
 940 -217 940 -217 941 -223 c 0,27,28
 945 -311 945 -311 1062 -311 c 0,29,30
 1116 -311 1116 -311 1187 -291 c 1,31,-1
 1187 -448 l 1,0,1
EndSplineSet
EndChar

StartChar: eogonek
Encoding: 281 281 240
Width: 1190
GlyphClass: 2
Flags: W
LayerCount: 2
Fore
SplineSet
748 -9 m 1,0,1
 683 -16 683 -16 633 -16 c 0,2,3
 374 -16 374 -16 234 140 c 0,4,5
 95 294 95 294 95 574 c 0,6,7
 95 830 95 830 236 989 c 0,8,9
 385 1156 385 1156 647 1156 c 0,10,11
 950 1156 950 1156 1054 919 c 0,12,13
 1091 833 1091 833 1092 699 c 128,-1,14
 1093 565 1093 565 1082 495 c 1,15,-1
 407 495 l 1,16,17
 426 216 426 216 712 216 c 0,18,19
 824 216 824 216 903 239.5 c 128,-1,20
 982 263 982 263 1005 275 c 1,21,-1
 1056 98 l 1,22,-1
 974 34 l 1,23,24
 827 -91 827 -91 827 -223 c 1,25,26
 831 -311 831 -311 948 -311 c 0,27,28
 1002 -311 1002 -311 1073 -291 c 1,29,-1
 1073 -448 l 1,30,31
 980 -516 980 -516 843 -516 c 0,32,33
 743 -516 743 -516 668 -464 c 0,34,35
 581 -403 581 -403 581 -296 c 0,36,37
 581 -123 581 -123 748 -9 c 1,0,1
804 712 m 0,38,39
 804 934 804 934 630 934 c 0,40,41
 537 934 537 934 486 877 c 0,42,43
 428 811 428 811 413 668 c 1,44,-1
 803 668 l 1,45,46
 804 691 804 691 804 712 c 0,38,39
EndSplineSet
EndChar

StartChar: gcommaaccent
Encoding: 291 291 250
Width: 1305
GlyphClass: 2
Flags: W
LayerCount: 2
Fore
SplineSet
760 1782 m 1,0,1
 707 1719 707 1719 707 1629 c 0,2,3
 707 1546 707 1546 758 1497 c 0,4,5
 773 1482 773 1482 792 1478 c 1,6,-1
 792 1409 l 1,7,-1
 653 1288 l 1,8,9
 573 1296 573 1296 514 1366 c 0,10,11
 450 1441 450 1441 450 1549 c 0,12,13
 450 1661 450 1661 518 1756 c 0,14,15
 576 1838 576 1838 642 1856 c 1,16,-1
 760 1805 l 1,17,-1
 760 1782 l 1,0,1
512 415 m 1,18,19
 470 381 470 381 470 323 c 0,20,21
 470 255 470 255 544 246 c 0,22,23
 569 243 569 243 605 243 c 2,24,-1
 795 243 l 2,25,26
 1048 243 1048 243 1154 132 c 0,27,28
 1234 47 1234 47 1234 -102 c 0,29,30
 1234 -295 1234 -295 1050 -412 c 1,31,32
 883 -516 883 -516 649 -516 c 0,33,34
 641 -516 641 -516 572.5 -515.5 c 128,-1,35
 504 -515 504 -515 403 -493 c 128,-1,36
 302 -471 302 -471 233 -429 c 0,37,38
 91 -343 91 -343 91 -183 c 0,39,40
 91 -64 91 -64 197 14 c 0,41,42
 229 37 229 37 267 54 c 1,43,44
 174 100 174 100 174 228 c 0,45,46
 174 382 174 382 356 458 c 1,47,48
 247 505 247 505 184.5 587 c 128,-1,49
 122 669 122 669 122 775 c 0,50,51
 122 1156 122 1156 636 1156 c 0,52,53
 855 1156 855 1156 977 1073 c 1,54,55
 1050 1140 1050 1140 1161 1140 c 2,56,-1
 1288 1140 l 1,57,-1
 1288 914 l 1,58,-1
 1099 914 l 1,59,60
 1119 854 1119 854 1119 773 c 128,-1,61
 1119 692 1119 692 1085 621.5 c 128,-1,62
 1051 551 1051 551 986 504 c 0,63,64
 853 409 853 409 612 409 c 0,65,66
 560 409 560 409 512 415 c 1,18,19
824 775 m 0,67,68
 824 963 824 963 623.5 963 c 128,-1,69
 423 963 423 963 423 779 c 0,70,71
 423 696 423 696 472 648 c 128,-1,72
 521 600 521 600 617 600 c 0,73,74
 716 600 716 600 754 626 c 0,75,76
 824 675 824 675 824 775 c 0,67,68
443 2 m 1,77,78
 401 -38 401 -38 401 -97 c 128,-1,79
 401 -156 401 -156 413.5 -195 c 128,-1,80
 426 -234 426 -234 454 -264 c 0,81,82
 518 -332 518 -332 645 -332 c 0,83,84
 926 -332 926 -332 926 -164 c 0,85,86
 926 -76 926 -76 882 -42 c 0,87,88
 828 0 828 0 668 0 c 2,89,-1
 505 0 l 2,90,91
 473 0 473 0 443 2 c 1,77,78
EndSplineSet
EndChar

StartChar: Hbar
Encoding: 294 294 253
Width: 1621
GlyphClass: 2
Flags: W
LayerCount: 2
Fore
SplineSet
188 1045 m 1,0,-1
 24 1045 l 1,1,-1
 24 1237 l 1,2,-1
 188 1237 l 1,3,-1
 188 1522 l 1,4,-1
 510 1522 l 1,5,-1
 510 1237 l 1,6,-1
 1111 1237 l 1,7,-1
 1111 1522 l 1,8,-1
 1433 1522 l 1,9,-1
 1433 1237 l 1,10,-1
 1599 1237 l 1,11,-1
 1599 1045 l 1,12,-1
 1433 1045 l 1,13,-1
 1433 0 l 1,14,-1
 1111 0 l 1,15,-1
 1111 621 l 1,16,-1
 510 621 l 1,17,-1
 510 0 l 1,18,-1
 188 0 l 1,19,-1
 188 1045 l 1,0,-1
1111 854 m 1,20,-1
 1111 1045 l 1,21,-1
 510 1045 l 1,22,-1
 510 854 l 1,23,-1
 1111 854 l 1,20,-1
EndSplineSet
EndChar

StartChar: hbar
Encoding: 295 295 254
Width: 1351
GlyphClass: 2
Flags: W
LayerCount: 2
Fore
SplineSet
168 1293 m 1,0,-1
 36 1293 l 1,1,-1
 36 1473 l 1,2,-1
 168 1473 l 1,3,-1
 168 1662 l 1,4,-1
 480 1662 l 1,5,-1
 480 1473 l 1,6,-1
 703 1473 l 1,7,-1
 703 1293 l 1,8,-1
 480 1293 l 1,9,-1
 480 1224 l 1,10,-1
 463 1021 l 1,11,12
 569 1109 569 1109 715 1145 c 0,13,14
 774 1159 774 1159 843.5 1159 c 128,-1,15
 913 1159 913 1159 980 1137.5 c 128,-1,16
 1047 1116 1047 1116 1094 1062 c 0,17,18
 1189 955 1189 955 1189 710 c 2,19,-1
 1189 0 l 1,20,-1
 877 0 l 1,21,-1
 877 648 l 2,22,23
 877 789 877 789 840 842 c 256,24,25
 803 895 803 895 712 895 c 0,26,27
 626 895 626 895 536 848 c 0,28,29
 506 832 506 832 480 809 c 1,30,-1
 480 0 l 1,31,-1
 168 0 l 1,32,-1
 168 1293 l 1,0,-1
EndSplineSet
EndChar

StartChar: Iogonek
Encoding: 302 302 261
Width: 731
GlyphClass: 2
Flags: W
LayerCount: 2
Fore
SplineSet
532 -448 m 1,0,1
 439 -516 439 -516 302 -516 c 0,2,3
 202 -516 202 -516 126 -464 c 1,4,5
 41 -403 41 -403 41 -300 c 0,6,7
 41 -119 41 -119 257 0 c 1,8,-1
 201 0 l 1,9,-1
 201 1522 l 1,10,-1
 521 1522 l 1,11,-1
 521 0 l 1,12,-1
 464 0 l 1,13,14
 370 -62 370 -62 340 -95 c 0,15,16
 285 -155 285 -155 285 -210 c 0,17,18
 285 -217 285 -217 286 -223 c 0,19,20
 290 -311 290 -311 407 -311 c 0,21,22
 461 -311 461 -311 532 -291 c 1,23,-1
 532 -448 l 1,0,1
EndSplineSet
EndChar

StartChar: iogonek
Encoding: 303 303 262
Width: 660
GlyphClass: 2
Flags: W
LayerCount: 2
Fore
SplineSet
330 1307 m 0,0,1
 291 1307 291 1307 258 1319.5 c 128,-1,2
 225 1332 225 1332 200 1355 c 0,3,4
 148 1404 148 1404 148 1478 c 0,5,6
 148 1553 148 1553 208 1610 c 1,7,8
 268 1665 268 1665 347 1665 c 0,9,10
 428 1665 428 1665 478 1616 c 1,11,12
 527 1570 527 1570 527 1495 c 0,13,14
 527 1418 527 1418 468 1362 c 0,15,16
 409 1307 409 1307 330 1307 c 0,0,1
501 -448 m 1,17,18
 408 -516 408 -516 271 -516 c 0,19,20
 171 -516 171 -516 96 -464 c 0,21,22
 10 -403 10 -403 10 -300 c 0,23,24
 10 -119 10 -119 226 0 c 1,25,-1
 174 0 l 1,26,-1
 174 1140 l 1,27,-1
 486 1140 l 1,28,-1
 486 0 l 1,29,-1
 433 0 l 1,30,31
 339 -62 339 -62 309 -95 c 0,32,33
 254 -155 254 -155 254 -210 c 0,34,35
 254 -217 254 -217 255 -223 c 0,36,37
 259 -311 259 -311 376 -311 c 0,38,39
 430 -311 430 -311 501 -291 c 1,40,-1
 501 -448 l 1,17,18
EndSplineSet
EndChar

StartChar: dotlessi
Encoding: 305 305 264
Width: 660
GlyphClass: 2
Flags: W
LayerCount: 2
Fore
SplineSet
174 1140 m 1,0,-1
 486 1140 l 1,1,-1
 486 0 l 1,2,-1
 174 0 l 1,3,-1
 174 1140 l 1,0,-1
EndSplineSet
EndChar

StartChar: kgreenlandic
Encoding: 312 312 271
Width: 1241
GlyphClass: 2
Flags: W
LayerCount: 2
Fore
SplineSet
174 1140 m 1,0,-1
 486 1140 l 1,1,-1
 486 779 l 1,2,-1
 479 624 l 1,3,-1
 875 1140 l 1,4,-1
 1224 1140 l 1,5,-1
 814 666 l 1,6,-1
 1257 0 l 1,7,-1
 902 0 l 1,8,-1
 615 436 l 1,9,-1
 484 284 l 1,10,-1
 486 160 l 1,11,-1
 486 0 l 1,12,-1
 174 0 l 1,13,-1
 174 1140 l 1,0,-1
EndSplineSet
EndChar

StartChar: lacute
Encoding: 314 314 273
Width: 672
GlyphClass: 2
Flags: W
LayerCount: 2
Fore
SplineSet
180 1527 m 1,0,-1
 492 1527 l 1,1,-1
 492 0 l 1,2,-1
 180 0 l 1,3,-1
 180 1527 l 1,0,-1
182 1668 m 1,4,5
 210 1692 210 1692 289 1771 c 128,-1,6
 368 1850 368 1850 398 1882 c 0,7,8
 468 1957 468 1957 477 1980 c 1,9,-1
 694 1849 l 1,10,11
 578 1701 578 1701 414 1589 c 0,12,13
 365 1555 365 1555 328 1543 c 1,14,-1
 182 1668 l 1,4,5
EndSplineSet
EndChar

StartChar: Lslash
Encoding: 321 321 280
Width: 1120
GlyphClass: 2
Flags: W
LayerCount: 2
Fore
SplineSet
188 604 m 1,0,-1
 90 568 l 1,1,-1
 25 738 l 1,2,-1
 188 798 l 1,3,-1
 188 1522 l 1,4,-1
 506 1522 l 1,5,-1
 506 915 l 1,6,-1
 819 1031 l 1,7,-1
 884 859 l 1,8,-1
 506 720 l 1,9,-1
 506 242 l 1,10,-1
 1054 242 l 1,11,-1
 1054 0 l 1,12,-1
 188 0 l 1,13,-1
 188 604 l 1,0,-1
EndSplineSet
EndChar

StartChar: lslash
Encoding: 322 322 281
Width: 672
GlyphClass: 2
Flags: W
LayerCount: 2
Fore
SplineSet
180 714 m 1,0,-1
 30 659 l 1,1,-1
 30 854 l 1,2,-1
 180 912 l 1,3,-1
 180 1662 l 1,4,-1
 492 1662 l 1,5,-1
 492 1032 l 1,6,-1
 684 1106 l 1,7,-1
 684 900 l 1,8,-1
 492 829 l 1,9,-1
 492 0 l 1,10,-1
 180 0 l 1,11,-1
 180 714 l 1,0,-1
EndSplineSet
EndChar

StartChar: Eng
Encoding: 330 330 289
Width: 1620
GlyphClass: 2
Flags: W
LayerCount: 2
Fore
SplineSet
1431 409 m 1,0,-1
 1432 260 l 1,1,2
 1432 76 1432 76 1404 -23.5 c 128,-1,3
 1376 -123 1376 -123 1319 -195.5 c 128,-1,4
 1262 -268 1262 -268 1182 -321 c 0,5,6
 1015 -433 1015 -433 811 -441 c 1,7,-1
 741 -316 l 1,8,9
 878 -278 878 -278 987 -183 c 0,10,11
 1105 -81 1105 -81 1105 19 c 1,12,-1
 579 861 l 1,13,-1
 464 1092 l 1,14,-1
 502 741 l 1,15,-1
 502 0 l 1,16,-1
 188 0 l 1,17,-1
 187 1522 l 1,18,-1
 495 1522 l 1,19,-1
 1039 627 l 1,20,-1
 1151 404 l 1,21,-1
 1116 765 l 1,22,-1
 1116 1522 l 1,23,-1
 1431 1522 l 1,24,-1
 1431 409 l 1,0,-1
EndSplineSet
EndChar

StartChar: eng
Encoding: 331 331 290
Width: 1352
GlyphClass: 2
Flags: W
LayerCount: 2
Fore
SplineSet
641 -297 m 1,0,1
 670 -308 670 -308 726.5 -308 c 128,-1,2
 783 -308 783 -308 807 -299.5 c 128,-1,3
 831 -291 831 -291 847 -263 c 0,4,5
 878 -209 878 -209 878 -45 c 2,6,-1
 878 658 l 2,7,8
 878 800 878 800 844 852 c 0,9,10
 810 905 810 905 719 905 c 0,11,12
 634 905 634 905 542 854 c 0,13,14
 512 837 512 837 486 814 c 1,15,-1
 486 0 l 1,16,-1
 174 0 l 1,17,-1
 174 1138 l 1,18,-1
 457 1138 l 1,19,-1
 463 1018 l 1,20,21
 575 1103 575 1103 728 1143 c 0,22,23
 790 1159 790 1159 861 1159 c 128,-1,24
 932 1159 932 1159 995 1138.5 c 128,-1,25
 1058 1118 1058 1118 1102 1066 c 0,26,27
 1190 960 1190 960 1190 716 c 2,28,-1
 1190 -31 l 2,29,30
 1190 -274 1190 -274 1088 -398 c 0,31,32
 998 -507 998 -507 852 -507 c 128,-1,33
 706 -507 706 -507 641 -493 c 1,34,-1
 641 -297 l 1,0,1
EndSplineSet
EndChar

StartChar: OE
Encoding: 338 338 297
Width: 2133
GlyphClass: 2
Flags: W
LayerCount: 2
Fore
SplineSet
1054 41 m 1,0,1
 948 -16 948 -16 786.5 -16 c 128,-1,2
 625 -16 625 -16 497 42 c 0,3,4
 240 159 240 159 148 454 c 0,5,6
 106 589 106 589 106 748 c 0,7,8
 106 1125 106 1125 318 1340 c 0,9,10
 508 1534 508 1534 820 1538 c 1,11,12
 964 1538 964 1538 1054 1491 c 1,13,-1
 1054 1522 l 1,14,-1
 1982 1522 l 1,15,-1
 1982 1278 l 1,16,-1
 1372 1278 l 1,17,-1
 1372 904 l 1,18,-1
 1822 904 l 1,19,-1
 1822 663 l 1,20,-1
 1372 663 l 1,21,-1
 1372 251 l 1,22,-1
 2047 251 l 1,23,-1
 2047 0 l 1,24,-1
 1054 0 l 1,25,-1
 1054 41 l 1,0,1
1054 1190 m 1,26,27
 963 1296 963 1296 820 1296 c 0,28,29
 516 1296 516 1296 447 946 c 0,30,31
 431 864 431 864 431 751 c 128,-1,32
 431 638 431 638 455.5 539 c 128,-1,33
 480 440 480 440 527 370 c 0,34,35
 626 221 626 221 800 221 c 128,-1,36
 974 221 974 221 1054 319 c 1,37,-1
 1054 1190 l 1,26,27
EndSplineSet
EndChar

StartChar: oe
Encoding: 339 339 298
Width: 1962
GlyphClass: 2
Flags: W
LayerCount: 2
Fore
SplineSet
1023 125 m 1,0,1
 878 -16 878 -16 635 -16 c 0,2,3
 352 -16 352 -16 213 167 c 0,4,5
 96 321 96 321 96 578 c 0,6,7
 96 859 96 859 256 1012 c 0,8,9
 408 1156 408 1156 654.5 1156 c 128,-1,10
 901 1156 901 1156 1035 1013 c 1,11,12
 1180 1156 1180 1156 1419 1156 c 0,13,14
 1724 1156 1724 1156 1828 919 c 0,15,16
 1865 833 1865 833 1865 699 c 128,-1,17
 1865 565 1865 565 1854 495 c 1,18,-1
 1179 495 l 1,19,20
 1198 216 1198 216 1484 216 c 0,21,22
 1596 216 1596 216 1675 239.5 c 128,-1,23
 1754 263 1754 263 1777 275 c 1,24,-1
 1828 98 l 1,25,26
 1734 21 1734 21 1535 -7 c 0,27,28
 1471 -16 1471 -16 1405 -16 c 0,29,30
 1158 -16 1158 -16 1023 125 c 1,0,1
1576 712 m 0,31,32
 1576 934 1576 934 1402 934 c 0,33,34
 1309 934 1309 934 1258 877 c 0,35,36
 1200 811 1200 811 1185 668 c 1,37,-1
 1575 668 l 1,38,39
 1576 691 1576 691 1576 712 c 0,31,32
647 204 m 0,40,41
 873 204 873 204 873 561 c 0,42,43
 873 815 873 815 753 902 c 0,44,45
 710 933 710 933 648.5 933.5 c 128,-1,46
 587 934 587 934 543.5 911 c 128,-1,47
 500 888 500 888 472 844 c 0,48,49
 419 759 419 759 419 586 c 0,50,51
 419 325 419 325 538 236 c 0,52,53
 582 204 582 204 647 204 c 0,40,41
EndSplineSet
EndChar

StartChar: Scedilla
Encoding: 350 350 309
Width: 1207
GlyphClass: 2
Flags: W
LayerCount: 2
Fore
SplineSet
340 -271 m 1,0,1
 363 -285 363 -285 414.5 -285 c 128,-1,2
 466 -285 466 -285 500.5 -248.5 c 128,-1,3
 535 -212 535 -212 538 -135 c 0,4,5
 539 -116 539 -116 539 -98 c 0,6,7
 539 -50 539 -50 526 -13 c 1,8,9
 347 -2 347 -2 207 50 c 0,10,11
 170 63 170 63 152 74 c 1,12,-1
 197 329 l 1,13,14
 310 266 310 266 471 242 c 0,15,16
 528 233 528 233 590 233 c 128,-1,17
 652 233 652 233 695 243 c 128,-1,18
 738 253 738 253 764 272 c 0,19,20
 812 308 812 308 812 388 c 0,21,22
 812 466 812 466 752 518 c 0,23,24
 700 564 700 564 586 620.5 c 128,-1,25
 472 677 472 677 426.5 703.5 c 128,-1,26
 381 730 381 730 339 762 c 128,-1,27
 297 794 297 794 260.5 831.5 c 128,-1,28
 224 869 224 869 197 914 c 0,29,30
 139 1012 139 1012 139 1126 c 128,-1,31
 139 1240 139 1240 181.5 1318.5 c 128,-1,32
 224 1397 224 1397 297 1446 c 0,33,34
 436 1538 436 1538 670 1538 c 0,35,36
 864 1538 864 1538 1006 1478 c 0,37,38
 1043 1463 1043 1463 1063 1450 c 1,39,-1
 1011 1203 l 1,40,41
 860 1300 860 1300 679 1300 c 0,42,43
 451 1300 451 1300 451 1144 c 0,44,45
 451 1067 451 1067 513 1013 c 0,46,47
 558 974 558 974 681 908.5 c 128,-1,48
 804 843 804 843 880.5 796.5 c 128,-1,49
 957 750 957 750 1013 694 c 0,50,51
 1132 577 1132 577 1132 408 c 0,52,53
 1132 231 1132 231 1019 122 c 0,54,55
 910 16 910 16 720 -9 c 1,56,57
 755 -80 755 -80 755 -199 c 0,58,59
 755 -401 755 -401 596 -450 c 0,60,61
 550 -464 550 -464 514 -464 c 128,-1,62
 478 -464 478 -464 451 -462 c 128,-1,63
 424 -460 424 -460 398 -456 c 0,64,65
 336 -446 336 -446 320 -436 c 1,66,-1
 340 -271 l 1,0,1
EndSplineSet
Substitution2: "'locl' Localized Forms lookup 7 subtable" uni0218
Substitution2: "'locl' Localized Forms lookup 6 subtable" uni0218
Substitution2: "'aalt' Access All Alternates in Latin lookup 0 subtable" uni0218
EndChar

StartChar: scedilla
Encoding: 351 351 310
Width: 1048
GlyphClass: 2
Flags: W
LayerCount: 2
Fore
SplineSet
253 -271 m 1,0,1
 276 -285 276 -285 327.5 -285 c 128,-1,2
 379 -285 379 -285 413.5 -248.5 c 128,-1,3
 448 -212 448 -212 451 -135 c 0,4,5
 452 -116 452 -116 452 -98 c 0,6,7
 452 -50 452 -50 439 -13 c 1,8,9
 285 -1 285 -1 168 46 c 0,10,11
 135 59 135 59 115 72 c 1,12,-1
 147 304 l 1,13,14
 204 257 204 257 366 224 c 0,15,16
 419 214 419 214 493.5 214 c 128,-1,17
 568 214 568 214 610.5 235 c 128,-1,18
 653 256 653 256 653 307.5 c 128,-1,19
 653 359 653 359 592 397.5 c 128,-1,20
 531 436 531 436 429.5 469.5 c 128,-1,21
 328 503 328 503 273 538 c 128,-1,22
 218 573 218 573 184 616 c 0,23,24
 119 698 119 698 119 828 c 0,25,26
 119 985 119 985 250 1073 c 0,27,28
 375 1156 375 1156 579 1156 c 0,29,30
 792 1156 792 1156 900 1091 c 1,31,-1
 866 851 l 1,32,33
 810 900 810 900 684 922 c 0,34,35
 646 928 646 928 577 928 c 0,36,37
 419 928 419 928 417 838 c 1,38,39
 417 785 417 785 465.5 752 c 128,-1,40
 514 719 514 719 620.5 683 c 128,-1,41
 727 647 727 647 788 613.5 c 128,-1,42
 849 580 849 580 887 538 c 0,43,44
 960 459 960 459 960 322 c 128,-1,45
 960 185 960 185 872.5 100 c 128,-1,46
 785 15 785 15 632 -7 c 1,47,48
 668 -82 668 -82 668 -200 c 0,49,50
 668 -401 668 -401 508 -450 c 0,51,52
 463 -464 463 -464 427 -464 c 128,-1,53
 391 -464 391 -464 364 -462 c 128,-1,54
 337 -460 337 -460 311 -456 c 0,55,56
 249 -446 249 -446 233 -436 c 1,57,-1
 253 -271 l 1,0,1
EndSplineSet
Substitution2: "'locl' Localized Forms lookup 7 subtable" uni0219
Substitution2: "'locl' Localized Forms lookup 6 subtable" uni0219
Substitution2: "'aalt' Access All Alternates in Latin lookup 0 subtable" uni0219
EndChar

StartChar: uni0162
Encoding: 354 354 313
Width: 1250
GlyphClass: 2
Flags: W
LayerCount: 2
Fore
SplineSet
332 -271 m 1,0,1
 355 -285 355 -285 406.5 -285 c 128,-1,2
 458 -285 458 -285 492.5 -248.5 c 128,-1,3
 527 -212 527 -212 530 -135 c 0,4,5
 531 -117 531 -117 531 -80.5 c 128,-1,6
 531 -44 531 -44 514 0 c 1,7,-1
 466 0 l 1,8,-1
 466 1278 l 1,9,-1
 30 1278 l 1,10,-1
 30 1522 l 1,11,-1
 1220 1522 l 1,12,-1
 1220 1278 l 1,13,-1
 786 1278 l 1,14,-1
 786 0 l 1,15,-1
 708 0 l 1,16,17
 752 -79 752 -79 747 -221 c 0,18,19
 743 -342 743 -342 668 -406 c 0,20,21
 600 -464 600 -464 492 -464 c 0,22,23
 416 -464 416 -464 368.5 -453 c 128,-1,24
 321 -442 321 -442 312 -436 c 1,25,-1
 332 -271 l 1,0,1
EndSplineSet
Substitution2: "'locl' Localized Forms lookup 7 subtable" uni021A
Substitution2: "'aalt' Access All Alternates in Latin lookup 0 subtable" uni021A
EndChar

StartChar: uni0163
Encoding: 355 355 314
Width: 913
GlyphClass: 2
Flags: W
LayerCount: 2
Fore
SplineSet
237 -271 m 1,0,1
 260 -285 260 -285 311.5 -285 c 128,-1,2
 363 -285 363 -285 397.5 -248.5 c 128,-1,3
 432 -212 432 -212 435 -135 c 0,4,5
 436 -117 436 -117 436 -98 c 0,6,7
 436 -51 436 -51 421 -7 c 1,8,9
 256 25 256 25 222 200 c 0,10,11
 211 259 211 259 211 339 c 2,12,-1
 211 924 l 1,13,-1
 74 924 l 1,14,-1
 74 1093 l 1,15,16
 170 1122 170 1122 193 1133 c 0,17,18
 240 1157 240 1157 256 1197 c 0,19,20
 291 1283 291 1283 333 1400 c 1,21,-1
 523 1400 l 1,22,-1
 523 1140 l 1,23,-1
 832 1140 l 1,24,-1
 832 924 l 1,25,-1
 523 924 l 1,26,-1
 523 466 l 2,27,28
 523 304 523 304 552 256 c 0,29,30
 567 231 567 231 592 225 c 128,-1,31
 617 219 617 219 645 219 c 128,-1,32
 673 219 673 219 698 223 c 128,-1,33
 723 227 723 227 748 234 c 0,34,35
 803 248 803 248 830 267 c 1,36,-1
 868 92 l 1,37,38
 779 14 779 14 617 -9 c 1,39,40
 652 -82 652 -82 652 -199 c 0,41,42
 652 -401 652 -401 492 -450 c 0,43,44
 447 -464 447 -464 411 -464 c 128,-1,45
 375 -464 375 -464 348 -462 c 128,-1,46
 321 -460 321 -460 295 -456 c 0,47,48
 233 -446 233 -446 217 -436 c 1,49,-1
 237 -271 l 1,0,1
EndSplineSet
Substitution2: "'locl' Localized Forms lookup 7 subtable" uni021B
Substitution2: "'aalt' Access All Alternates in Latin lookup 0 subtable" uni021B
EndChar

StartChar: Tbar
Encoding: 358 358 317
Width: 1250
GlyphClass: 2
Flags: W
LayerCount: 2
Fore
SplineSet
466 597 m 1,0,-1
 193 597 l 1,1,-1
 193 796 l 1,2,-1
 466 796 l 1,3,-1
 466 1278 l 1,4,-1
 30 1278 l 1,5,-1
 30 1522 l 1,6,-1
 1220 1522 l 1,7,-1
 1220 1278 l 1,8,-1
 786 1278 l 1,9,-1
 786 796 l 1,10,-1
 1075 796 l 1,11,-1
 1075 597 l 1,12,-1
 786 597 l 1,13,-1
 786 0 l 1,14,-1
 466 0 l 1,15,-1
 466 597 l 1,0,-1
EndSplineSet
EndChar

StartChar: tbar
Encoding: 359 359 318
Width: 913
GlyphClass: 2
Flags: W
LayerCount: 2
Fore
SplineSet
211 523 m 1,0,-1
 81 523 l 1,1,-1
 81 737 l 1,2,-1
 211 737 l 1,3,-1
 211 924 l 1,4,-1
 74 924 l 1,5,-1
 74 1093 l 1,6,7
 170 1122 170 1122 193 1133 c 0,8,9
 240 1157 240 1157 256 1197 c 0,10,11
 291 1283 291 1283 333 1400 c 1,12,-1
 523 1400 l 1,13,-1
 523 1140 l 1,14,-1
 832 1140 l 1,15,-1
 832 924 l 1,16,-1
 523 924 l 1,17,-1
 523 737 l 1,18,-1
 839 737 l 1,19,-1
 839 523 l 1,20,-1
 523 523 l 1,21,-1
 523 466 l 2,22,23
 523 304 523 304 552 256 c 0,24,25
 567 231 567 231 592 225 c 128,-1,26
 617 219 617 219 645 219 c 128,-1,27
 673 219 673 219 698 223 c 128,-1,28
 723 227 723 227 748 234 c 0,29,30
 803 248 803 248 830 267 c 1,31,-1
 868 92 l 1,32,33
 786 22 786 22 638 -6 c 0,34,35
 584 -16 584 -16 512.5 -16 c 128,-1,36
 441 -16 441 -16 381 3.5 c 128,-1,37
 321 23 321 23 284 66 c 0,38,39
 211 148 211 148 211 339 c 2,40,-1
 211 523 l 1,0,-1
EndSplineSet
EndChar

StartChar: Uogonek
Encoding: 370 370 329
Width: 1525
GlyphClass: 2
Flags: W
LayerCount: 2
Fore
SplineSet
776 -15 m 1,0,-1
 758 -16 l 1,1,2
 278 -16 278 -16 180 378 c 0,3,4
 150 502 150 502 150 653 c 2,5,-1
 152 1522 l 1,6,-1
 467 1522 l 1,7,-1
 465 670 l 2,8,9
 465 418 465 418 542 321 c 0,10,11
 609 238 609 238 767 238 c 0,12,13
 918 238 918 238 986 327 c 0,14,15
 1063 427 1063 427 1063 670 c 2,16,-1
 1063 1522 l 1,17,-1
 1376 1522 l 1,18,-1
 1376 640 l 2,19,20
 1376 130 1376 130 994 16 c 1,21,22
 866 -102 866 -102 866 -223 c 1,23,24
 870 -311 870 -311 987 -311 c 0,25,26
 1041 -311 1041 -311 1112 -291 c 1,27,-1
 1112 -448 l 1,28,29
 1018 -516 1018 -516 882 -516 c 0,30,31
 784 -516 784 -516 706 -454 c 1,32,33
 620 -384 620 -384 620 -276 c 0,34,35
 620 -123 620 -123 776 -15 c 1,0,-1
EndSplineSet
EndChar

StartChar: uogonek
Encoding: 371 371 330
Width: 1326
GlyphClass: 2
Flags: W
LayerCount: 2
Fore
SplineSet
904 -12 m 1,0,1
 870 -2 870 -2 870 42 c 2,2,-1
 870 93 l 1,3,4
 768 20 768 20 624 -8 c 0,5,6
 579 -16 579 -16 537 -16 c 0,7,8
 311 -16 311 -16 227 120 c 0,9,10
 162 224 162 224 162 474 c 2,11,-1
 162 1140 l 1,12,-1
 474 1140 l 1,13,-1
 474 477 l 2,14,15
 474 321 474 321 516 268 c 0,16,17
 552 223 552 223 649 223 c 0,18,19
 727 223 727 223 806 266 c 0,20,21
 827 278 827 278 840 288 c 1,22,-1
 840 1140 l 1,23,-1
 1152 1140 l 1,24,-1
 1152 -16 l 1,25,-1
 1107 -16 l 1,26,27
 1028 -69 1028 -69 1001 -102 c 0,28,29
 949 -163 949 -163 952 -217.5 c 128,-1,30
 955 -272 955 -272 989.5 -291.5 c 128,-1,31
 1024 -311 1024 -311 1076 -311 c 128,-1,32
 1128 -311 1128 -311 1199 -291 c 1,33,-1
 1199 -448 l 1,34,35
 1106 -516 1106 -516 969 -516 c 0,36,37
 869 -516 869 -516 794 -464 c 0,38,39
 708 -403 708 -403 708 -299 c 0,40,41
 708 -131 708 -131 904 -12 c 1,0,1
EndSplineSet
EndChar

StartChar: florin
Encoding: 402 402 342
Width: 1179
GlyphClass: 2
Flags: W
LayerCount: 2
Fore
SplineSet
1079 1434 m 1,0,1
 1043 1457 1043 1457 963 1457 c 128,-1,2
 883 1457 883 1457 850 1444.5 c 128,-1,3
 817 1432 817 1432 792 1404 c 1,4,5
 736 1345 736 1345 725 1229 c 1,6,-1
 715 1140 l 1,7,-1
 989 1140 l 1,8,-1
 972 924 l 1,9,-1
 697 924 l 1,10,-1
 587 -356 l 1,11,-1
 273 -356 l 1,12,-1
 384 924 l 1,13,-1
 208 924 l 1,14,-1
 222 1102 l 1,15,-1
 401 1140 l 1,16,-1
 410 1223 l 1,17,18
 434 1464 434 1464 587 1584 c 0,19,20
 715 1684 715 1684 913 1684 c 0,21,22
 1052 1684 1052 1684 1097 1663 c 1,23,-1
 1079 1434 l 1,0,1
EndSplineSet
EndChar

StartChar: dotlessj
Encoding: 567 567 349
Width: 644
GlyphClass: 2
Flags: W
LayerCount: 2
Fore
SplineSet
-104 -282 m 1,0,1
 -53 -304 -53 -304 2.5 -304 c 128,-1,2
 58 -304 58 -304 89 -288.5 c 128,-1,3
 120 -273 120 -273 138 -238 c 0,4,5
 174 -169 174 -169 174 1 c 2,6,-1
 174 1140 l 1,7,-1
 486 1140 l 1,8,-1
 486 82 l 2,9,10
 486 -373 486 -373 245 -474 c 0,11,12
 168 -507 168 -507 71 -507 c 0,13,14
 20 -507 20 -507 -37.5 -497 c 128,-1,15
 -95 -487 -95 -487 -104 -483 c 1,16,-1
 -104 -282 l 1,0,1
EndSplineSet
EndChar

StartChar: circumflex
Encoding: 710 710 350
Width: 878
GlyphClass: 2
Flags: W
LayerCount: 2
Fore
SplineSet
43 1326 m 1,0,-1
 329 1699 l 1,1,-1
 552 1699 l 1,2,-1
 835 1327 l 1,3,-1
 674 1237 l 1,4,-1
 441 1483 l 1,5,-1
 199 1237 l 1,6,-1
 43 1326 l 1,0,-1
EndSplineSet
EndChar

StartChar: caron
Encoding: 711 711 351
Width: 834
GlyphClass: 2
Flags: W
LayerCount: 2
Fore
SplineSet
43 1610 m 1,0,-1
 199 1699 l 1,1,-1
 441 1453 l 1,2,-1
 674 1699 l 1,3,-1
 835 1609 l 1,4,-1
 552 1237 l 1,5,-1
 329 1237 l 1,6,-1
 43 1610 l 1,0,-1
EndSplineSet
EndChar

StartChar: uni02c9
Encoding: 713 713 352
Width: 701
GlyphClass: 2
Flags: W
LayerCount: 2
Fore
SplineSet
55 1973 m 1,0,-1
 646 1973 l 1,1,-1
 646 1767 l 1,2,-1
 55 1767 l 1,3,-1
 55 1973 l 1,0,-1
EndSplineSet
EndChar

StartChar: breve
Encoding: 728 728 353
Width: 815
GlyphClass: 2
Flags: W
LayerCount: 2
Fore
SplineSet
560.5 1329 m 128,-1,1
 492 1298 492 1298 405.5 1298 c 128,-1,2
 319 1298 319 1298 250 1329 c 0,3,4
 113 1391 113 1391 64 1536 c 0,5,6
 44 1598 44 1598 44 1637 c 128,-1,7
 44 1676 44 1676 44 1685 c 1,8,-1
 240 1685 l 1,9,10
 246 1579 246 1579 317 1536 c 0,11,12
 350 1516 350 1516 408 1516 c 128,-1,13
 466 1516 466 1516 499 1536 c 128,-1,14
 532 1556 532 1556 550 1584 c 1,15,16
 571 1619 571 1619 579 1685 c 1,17,-1
 772 1685 l 1,18,19
 772 1677 772 1677 772 1637.5 c 128,-1,20
 772 1598 772 1598 748.5 1531.5 c 128,-1,21
 725 1465 725 1465 677 1412.5 c 128,-1,0
 629 1360 629 1360 560.5 1329 c 128,-1,1
EndSplineSet
EndChar

StartChar: dotaccent
Encoding: 729 729 354
Width: 489
GlyphClass: 2
Flags: W
LayerCount: 2
Fore
SplineSet
237 1307 m 0,0,1
 198 1307 198 1307 165 1319.5 c 128,-1,2
 132 1332 132 1332 108 1355 c 0,3,4
 55 1404 55 1404 55 1478 c 0,5,6
 55 1553 55 1553 116 1610 c 0,7,8
 175 1665 175 1665 254 1665 c 0,9,10
 335 1665 335 1665 386 1616 c 0,11,12
 434 1570 434 1570 434 1495 c 0,13,14
 434 1418 434 1418 375 1362 c 0,15,16
 316 1307 316 1307 237 1307 c 0,0,1
EndSplineSet
EndChar

StartChar: ring
Encoding: 730 730 355
Width: 767
GlyphClass: 2
Flags: W
LayerCount: 2
Fore
SplineSet
508 1330.5 m 128,-1,1
 446 1314 446 1314 372.5 1314 c 128,-1,2
 299 1314 299 1314 236 1334 c 0,3,4
 109 1376 109 1376 64 1486 c 0,5,6
 42 1538 42 1538 42 1571 c 0,7,8
 42 1682 42 1682 73.5 1736.5 c 128,-1,9
 105 1791 105 1791 154 1824 c 0,10,11
 247 1888 247 1888 389 1888 c 0,12,13
 632 1888 632 1888 702 1726 c 0,14,15
 725 1673 725 1673 724.5 1600 c 128,-1,16
 724 1527 724 1527 695 1472.5 c 128,-1,17
 666 1418 666 1418 618 1382.5 c 128,-1,0
 570 1347 570 1347 508 1330.5 c 128,-1,1
383 1742 m 0,18,19
 226 1742 226 1742 226 1607 c 0,20,21
 226 1545 226 1545 270 1505 c 0,22,23
 313 1466 313 1466 366 1466 c 128,-1,24
 419 1466 419 1466 448 1472 c 128,-1,25
 477 1478 477 1478 498 1494 c 0,26,27
 542 1526 542 1526 542 1600 c 0,28,29
 542 1699 542 1699 446 1732 c 0,30,31
 417 1742 417 1742 383 1742 c 0,18,19
EndSplineSet
EndChar

StartChar: ogonek
Encoding: 731 731 356
Width: 652
GlyphClass: 2
Flags: W
LayerCount: 2
Fore
SplineSet
576 -445 m 1,0,1
 475 -515 475 -515 321 -515 c 0,2,3
 155 -515 155 -515 87 -410 c 0,4,5
 62 -370 62 -370 62 -317 c 128,-1,6
 62 -264 62 -264 80 -218.5 c 128,-1,7
 98 -173 98 -173 132 -132 c 0,8,9
 193 -60 193 -60 294 -7 c 1,10,-1
 413 9 l 1,11,-1
 532 19 l 1,12,13
 367 -71 367 -71 314 -174 c 0,14,15
 297 -208 297 -208 297 -228.5 c 128,-1,16
 297 -249 297 -249 297 -254 c 0,17,18
 301 -338 301 -338 418 -338 c 0,19,20
 469 -338 469 -338 567 -310 c 1,21,-1
 576 -445 l 1,0,1
EndSplineSet
EndChar

StartChar: tilde
Encoding: 732 732 357
Width: 937
GlyphClass: 2
Flags: W
LayerCount: 2
Fore
SplineSet
311 1477 m 0,0,1
 241 1477 241 1477 157 1375 c 1,2,-1
 32 1473 l 1,3,4
 85 1629 85 1629 228 1682 c 0,5,6
 276 1699 276 1699 326 1699 c 128,-1,7
 376 1699 376 1699 407.5 1689.5 c 128,-1,8
 439 1680 439 1680 463 1665.5 c 128,-1,9
 487 1651 487 1651 506 1634 c 128,-1,10
 525 1617 525 1617 544 1602 c 0,11,12
 586 1569 586 1569 627 1569 c 0,13,14
 700 1569 700 1569 782 1680 c 1,15,-1
 908 1572 l 1,16,17
 852 1410 852 1410 716 1361 c 0,18,19
 668 1344 668 1344 619 1344 c 128,-1,20
 570 1344 570 1344 540 1354 c 128,-1,21
 510 1364 510 1364 486.5 1378.5 c 128,-1,22
 463 1393 463 1393 443 1410.5 c 128,-1,23
 423 1428 423 1428 404 1442 c 0,24,25
 357 1477 357 1477 311 1477 c 0,0,1
EndSplineSet
EndChar

StartChar: hungarumlaut
Encoding: 733 733 358
Width: 1045
GlyphClass: 2
Flags: W
LayerCount: 2
Fore
SplineSet
57 1414 m 1,0,-1
 327 1821 l 1,1,-1
 522 1684 l 1,2,3
 450 1567 450 1567 299 1416 c 0,4,5
 230 1347 230 1347 184 1321 c 1,6,-1
 57 1414 l 1,0,-1
576 1414 m 1,7,-1
 848 1817 l 1,8,-1
 1044 1681 l 1,9,10
 963 1555 963 1555 816 1412 c 0,11,12
 744 1342 744 1342 698 1321 c 1,13,-1
 576 1414 l 1,7,-1
EndSplineSet
EndChar

StartChar: pi
Encoding: 960 960 362
Width: 1600
GlyphClass: 2
Flags: W
LayerCount: 2
Fore
SplineSet
1181 310 m 0,0,1
 1181 202 1181 202 1240 202 c 0,2,3
 1312 202 1312 202 1385 299 c 0,4,5
 1403 323 1403 323 1417 341 c 1,6,-1
 1532 219 l 1,7,8
 1497 122 1497 122 1396 54 c 0,9,10
 1281 -24 1281 -24 1132 -24 c 0,11,12
 1006 -24 1006 -24 950 64 c 0,13,14
 909 128 909 128 909 234 c 0,15,16
 909 256 909 256 911 279 c 2,17,-1
 965 887 l 1,18,-1
 692 887 l 1,19,-1
 668 428 l 2,20,21
 659 268 659 268 630.5 206 c 128,-1,22
 602 144 602 144 576 113.5 c 128,-1,23
 550 83 550 83 518 54 c 0,24,25
 442 -13 442 -13 334 -24 c 1,26,-1
 158 114 l 1,27,28
 202 124 202 124 248 159.5 c 128,-1,29
 294 195 294 195 319 229 c 128,-1,30
 344 263 344 263 360 303 c 0,31,32
 386 372 386 372 397 487 c 1,33,-1
 439 887 l 1,34,-1
 374 887 l 2,35,36
 306 887 306 887 270 866 c 0,37,38
 228 842 228 842 187 804 c 1,39,-1
 67 881 l 1,40,41
 77 999 77 999 164 1072 c 0,42,43
 245 1140 245 1140 409 1140 c 2,44,-1
 1218 1140 l 2,45,46
 1304 1140 1304 1140 1329 1180 c 0,47,48
 1338 1195 1338 1195 1345 1215 c 1,49,-1
 1539 1215 l 1,50,51
 1527 958 1527 958 1358 905 c 0,52,53
 1300 887 1300 887 1222 887 c 2,54,-1
 1206 887 l 1,55,-1
 1181 329 l 2,56,57
 1181 319 1181 319 1181 310 c 0,0,1
EndSplineSet
EndChar

StartChar: endash
Encoding: 8211 8211 385
Width: 1702
GlyphClass: 2
Flags: W
LayerCount: 2
Fore
SplineSet
245 889 m 1,0,-1
 1457 889 l 1,1,-1
 1457 644 l 1,2,-1
 245 644 l 1,3,-1
 245 889 l 1,0,-1
EndSplineSet
EndChar

StartChar: emdash
Encoding: 8212 8212 386
Width: 2413
GlyphClass: 2
Flags: W
LayerCount: 2
Fore
SplineSet
245 889 m 1,0,-1
 2168 889 l 1,1,-1
 2168 644 l 1,2,-1
 245 644 l 1,3,-1
 245 889 l 1,0,-1
EndSplineSet
EndChar

StartChar: quoteleft
Encoding: 8216 8216 387
Width: 560
GlyphClass: 2
Flags: W
LayerCount: 2
Fore
SplineSet
279 940 m 1,0,1
 201 967 201 967 150 1058 c 1,2,3
 94 1154 94 1154 94 1265.5 c 128,-1,4
 94 1377 94 1377 116.5 1451.5 c 128,-1,5
 139 1526 139 1526 172 1583 c 1,6,7
 229 1685 229 1685 298 1736 c 1,8,-1
 428 1653 l 1,9,-1
 428 1625 l 1,10,11
 379 1570 379 1570 362 1431 c 0,12,13
 358 1392 358 1392 358 1354 c 128,-1,14
 358 1316 358 1316 366.5 1278.5 c 128,-1,15
 375 1241 375 1241 388 1212 c 0,16,17
 415 1153 415 1153 448 1135 c 1,18,-1
 448 1064 l 1,19,-1
 279 940 l 1,0,1
EndSplineSet
EndChar

StartChar: quoteright
Encoding: 8217 8217 388
Width: 560
GlyphClass: 2
Flags: W
LayerCount: 2
Fore
SplineSet
114 1023 m 1,0,-1
 114 1051 l 1,1,2
 163 1109 163 1109 178 1245 c 0,3,4
 183 1284 183 1284 183 1322.5 c 128,-1,5
 183 1361 183 1361 174.5 1398 c 128,-1,6
 166 1435 166 1435 153 1464 c 0,7,8
 126 1524 126 1524 94 1541 c 1,9,-1
 94 1612 l 1,10,-1
 263 1736 l 1,11,12
 340 1708 340 1708 392 1619 c 0,13,14
 448 1522 448 1522 448 1411 c 128,-1,15
 448 1300 448 1300 425.5 1225 c 128,-1,16
 403 1150 403 1150 370 1093 c 0,17,18
 316 997 316 997 244 940 c 1,19,-1
 114 1023 l 1,0,-1
EndSplineSet
EndChar

StartChar: quotereversed
Encoding: 8219 8219 390
Width: 560
GlyphClass: 2
Flags: W
LayerCount: 2
Fore
SplineSet
298 940 m 1,0,1
 172 1040 172 1040 116 1225 c 0,2,3
 94 1300 94 1300 94 1379.5 c 128,-1,4
 94 1459 94 1459 109 1517 c 128,-1,5
 124 1575 124 1575 150 1619 c 0,6,7
 202 1709 202 1709 279 1736 c 1,8,-1
 448 1612 l 1,9,-1
 448 1541 l 1,10,11
 393 1511 393 1511 366 1398 c 0,12,13
 358 1361 358 1361 358 1322.5 c 128,-1,14
 358 1284 358 1284 362.5 1245 c 128,-1,15
 367 1206 367 1206 376 1169 c 0,16,17
 396 1087 396 1087 428 1051 c 1,18,-1
 428 1023 l 1,19,-1
 298 940 l 1,0,1
EndSplineSet
EndChar

StartChar: dagger
Encoding: 8224 8224 394
Width: 1036
GlyphClass: 2
Flags: W
LayerCount: 2
Fore
SplineSet
390 1077 m 1,0,-1
 107 1076 l 1,1,-1
 108 1288 l 1,2,-1
 390 1286 l 1,3,-1
 390 1658 l 1,4,-1
 646 1658 l 1,5,-1
 646 1286 l 1,6,-1
 929 1288 l 1,7,-1
 929 1076 l 1,8,-1
 646 1077 l 1,9,-1
 634 200 l 1,10,-1
 406 200 l 1,11,-1
 390 1077 l 1,0,-1
EndSplineSet
EndChar

StartChar: daggerdbl
Encoding: 8225 8225 395
Width: 1036
GlyphClass: 2
Flags: W
LayerCount: 2
Fore
SplineSet
107 639 m 1,0,-1
 390 639 l 1,1,-1
 390 1077 l 1,2,-1
 107 1076 l 1,3,-1
 108 1288 l 1,4,-1
 390 1287 l 1,5,-1
 390 1658 l 1,6,-1
 645 1658 l 1,7,-1
 645 1287 l 1,8,-1
 929 1288 l 1,9,-1
 929 1076 l 1,10,-1
 645 1077 l 1,11,-1
 645 639 l 1,12,-1
 928 639 l 1,13,-1
 928 427 l 1,14,-1
 645 428 l 1,15,-1
 624 -356 l 1,16,-1
 405 -356 l 1,17,-1
 390 428 l 1,18,-1
 107 427 l 1,19,-1
 107 639 l 1,0,-1
EndSplineSet
EndChar

StartChar: bullet
Encoding: 8226 8226 396
Width: 905
GlyphClass: 2
Flags: W
LayerCount: 2
Fore
SplineSet
442 467 m 0,0,1
 387 467 387 467 340 487 c 0,2,3
 243 528 243 528 205 624 c 0,4,5
 187 669 187 669 187 695.5 c 128,-1,6
 187 722 187 722 187.5 751 c 128,-1,7
 188 780 188 780 211 829 c 128,-1,8
 234 878 234 878 272 915 c 0,9,10
 353 995 353 995 464 995 c 256,11,12
 575 995 575 995 648 922 c 0,13,14
 718 852 718 852 718 744 c 0,15,16
 718 630 718 630 634 548 c 0,17,18
 552 467 552 467 442 467 c 0,0,1
EndSplineSet
EndChar

StartChar: ellipsis
Encoding: 8230 8230 397
Width: 1903
GlyphClass: 2
Flags: W
LayerCount: 2
Fore
SplineSet
1388 172 m 0,0,1
 1388 213 1388 213 1404 251.5 c 128,-1,2
 1420 290 1420 290 1448 320 c 0,3,4
 1507 383 1507 383 1592 383 c 0,5,6
 1676 383 1676 383 1728 328 c 1,7,8
 1777 274 1777 274 1777 191 c 0,9,10
 1777 188 1777 188 1777 167 c 128,-1,11
 1777 146 1777 146 1762 108.5 c 128,-1,12
 1747 71 1747 71 1720 42 c 0,13,14
 1660 -22 1660 -22 1575 -22 c 0,15,16
 1495 -22 1495 -22 1442 33 c 0,17,18
 1388 89 1388 89 1388 172 c 0,0,1
757 172 m 0,19,20
 757 213 757 213 773 251.5 c 128,-1,21
 789 290 789 290 816 320 c 1,22,23
 876 383 876 383 961 383 c 0,24,25
 1045 383 1045 383 1096 328 c 0,26,27
 1146 274 1146 274 1146 191 c 0,28,29
 1146 188 1146 188 1146 167 c 128,-1,30
 1146 146 1146 146 1131 108.5 c 128,-1,31
 1116 71 1116 71 1088 42 c 0,32,33
 1029 -22 1029 -22 944 -22 c 0,34,35
 864 -22 864 -22 811 33 c 0,36,37
 757 89 757 89 757 172 c 0,19,20
126 172 m 0,38,39
 126 213 126 213 142 251.5 c 128,-1,40
 158 290 158 290 186 320 c 0,41,42
 245 383 245 383 330 383 c 0,43,44
 414 383 414 383 466 328 c 1,45,46
 515 274 515 274 515 191 c 0,47,48
 515 188 515 188 515 167 c 128,-1,49
 515 146 515 146 500 108.5 c 128,-1,50
 485 71 485 71 458 42 c 0,51,52
 398 -22 398 -22 313 -22 c 0,53,54
 233 -22 233 -22 180 33 c 0,55,56
 126 89 126 89 126 172 c 0,38,39
EndSplineSet
EndChar

StartChar: perthousand
Encoding: 8240 8240 398
Width: 3111
GlyphClass: 3
Flags: W
LayerCount: 2
Fore
SplineSet
2184 464 m 0,0,1
 2184 565 2184 565 2219.5 649 c 128,-1,2
 2255 733 2255 733 2314 790 c 0,3,4
 2437 909 2437 909 2619 909 c 0,5,6
 2810 909 2810 909 2914 780 c 0,7,8
 3008 663 3008 663 3008 464 c 0,9,10
 3008 255 3008 255 2878 130 c 0,11,12
 2757 14 2757 14 2579 12 c 1,13,14
 2388 12 2388 12 2282 142 c 1,15,16
 2184 264 2184 264 2184 464 c 0,0,1
2433 466 m 0,17,18
 2433 288 2433 288 2526 229 c 0,19,20
 2556 210 2556 210 2594 210 c 0,21,22
 2674 210 2674 210 2716 275.5 c 128,-1,23
 2758 341 2758 341 2758 427.5 c 128,-1,24
 2758 514 2758 514 2747.5 561 c 128,-1,25
 2737 608 2737 608 2716 642 c 0,26,27
 2674 713 2674 713 2596 713 c 128,-1,28
 2518 713 2518 713 2475.5 647 c 128,-1,29
 2433 581 2433 581 2433 466 c 0,17,18
1267 1530 m 1,30,-1
 1514 1530 l 1,31,-1
 921 0 l 1,32,-1
 675 0 l 1,33,-1
 1267 1530 l 1,30,-1
799 748.5 m 128,-1,35
 672 627 672 627 489 627 c 128,-1,36
 306 627 306 627 204.5 752.5 c 128,-1,37
 103 878 103 878 103 1078 c 128,-1,38
 103 1278 103 1278 229.5 1400.5 c 128,-1,39
 356 1523 356 1523 543 1523 c 128,-1,40
 730 1523 730 1523 828 1399.5 c 128,-1,41
 926 1276 926 1276 926 1073 c 128,-1,34
 926 870 926 870 799 748.5 c 128,-1,35
512 824 m 0,42,43
 592 824 592 824 634.5 889.5 c 128,-1,44
 677 955 677 955 677 1041.5 c 128,-1,45
 677 1128 677 1128 666 1175.5 c 128,-1,46
 655 1223 655 1223 634 1256 c 0,47,48
 591 1327 591 1327 513.5 1327 c 128,-1,49
 436 1327 436 1327 394 1261 c 128,-1,50
 352 1195 352 1195 352 1080 c 0,51,52
 352 901 352 901 444 843 c 0,53,54
 474 824 474 824 512 824 c 0,42,43
1261 464 m 0,55,56
 1261 565 1261 565 1296.5 649 c 128,-1,57
 1332 733 1332 733 1392 790 c 1,58,59
 1514 909 1514 909 1696 909 c 0,60,61
 1887 909 1887 909 1990 780 c 1,62,63
 2085 663 2085 663 2085 464 c 0,64,65
 2085 255 2085 255 1954 130 c 1,66,67
 1834 14 1834 14 1656 12 c 1,68,69
 1465 12 1465 12 1359 142 c 1,70,71
 1261 264 1261 264 1261 464 c 0,55,56
1510 466 m 0,72,73
 1510 288 1510 288 1603 229 c 0,74,75
 1633 210 1633 210 1671 210 c 0,76,77
 1751 210 1751 210 1793 275.5 c 128,-1,78
 1835 341 1835 341 1835 427.5 c 128,-1,79
 1835 514 1835 514 1824.5 561 c 128,-1,80
 1814 608 1814 608 1794 642 c 0,81,82
 1751 713 1751 713 1673 713 c 128,-1,83
 1595 713 1595 713 1552.5 647 c 128,-1,84
 1510 581 1510 581 1510 466 c 0,72,73
EndSplineSet
Ligature2: "'frac' Diagonal Fractions in Latin lookup 10 subtable" zero slash zero zero
EndChar

StartChar: minute
Encoding: 8242 8242 399
Width: 692
GlyphClass: 2
Flags: W
LayerCount: 2
Fore
SplineSet
270 1826 m 1,0,-1
 571 1826 l 1,1,-1
 395 1190 l 1,2,-1
 161 1190 l 1,3,-1
 270 1826 l 1,0,-1
EndSplineSet
EndChar

StartChar: guilsinglleft
Encoding: 8249 8249 401
Width: 1214
GlyphClass: 2
Flags: W
LayerCount: 2
Fore
SplineSet
235 735 m 1,0,-1
 891 1157 l 1,1,-1
 966 941 l 1,2,-1
 535 614 l 1,3,-1
 966 290 l 1,4,-1
 891 76 l 1,5,-1
 235 492 l 1,6,-1
 235 735 l 1,0,-1
EndSplineSet
EndChar

StartChar: fraction
Encoding: 8260 8260 404
Width: 1036
GlyphClass: 2
Flags: W
LayerCount: 2
Fore
SplineSet
666 1530 m 1,0,-1
 909 1530 l 1,1,-1
 367 0 l 1,2,-1
 127 0 l 1,3,-1
 666 1530 l 1,0,-1
EndSplineSet
EndChar

StartChar: foursuperior
Encoding: 8308 8308 405
Width: 1181
GlyphClass: 2
Flags: W
LayerCount: 2
Fore
SplineSet
89 952 m 1,0,-1
 587 1841 l 1,1,-1
 655 1841 l 1,2,-1
 842 1749 l 1,3,-1
 402 1050 l 1,4,-1
 687 1050 l 1,5,-1
 712 1310 l 1,6,-1
 942 1310 l 1,7,-1
 942 1050 l 1,8,-1
 1106 1050 l 1,9,-1
 1106 858 l 1,10,-1
 942 858 l 1,11,-1
 942 586 l 1,12,-1
 686 586 l 1,13,-1
 686 858 l 1,14,-1
 141 858 l 1,15,-1
 89 952 l 1,0,-1
EndSplineSet
EndChar

StartChar: Euro
Encoding: 8364 8364 406
Width: 1504
GlyphClass: 2
Flags: W
LayerCount: 2
Fore
SplineSet
645 472 m 1,0,1
 718 201 718 201 995 201 c 0,2,3
 1198 201 1198 201 1320 284 c 1,4,-1
 1380 50 l 1,5,6
 1348 45 1348 45 1316.5 32.5 c 128,-1,7
 1285 20 1285 20 1238 6 c 0,8,9
 1120 -28 1120 -28 967 -28 c 128,-1,10
 814 -28 814 -28 706.5 6 c 128,-1,11
 599 40 599 40 518 104 c 0,12,13
 358 232 358 232 305 472 c 1,14,-1
 92 472 l 1,15,-1
 92 664 l 1,16,-1
 281 664 l 1,17,18
 280 678 280 678 280 692 c 128,-1,19
 280 706 280 706 280 748.5 c 128,-1,20
 280 791 280 791 286 857 c 1,21,-1
 129 857 l 1,22,-1
 129 1049 l 1,23,-1
 323 1049 l 1,24,25
 424 1397 424 1397 746 1500 c 0,26,27
 849 1533 849 1533 922 1536 c 128,-1,28
 995 1539 995 1539 1032.5 1539 c 128,-1,29
 1070 1539 1070 1539 1119.5 1533.5 c 128,-1,30
 1169 1528 1169 1528 1212.5 1517.5 c 128,-1,31
 1256 1507 1256 1507 1289 1495.5 c 128,-1,32
 1322 1484 1322 1484 1354 1477 c 1,33,-1
 1301 1234 l 1,34,35
 1186 1302 1186 1302 998 1302 c 0,36,37
 877 1302 877 1302 785.5 1241 c 128,-1,38
 694 1180 694 1180 649 1049 c 1,39,-1
 1146 1049 l 1,40,-1
 1146 857 l 1,41,-1
 614 857 l 1,42,43
 612 840 612 840 612 823 c 128,-1,44
 612 806 612 806 612 765 c 128,-1,45
 612 724 612 724 615 664 c 1,46,-1
 1097 664 l 1,47,-1
 1097 472 l 1,48,-1
 645 472 l 1,0,1
EndSplineSet
EndChar

StartChar: uni2113
Encoding: 8467 8467 407
Width: 1387
GlyphClass: 2
Flags: W
LayerCount: 2
Fore
SplineSet
386 143 m 1,0,1
 312 97 312 97 236 51 c 1,2,-1
 -13 174 l 1,3,4
 126 250 126 250 287 367 c 1,5,6
 262 473 262 473 262 573.5 c 128,-1,7
 262 674 262 674 271.5 757 c 128,-1,8
 281 840 281 840 300 926 c 128,-1,9
 319 1012 319 1012 348.5 1098 c 128,-1,10
 378 1184 378 1184 418 1262.5 c 128,-1,11
 458 1341 458 1341 509 1408.5 c 128,-1,12
 560 1476 560 1476 623 1526 c 0,13,14
 758 1633 758 1633 922 1633 c 0,15,16
 1062 1633 1062 1633 1140 1536 c 0,17,18
 1214 1444 1214 1444 1214 1285 c 0,19,20
 1214 765 1214 765 593 289 c 1,21,22
 641 209 641 209 733 209 c 0,23,24
 870 209 870 209 974 370 c 0,25,26
 1004 416 1004 416 1026 466 c 1,27,-1
 1265 374 l 1,28,29
 1242 334 1242 334 1217 288.5 c 128,-1,30
 1192 243 1192 243 1159.5 198.5 c 128,-1,31
 1127 154 1127 154 1085.5 113.5 c 128,-1,32
 1044 73 1044 73 988 42 c 0,33,34
 866 -27 866 -27 692 -27 c 0,35,36
 569 -27 569 -27 460 64 c 1,37,38
 420 96 420 96 386 143 c 1,0,1
932 1275 m 0,39,40
 932 1398 932 1398 865 1398 c 0,41,42
 791 1398 791 1398 714 1270 c 0,43,44
 601 1080 601 1080 557 770 c 0,45,46
 543 673 543 673 541 578 c 1,47,48
 932 945 932 945 932 1264 c 0,49,50
 932 1269 932 1269 932 1275 c 0,39,40
EndSplineSet
EndChar

StartChar: afii61352
Encoding: 8470 8470 408
Width: 2720
GlyphClass: 2
Flags: W
LayerCount: 2
Fore
SplineSet
1674 574 m 0,0,1
 1614 655 1614 655 1590.5 756.5 c 128,-1,2
 1567 858 1567 858 1567 983 c 128,-1,3
 1567 1108 1567 1108 1607.5 1213.5 c 128,-1,4
 1648 1319 1648 1319 1718 1388 c 0,5,6
 1862 1530 1862 1530 2108 1530 c 0,7,8
 2365 1530 2365 1530 2498 1362 c 0,9,10
 2615 1213 2615 1213 2615 968 c 0,11,12
 2615 701 2615 701 2469 548 c 0,13,14
 2327 398 2327 398 2089 398 c 0,15,16
 1806 398 1806 398 1674 574 c 0,0,1
188 1522 m 1,17,-1
 484 1522 l 1,18,-1
 988 648 l 1,19,-1
 1087 416 l 1,20,-1
 1083 658 l 1,21,-1
 1083 1522 l 1,22,-1
 1358 1522 l 1,23,-1
 1358 0 l 1,24,-1
 1062 0 l 1,25,-1
 578 817 l 1,26,-1
 459 1084 l 1,27,-1
 465 788 l 1,28,-1
 465 0 l 1,29,-1
 188 0 l 1,30,-1
 188 1522 l 1,17,-1
2098 1317 m 0,31,32
 1871 1317 1871 1317 1871 978 c 0,33,34
 1871 711 1871 711 1996 634 c 0,35,36
 2039 608 2039 608 2096 608 c 0,37,38
 2207 608 2207 608 2259 694 c 128,-1,39
 2311 780 2311 780 2311 961 c 0,40,41
 2311 1218 2311 1218 2194 1292 c 0,42,43
 2155 1317 2155 1317 2101 1317 c 0,44,45
 2100 1317 2100 1317 2098 1317 c 0,31,32
1647 217 m 1,46,-1
 2554 217 l 1,47,-1
 2554 0 l 1,48,-1
 1647 0 l 1,49,-1
 1647 217 l 1,46,-1
EndSplineSet
EndChar

StartChar: trademark
Encoding: 8482 8482 409
Width: 2228
GlyphClass: 2
Flags: W
LayerCount: 2
Fore
SplineSet
1020 1543 m 1,0,-1
 1374 1543 l 1,1,-1
 1488 1202 l 1,2,-1
 1521 1066 l 1,3,-1
 1547 1202 l 1,4,-1
 1654 1543 l 1,5,-1
 1991 1543 l 1,6,-1
 2059 767 l 1,7,-1
 1843 767 l 1,8,-1
 1812 1254 l 1,9,-1
 1806 1375 l 1,10,-1
 1762 1222 l 1,11,-1
 1594 764 l 1,12,-1
 1446 764 l 1,13,-1
 1264 1222 l 1,14,-1
 1213 1376 l 1,15,-1
 1210 1254 l 1,16,-1
 1193 767 l 1,17,-1
 977 767 l 1,18,-1
 1020 1543 l 1,0,-1
397 1352 m 1,19,-1
 149 1351 l 1,20,-1
 148 1543 l 1,21,-1
 872 1543 l 1,22,-1
 872 1351 l 1,23,-1
 616 1352 l 1,24,-1
 616 767 l 1,25,-1
 397 767 l 1,26,-1
 397 1352 l 1,19,-1
EndSplineSet
EndChar

StartChar: Omega
Encoding: 8486 8486 410
Width: 1834
GlyphClass: 2
Flags: W
LayerCount: 2
Fore
SplineSet
169 218 m 1,0,-1
 474 218 l 1,1,2
 280 385 280 385 208 658 c 0,3,4
 186 742 186 742 186 789 c 0,5,6
 186 1025 186 1025 249 1163 c 128,-1,7
 312 1301 312 1301 412 1385 c 0,8,9
 604 1545 604 1545 918 1545 c 0,10,11
 1253 1545 1253 1545 1440 1375 c 0,12,13
 1632 1200 1632 1200 1632 864 c 0,14,15
 1632 670 1632 670 1549 486 c 0,16,17
 1473 318 1473 318 1352 218 c 1,18,-1
 1665 218 l 1,19,-1
 1665 0 l 1,20,-1
 1059 0 l 1,21,-1
 1059 179 l 1,22,23
 1157 238 1157 238 1226 400 c 1,24,25
 1303 584 1303 584 1303 817 c 0,26,27
 1303 1070 1303 1070 1186 1206 c 1,28,29
 1082 1324 1082 1324 918 1324 c 0,30,31
 744 1324 744 1324 636 1206 c 1,32,33
 515 1072 515 1072 515 817 c 0,34,35
 515 590 515 590 606 400 c 0,36,37
 682 242 682 242 788 179 c 1,38,-1
 788 0 l 1,39,-1
 169 0 l 1,40,-1
 169 218 l 1,0,-1
EndSplineSet
EndChar

StartChar: estimated
Encoding: 8494 8494 411
Width: 1383
GlyphClass: 2
Flags: W
LayerCount: 2
Fore
SplineSet
1274 832 m 1,0,1
 1274 664 1274 664 1263 612 c 1,2,-1
 435 612 l 1,3,-1
 435 258 l 1,4,5
 541 147 541 147 750 147 c 0,6,7
 917 147 917 147 1062 224 c 0,8,9
 1101 245 1101 245 1128 266 c 1,10,-1
 1198 115 l 1,11,12
 1082 31 1082 31 875 -4 c 0,13,14
 805 -16 805 -16 732 -16 c 0,15,16
 435 -16 435 -16 272 166 c 0,17,18
 109 347 109 347 109 671 c 0,19,20
 109 978 109 978 262 1158 c 0,21,22
 431 1356 431 1356 748 1356 c 0,23,24
 965 1356 965 1356 1112 1219 c 1,25,26
 1266 1074 1266 1074 1274 832 c 1,0,1
970 1119 m 1,27,28
 888 1193 888 1193 714 1193 c 128,-1,29
 540 1193 540 1193 435 1077 c 1,30,-1
 435 768 l 1,31,-1
 970 768 l 1,32,-1
 970 1119 l 1,27,28
EndSplineSet
EndChar

StartChar: partialdiff
Encoding: 8706 8706 412
Width: 1415
GlyphClass: 2
Flags: W
LayerCount: 2
Fore
SplineSet
126 520 m 0,0,1
 126 805 126 805 306 957 c 0,2,3
 471 1096 471 1096 730 1096 c 0,4,5
 865 1096 865 1096 981 1037 c 1,6,7
 933 1366 933 1366 692 1462 c 0,8,9
 609 1495 609 1495 501 1495 c 0,10,11
 347 1495 347 1495 242 1425 c 1,12,-1
 139 1600 l 1,13,14
 306 1726 306 1726 547 1726 c 0,15,16
 804 1726 804 1726 983 1592 c 0,17,18
 1224 1413 1224 1413 1284 1046 c 0,19,20
 1303 934 1303 934 1303 778 c 128,-1,21
 1303 622 1303 622 1266.5 464.5 c 128,-1,22
 1230 307 1230 307 1152 197 c 0,23,24
 993 -30 993 -30 669 -30 c 0,25,26
 449 -30 449 -30 287.5 123 c 128,-1,27
 126 276 126 276 126 520 c 0,0,1
990 818 m 1,28,29
 879 891 879 891 734 891 c 0,30,31
 522 891 522 891 465 688 c 0,32,33
 448 627 448 627 448 580 c 128,-1,34
 448 533 448 533 449 491 c 128,-1,35
 450 449 450 449 463.5 389 c 128,-1,36
 477 329 477 329 508 285 c 0,37,38
 574 192 574 192 718 192 c 0,39,40
 920 192 920 192 973 509 c 0,41,42
 990 611 990 611 990 729 c 2,43,-1
 990 818 l 1,28,29
EndSplineSet
EndChar

StartChar: Delta
Encoding: 8710 8710 413
Width: 1622
GlyphClass: 2
Flags: W
LayerCount: 2
Fore
SplineSet
765 1508 m 1,0,-1
 797 1508 l 1,1,-1
 1544 27 l 1,2,-1
 1528 0 l 1,3,-1
 92 0 l 1,4,-1
 78 22 l 1,5,-1
 765 1508 l 1,0,-1
1137 252 m 1,6,-1
 785 986 l 1,7,-1
 453 252 l 1,8,-1
 1137 252 l 1,6,-1
EndSplineSet
EndChar

StartChar: product
Encoding: 8719 8719 414
Width: 1708
GlyphClass: 2
Flags: W
LayerCount: 2
Fore
SplineSet
321 1291 m 1,0,-1
 104 1292 l 1,1,-1
 104 1522 l 1,2,-1
 1604 1522 l 1,3,-1
 1604 1292 l 1,4,-1
 1377 1291 l 1,5,-1
 1377 -171 l 1,6,-1
 1059 -171 l 1,7,-1
 1059 1291 l 1,8,-1
 639 1291 l 1,9,-1
 639 -171 l 1,10,-1
 321 -171 l 1,11,-1
 321 1291 l 1,0,-1
EndSplineSet
EndChar

StartChar: summation
Encoding: 8721 8721 415
Width: 1463
GlyphClass: 2
Flags: W
LayerCount: 2
Fore
SplineSet
703 680 m 1,0,-1
 152 1442 l 1,1,-1
 182 1522 l 1,2,-1
 1255 1522 l 1,3,-1
 1255 1293 l 1,4,-1
 577 1293 l 1,5,-1
 1010 686 l 1,6,-1
 584 48 l 1,7,-1
 1296 48 l 1,8,-1
 1296 -170 l 1,9,-1
 178 -170 l 1,10,-1
 152 -106 l 1,11,-1
 703 680 l 1,0,-1
EndSplineSet
EndChar

StartChar: minus
Encoding: 8722 8722 416
Width: 1360
GlyphClass: 2
Flags: W
LayerCount: 2
Fore
SplineSet
255 889 m 1,0,-1
 1105 889 l 1,1,-1
 1105 644 l 1,2,-1
 255 644 l 1,3,-1
 255 889 l 1,0,-1
EndSplineSet
EndChar

StartChar: uni2215
Encoding: 8725 8725 417
Width: 854
GlyphClass: 2
Flags: W
LayerCount: 2
Fore
SplineSet
679 1599 m 1,0,-1
 951 1599 l 1,1,-1
 176 -363 l 1,2,-1
 -96 -363 l 1,3,-1
 679 1599 l 1,0,-1
EndSplineSet
EndChar

StartChar: uni2219
Encoding: 8729 8729 418
Width: 641
GlyphClass: 2
Flags: W
LayerCount: 2
Fore
SplineSet
401.5 580 m 128,-1,1
 360 561 360 561 313.5 561 c 128,-1,2
 267 561 267 561 228.5 577.5 c 128,-1,3
 190 594 190 594 162 623 c 0,4,5
 102 685 102 685 102 778 c 0,6,7
 102 874 102 874 169 944 c 0,8,9
 237 1016 237 1016 331 1016 c 0,10,11
 427 1016 427 1016 484 954 c 0,12,13
 539 893 539 893 539 800 c 0,14,15
 539 797 539 797 539 773.5 c 128,-1,16
 539 750 539 750 522 707.5 c 128,-1,17
 505 665 505 665 474 632 c 128,-1,0
 443 599 443 599 401.5 580 c 128,-1,1
EndSplineSet
EndChar

StartChar: radical
Encoding: 8730 8730 419
Width: 1642
GlyphClass: 2
Flags: W
LayerCount: 2
Fore
SplineSet
109 574 m 1,0,-1
 384 716 l 1,1,-1
 588 716 l 1,2,-1
 837 19 l 1,3,-1
 1379 1870 l 1,4,-1
 1687 1870 l 1,5,-1
 970 -354 l 1,6,-1
 709 -354 l 1,7,-1
 374 434 l 1,8,-1
 216 353 l 1,9,-1
 109 574 l 1,0,-1
EndSplineSet
EndChar

StartChar: infinity
Encoding: 8734 8734 420
Width: 2006
GlyphClass: 2
Flags: W
LayerCount: 2
Fore
SplineSet
986 402 m 1,0,1
 796 182 796 182 555 182 c 0,2,3
 336 182 336 182 206 313 c 0,4,5
 84 436 84 436 84 617 c 0,6,7
 84 800 84 800 213 924 c 0,8,9
 348 1053 348 1053 560 1053 c 0,10,11
 799 1053 799 1053 946 914 c 0,12,13
 989 872 989 872 1024 825 c 1,14,15
 1208 1049 1208 1049 1453 1049 c 0,16,17
 1679 1049 1679 1049 1807 916 c 0,18,19
 1922 796 1922 796 1922 614 c 0,20,21
 1922 428 1922 428 1795 306 c 0,22,23
 1661 178 1661 178 1443 178 c 0,24,25
 1148 178 1148 178 986 402 c 1,0,1
867 573 m 1,26,27
 705 836 705 836 547 836 c 0,28,29
 463 836 463 836 409 776 c 0,30,31
 354 716 354 716 354 618 c 0,32,33
 354 466 354 466 488 414 c 0,34,35
 535 396 535 396 602 396 c 0,36,37
 735 396 735 396 867 573 c 1,26,27
1144 653 m 1,38,39
 1301 390 1301 390 1455 390 c 0,40,41
 1541 390 1541 390 1596 452 c 1,42,43
 1649 514 1649 514 1649 615 c 0,44,45
 1649 762 1649 762 1516 812 c 0,46,47
 1471 829 1471 829 1404 829 c 0,48,49
 1273 829 1273 829 1144 653 c 1,38,39
EndSplineSet
EndChar

StartChar: integral
Encoding: 8747 8747 421
Width: 1082
GlyphClass: 2
Flags: W
LayerCount: 2
Fore
SplineSet
683 1473 m 0,0,1
 480 1473 480 1473 480 1222 c 0,2,3
 480 1044 480 1044 586 796 c 0,4,5
 630 694 630 694 680.5 590.5 c 128,-1,6
 731 487 731 487 775 384 c 0,7,8
 882 134 882 134 882 -41 c 0,9,10
 882 -224 882 -224 785 -356 c 1,11,12
 664 -518 664 -518 425 -518 c 0,13,14
 339 -518 339 -518 266 -490 c 0,15,16
 131 -438 131 -438 105 -386 c 1,17,-1
 196 -193 l 1,18,19
 220 -228 220 -228 269 -256 c 0,20,21
 358 -306 358 -306 415.5 -306 c 128,-1,22
 473 -306 473 -306 510 -288 c 0,23,24
 608 -239 608 -239 608 -59 c 256,25,26
 608 121 608 121 501 372 c 0,27,28
 457 475 457 475 406 579 c 128,-1,29
 355 683 355 683 312 786 c 0,30,31
 205 1039 205 1039 205 1213 c 0,32,33
 205 1536 205 1536 454 1646 c 0,34,35
 543 1685 543 1685 640 1685 c 128,-1,36
 737 1685 737 1685 789.5 1673.5 c 128,-1,37
 842 1662 842 1662 881 1643 c 0,38,39
 954 1607 954 1607 983 1548 c 1,40,-1
 859 1385 l 1,41,42
 835 1438 835 1438 748 1464 c 0,43,44
 718 1473 718 1473 683 1473 c 0,0,1
EndSplineSet
EndChar

StartChar: notequal
Encoding: 8800 8800 423
Width: 1423
GlyphClass: 2
Flags: W
LayerCount: 2
Fore
SplineSet
479 411 m 1,0,-1
 251 411 l 1,1,-1
 251 627 l 1,2,-1
 556 627 l 1,3,-1
 660 923 l 1,4,-1
 251 923 l 1,5,-1
 251 1139 l 1,6,-1
 738 1139 l 1,7,-1
 803 1319 l 1,8,-1
 997 1319 l 1,9,-1
 931 1139 l 1,10,-1
 1172 1139 l 1,11,-1
 1172 923 l 1,12,-1
 853 923 l 1,13,-1
 750 627 l 1,14,-1
 1172 627 l 1,15,-1
 1172 411 l 1,16,-1
 672 411 l 1,17,-1
 598 203 l 1,18,-1
 406 203 l 1,19,-1
 479 411 l 1,0,-1
EndSplineSet
EndChar

StartChar: lessequal
Encoding: 8804 8804 424
Width: 1378
GlyphClass: 2
Flags: W
LayerCount: 2
Fore
SplineSet
175 851 m 1,0,-1
 1144 1271 l 1,1,-1
 1144 1009 l 1,2,-1
 513 773 l 1,3,-1
 1144 541 l 1,4,-1
 1144 278 l 1,5,-1
 175 696 l 1,6,-1
 175 851 l 1,0,-1
175 204 m 1,7,-1
 1144 204 l 1,8,-1
 1144 -1 l 1,9,-1
 175 -1 l 1,10,-1
 175 204 l 1,7,-1
EndSplineSet
EndChar

StartChar: lozenge
Encoding: 9674 9674 426
Width: 1314
GlyphClass: 2
Flags: W
LayerCount: 2
Fore
SplineSet
70 762 m 1,0,-1
 70 775 l 1,1,-1
 656 1536 l 1,2,-1
 660 1536 l 1,3,-1
 1245 775 l 1,4,-1
 1245 762 l 1,5,-1
 660 0 l 1,6,-1
 655 0 l 1,7,-1
 70 762 l 1,0,-1
659 363 m 1,8,-1
 958 769 l 1,9,-1
 958 772 l 1,10,-1
 659 1156 l 1,11,-1
 656 1156 l 1,12,-1
 357 772 l 1,13,-1
 357 766 l 1,14,-1
 656 363 l 1,15,-1
 659 363 l 1,8,-1
EndSplineSet
EndChar

StartChar: commaaccent
Encoding: 63171 63171 427
Width: 415
GlyphClass: 2
Flags: W
LayerCount: 2
Fore
SplineSet
87 -490 m 1,0,1
 117 -458 117 -458 117 -354 c 0,2,3
 117 -296 117 -296 76 -251 c 0,4,5
 65 -239 65 -239 55 -234 c 1,6,-1
 55 -184 l 1,7,-1
 239 -86 l 1,8,9
 305 -102 305 -102 337 -204 c 0,10,11
 348 -238 348 -238 348 -290 c 128,-1,12
 348 -342 348 -342 330.5 -391 c 128,-1,13
 313 -440 313 -440 289 -476 c 0,14,15
 243 -543 243 -543 198 -560 c 1,16,-1
 87 -516 l 1,17,-1
 87 -490 l 1,0,1
EndSplineSet
EndChar

StartChar: grave.cap
Encoding: 65537 -1 433
Width: 652
GlyphClass: 2
Flags: W
LayerCount: 2
Fore
SplineSet
423 1543 m 1,0,1
 358 1564 358 1564 271 1638 c 1,2,3
 118 1765 118 1765 57 1849 c 1,4,-1
 274 1980 l 1,5,6
 286 1942 286 1942 484 1750 c 0,7,8
 516 1719 516 1719 539 1696.5 c 128,-1,9
 562 1674 562 1674 569 1668 c 1,10,-1
 423 1543 l 1,0,1
EndSplineSet
EndChar

StartChar: dieresis.cap
Encoding: 65538 -1 434
Width: 988
GlyphClass: 2
Flags: W
LayerCount: 2
Fore
SplineSet
821 1628 m 128,-1,1
 787 1614 787 1614 748 1614 c 128,-1,2
 709 1614 709 1614 678 1625.5 c 128,-1,3
 647 1637 647 1637 625 1658 c 0,4,5
 579 1703 579 1703 579 1778 c 0,6,7
 579 1855 579 1855 633.5 1907.5 c 128,-1,8
 688 1960 688 1960 769 1960 c 128,-1,9
 850 1960 850 1960 891.5 1914.5 c 128,-1,10
 933 1869 933 1869 933 1813 c 128,-1,11
 933 1757 933 1757 919 1723.5 c 128,-1,12
 905 1690 905 1690 880 1666 c 128,-1,0
 855 1642 855 1642 821 1628 c 128,-1,1
298 1628 m 128,-1,14
 264 1614 264 1614 205.5 1614 c 128,-1,15
 147 1614 147 1614 101 1658.5 c 128,-1,16
 55 1703 55 1703 55 1778 c 0,17,18
 55 1855 55 1855 109.5 1907.5 c 128,-1,19
 164 1960 164 1960 245 1960 c 128,-1,20
 326 1960 326 1960 368 1914.5 c 128,-1,21
 410 1869 410 1869 410 1813 c 128,-1,22
 410 1757 410 1757 396 1723.5 c 128,-1,23
 382 1690 382 1690 357 1666 c 128,-1,13
 332 1642 332 1642 298 1628 c 128,-1,14
EndSplineSet
EndChar

StartChar: circumflex.cap
Encoding: 65539 -1 435
Width: 868
GlyphClass: 2
Flags: W
LayerCount: 2
Fore
SplineSet
49 1650 m 1,0,-1
 323 1960 l 1,1,-1
 543 1960 l 1,2,-1
 819 1652 l 1,3,-1
 654 1560 l 1,4,-1
 433 1759 l 1,5,-1
 211 1560 l 1,6,-1
 49 1650 l 1,0,-1
EndSplineSet
EndChar

StartChar: caron.cap
Encoding: 65540 -1 436
Width: 769
GlyphClass: 2
Flags: W
LayerCount: 2
Fore
SplineSet
49 1868 m 1,0,-1
 206 1960 l 1,1,-1
 426 1779 l 1,2,-1
 649 1960 l 1,3,-1
 803 1869 l 1,4,-1
 536 1576 l 1,5,-1
 317 1576 l 1,6,-1
 49 1868 l 1,0,-1
EndSplineSet
EndChar

StartChar: breve.cap
Encoding: 65541 -1 437
Width: 815
GlyphClass: 2
Flags: W
LayerCount: 2
Fore
SplineSet
235 1960 m 1,0,1
 243 1817 243 1817 408 1817 c 0,2,3
 509 1817 509 1817 552 1870 c 0,4,5
 578 1903 578 1903 584 1960 c 1,6,-1
 771 1960 l 1,7,8
 771 1951 771 1951 771 1914 c 128,-1,9
 771 1877 771 1877 749.5 1817 c 128,-1,10
 728 1757 728 1757 681 1711 c 0,11,12
 582 1614 582 1614 408 1614 c 0,13,14
 227 1614 227 1614 130 1711 c 0,15,16
 44 1797 44 1797 44 1942 c 0,17,18
 44 1951 44 1951 44 1960 c 1,19,-1
 235 1960 l 1,0,1
EndSplineSet
EndChar

StartChar: ring.cap
Encoding: 65542 -1 438
Width: 767
GlyphClass: 2
Flags: W
LayerCount: 2
Fore
SplineSet
130 1488.5 m 128,-1,1
 42 1561 42 1561 42 1694 c 0,2,3
 42 1839 42 1839 154 1912 c 1,4,5
 245 1970 245 1970 389 1970 c 0,6,7
 633 1970 633 1970 702 1816 c 0,8,9
 725 1765 725 1765 724.5 1692 c 128,-1,10
 724 1619 724 1619 695 1566 c 128,-1,11
 666 1513 666 1513 618 1480 c 0,12,13
 527 1416 527 1416 372.5 1416 c 128,-1,0
 218 1416 218 1416 130 1488.5 c 128,-1,1
270 1602 m 128,-1,15
 314 1568 314 1568 366.5 1568 c 128,-1,16
 419 1568 419 1568 448 1572.5 c 128,-1,17
 477 1577 477 1577 498 1590 c 0,18,19
 542 1619 542 1619 542 1692 c 0,20,21
 542 1787 542 1787 446 1816 c 0,22,23
 417 1824 417 1824 384.5 1824 c 128,-1,24
 352 1824 352 1824 323.5 1819 c 128,-1,25
 295 1814 295 1814 274 1800 c 1,26,27
 226 1771 226 1771 226 1703.5 c 128,-1,14
 226 1636 226 1636 270 1602 c 128,-1,15
EndSplineSet
EndChar

StartChar: tilde.cap
Encoding: 65543 -1 439
Width: 937
GlyphClass: 2
Flags: W
LayerCount: 2
Fore
SplineSet
311 1736 m 0,0,1
 241 1736 241 1736 157 1634 c 1,2,-1
 32 1732 l 1,3,4
 85 1888 85 1888 228 1940 c 0,5,6
 276 1958 276 1958 324.5 1958 c 128,-1,7
 373 1958 373 1958 403.5 1948.5 c 128,-1,8
 434 1939 434 1939 458 1924.5 c 128,-1,9
 482 1910 482 1910 502 1893 c 128,-1,10
 522 1876 522 1876 541 1862 c 0,11,12
 585 1828 585 1828 627 1828 c 0,13,14
 700 1828 700 1828 782 1939 c 1,15,-1
 908 1831 l 1,16,17
 852 1669 852 1669 716 1620 c 0,18,19
 668 1603 668 1603 619 1603 c 128,-1,20
 570 1603 570 1603 540 1613 c 128,-1,21
 510 1623 510 1623 486.5 1637.5 c 128,-1,22
 463 1652 463 1652 443 1669.5 c 128,-1,23
 423 1687 423 1687 404 1702 c 1,24,25
 357 1736 357 1736 311 1736 c 0,0,1
EndSplineSet
EndChar

StartChar: hungarumlaut.cap
Encoding: 65544 -1 440
Width: 972
GlyphClass: 2
Flags: W
LayerCount: 2
Fore
SplineSet
47 1668 m 1,0,1
 67 1685 67 1685 126.5 1761 c 128,-1,2
 186 1837 186 1837 208 1868 c 0,3,4
 258 1937 258 1937 267 1960 c 1,5,-1
 497 1848 l 1,6,7
 390 1692 390 1692 276 1597 c 0,8,9
 239 1566 239 1566 209 1553 c 1,10,-1
 47 1668 l 1,0,1
560 1668 m 1,11,12
 581 1686 581 1686 641.5 1760.5 c 128,-1,13
 702 1835 702 1835 724 1865 c 0,14,15
 774 1931 774 1931 784 1957 c 1,16,-1
 1010 1844 l 1,17,18
 909 1694 909 1694 790 1597 c 0,19,20
 752 1566 752 1566 721 1553 c 1,21,-1
 560 1668 l 1,11,12
EndSplineSet
EndChar

StartChar: acute.cap
Encoding: 65545 -1 441
Width: 652
GlyphClass: 2
Flags: W
LayerCount: 2
Fore
SplineSet
85 1668 m 1,0,1
 113 1692 113 1692 192 1771 c 128,-1,2
 271 1850 271 1850 302 1882 c 1,3,4
 371 1957 371 1957 380 1980 c 1,5,-1
 597 1849 l 1,6,7
 481 1701 481 1701 318 1589 c 0,8,9
 268 1555 268 1555 231 1543 c 1,10,-1
 85 1668 l 1,0,1
EndSplineSet
EndChar

StartChar: dotaccent.cap
Encoding: 65546 -1 442
Width: 489
GlyphClass: 2
Flags: W
LayerCount: 2
Fore
SplineSet
310.5 1628 m 128,-1,1
 276 1614 276 1614 237 1614 c 128,-1,2
 198 1614 198 1614 166 1625.5 c 128,-1,3
 134 1637 134 1637 112 1658 c 0,4,5
 64 1704 64 1704 64 1778 c 0,6,7
 64 1854 64 1854 120 1906 c 0,8,9
 176 1959 176 1959 257 1959 c 128,-1,10
 338 1959 338 1959 381.5 1914 c 128,-1,11
 425 1869 425 1869 425 1812.5 c 128,-1,12
 425 1756 425 1756 410.5 1723 c 128,-1,13
 396 1690 396 1690 370.5 1666 c 128,-1,0
 345 1642 345 1642 310.5 1628 c 128,-1,1
EndSplineSet
EndChar

StartChar: macron.cap
Encoding: 65547 -1 443
Width: 701
GlyphClass: 2
Flags: W
LayerCount: 2
Fore
SplineSet
55 1893 m 1,0,-1
 646 1893 l 1,1,-1
 646 1687 l 1,2,-1
 55 1687 l 1,3,-1
 55 1893 l 1,0,-1
EndSplineSet
EndChar

StartChar: caronvertical
Encoding: 65548 -1 444
Width: 413
GlyphClass: 2
Flags: W
LayerCount: 2
Fore
SplineSet
102 1061 m 1,0,1
 124 1162 124 1162 124 1276.5 c 128,-1,2
 124 1391 124 1391 119.5 1424.5 c 128,-1,3
 115 1458 115 1458 106 1487 c 0,4,5
 88 1551 88 1551 65 1574 c 1,6,-1
 77 1638 l 1,7,-1
 292 1708 l 1,8,9
 363 1641 363 1641 363 1440 c 0,10,11
 363 1248 363 1248 284 1078 c 0,12,13
 262 1032 262 1032 243 1010 c 1,14,-1
 110 1038 l 1,15,-1
 102 1061 l 1,0,1
EndSplineSet
EndChar

